<?xml version="1.0" encoding="utf-8" standalone="no"?>
<!DOCTYPE svg PUBLIC "-//W3C//DTD SVG 1.1//EN"
  "http://www.w3.org/Graphics/SVG/1.1/DTD/svg11.dtd">
<!-- Created with matplotlib (https://matplotlib.org/) -->
<svg height="576pt" version="1.1" viewBox="0 0 576 576" width="576pt" xmlns="http://www.w3.org/2000/svg" xmlns:xlink="http://www.w3.org/1999/xlink">
 <metadata>
  <rdf:RDF xmlns:cc="http://creativecommons.org/ns#" xmlns:dc="http://purl.org/dc/elements/1.1/" xmlns:rdf="http://www.w3.org/1999/02/22-rdf-syntax-ns#">
   <cc:Work>
    <dc:type rdf:resource="http://purl.org/dc/dcmitype/StillImage"/>
    <dc:date>2022-02-22T18:04:06.552413</dc:date>
    <dc:format>image/svg+xml</dc:format>
    <dc:creator>
     <cc:Agent>
      <dc:title>Matplotlib v3.3.3, https://matplotlib.org/</dc:title>
     </cc:Agent>
    </dc:creator>
   </cc:Work>
  </rdf:RDF>
 </metadata>
 <defs>
  <style type="text/css">*{stroke-linecap:butt;stroke-linejoin:round;}</style>
 </defs>
 <g id="figure_1">
  <g id="patch_1">
   <path d="M 0 576 
L 576 576 
L 576 0 
L 0 0 
z
" style="fill:none;"/>
  </g>
  <g id="axes_1">
   <g id="patch_2">
    <path d="M 72 504 
L 518.4 504 
L 518.4 69.12 
L 72 69.12 
z
" style="fill:#ffffff;"/>
   </g>
   <g id="matplotlib.axis_1">
    <g id="xtick_1">
     <g id="line2d_1">
      <defs>
       <path d="M 0 0 
L 0 3.5 
" id="mc464955947" style="stroke:#000000;stroke-width:0.8;"/>
      </defs>
      <g>
       <use style="stroke:#000000;stroke-width:0.8;" x="92.290909" xlink:href="#mc464955947" y="504"/>
      </g>
     </g>
     <g id="text_1">
      <!-- $4.2$ -->
      <g transform="translate(82.050909 523.1575)scale(0.16 -0.16)">
       <defs>
        <path d="M 2.78125 16.5 
L 2.78125 20.015625 
L 33.6875 66.109375 
Q 34.03125 66.609375 34.71875 66.609375 
L 36.1875 66.609375 
Q 37.3125 66.609375 37.3125 65.484375 
L 37.3125 20.015625 
L 47.125 20.015625 
L 47.125 16.5 
L 37.3125 16.5 
L 37.3125 6.6875 
Q 37.3125 4.640625 40.234375 4.078125 
Q 43.171875 3.515625 47.015625 3.515625 
L 47.015625 0 
L 19.484375 0 
L 19.484375 3.515625 
Q 23.34375 3.515625 26.265625 4.078125 
Q 29.203125 4.640625 29.203125 6.6875 
L 29.203125 16.5 
z
M 6.109375 20.015625 
L 29.78125 20.015625 
L 29.78125 55.421875 
z
" id="Cmr10-52"/>
        <path d="M 8.40625 5.515625 
Q 8.40625 7.765625 10.0625 9.375 
Q 11.71875 10.984375 13.921875 10.984375 
Q 15.28125 10.984375 16.59375 10.25 
Q 17.921875 9.515625 18.65625 8.203125 
Q 19.390625 6.890625 19.390625 5.515625 
Q 19.390625 3.328125 17.765625 1.65625 
Q 16.15625 0 13.921875 0 
Q 11.71875 0 10.0625 1.65625 
Q 8.40625 3.328125 8.40625 5.515625 
z
" id="Cmmi10-58"/>
        <path d="M 4.984375 0 
L 4.984375 2.6875 
Q 4.984375 2.9375 5.171875 3.21875 
L 20.703125 20.40625 
Q 24.21875 24.21875 26.40625 26.796875 
Q 28.609375 29.390625 30.75 32.765625 
Q 32.90625 36.140625 34.15625 39.625 
Q 35.40625 43.109375 35.40625 47.015625 
Q 35.40625 51.125 33.890625 54.859375 
Q 32.375 58.59375 29.375 60.84375 
Q 26.375 63.09375 22.125 63.09375 
Q 17.78125 63.09375 14.3125 60.46875 
Q 10.84375 57.859375 9.421875 53.71875 
Q 9.8125 53.8125 10.5 53.8125 
Q 12.75 53.8125 14.328125 52.296875 
Q 15.921875 50.78125 15.921875 48.390625 
Q 15.921875 46.09375 14.328125 44.5 
Q 12.75 42.921875 10.5 42.921875 
Q 8.15625 42.921875 6.5625 44.546875 
Q 4.984375 46.1875 4.984375 48.390625 
Q 4.984375 52.15625 6.390625 55.4375 
Q 7.8125 58.734375 10.46875 61.296875 
Q 13.140625 63.875 16.484375 65.234375 
Q 19.828125 66.609375 23.578125 66.609375 
Q 29.296875 66.609375 34.21875 64.1875 
Q 39.15625 61.765625 42.03125 57.34375 
Q 44.921875 52.9375 44.921875 47.015625 
Q 44.921875 42.671875 43.015625 38.765625 
Q 41.109375 34.859375 38.125 31.65625 
Q 35.15625 28.46875 30.515625 24.40625 
Q 25.875 20.359375 24.421875 19 
L 13.09375 8.109375 
L 22.703125 8.109375 
Q 29.78125 8.109375 34.546875 8.21875 
Q 39.3125 8.34375 39.59375 8.59375 
Q 40.765625 9.859375 42 17.828125 
L 44.921875 17.828125 
L 42.09375 0 
z
" id="Cmr10-50"/>
       </defs>
       <use transform="translate(0 0.390625)" xlink:href="#Cmr10-52"/>
       <use transform="translate(50 0.390625)" xlink:href="#Cmmi10-58"/>
       <use transform="translate(77.685547 0.390625)" xlink:href="#Cmr10-50"/>
      </g>
     </g>
    </g>
    <g id="xtick_2">
     <g id="line2d_2">
      <g>
       <use style="stroke:#000000;stroke-width:0.8;" x="143.018182" xlink:href="#mc464955947" y="504"/>
      </g>
     </g>
     <g id="text_2">
      <!-- $4.4$ -->
      <g transform="translate(132.778182 523.1575)scale(0.16 -0.16)">
       <use transform="translate(0 0.390625)" xlink:href="#Cmr10-52"/>
       <use transform="translate(50 0.390625)" xlink:href="#Cmmi10-58"/>
       <use transform="translate(77.685547 0.390625)" xlink:href="#Cmr10-52"/>
      </g>
     </g>
    </g>
    <g id="xtick_3">
     <g id="line2d_3">
      <g>
       <use style="stroke:#000000;stroke-width:0.8;" x="193.745455" xlink:href="#mc464955947" y="504"/>
      </g>
     </g>
     <g id="text_3">
      <!-- $4.6$ -->
      <g transform="translate(183.505455 523.1575)scale(0.16 -0.16)">
       <defs>
        <path d="M 25 -2.203125 
Q 18.796875 -2.203125 14.640625 1.09375 
Q 10.5 4.390625 8.21875 9.640625 
Q 5.953125 14.890625 5.078125 20.65625 
Q 4.203125 26.421875 4.203125 32.328125 
Q 4.203125 40.234375 7.28125 48.1875 
Q 10.359375 56.15625 16.328125 61.375 
Q 22.3125 66.609375 30.515625 66.609375 
Q 33.9375 66.609375 36.890625 65.3125 
Q 39.84375 64.015625 41.53125 61.5 
Q 43.21875 58.984375 43.21875 55.421875 
Q 43.21875 53.375 41.828125 51.984375 
Q 40.4375 50.59375 38.375 50.59375 
Q 36.421875 50.59375 35 52 
Q 33.59375 53.421875 33.59375 55.421875 
Q 33.59375 57.375 35 58.78125 
Q 36.421875 60.203125 38.375 60.203125 
L 38.921875 60.203125 
Q 37.640625 62.015625 35.328125 62.859375 
Q 33.015625 63.71875 30.515625 63.71875 
Q 27.484375 63.71875 24.921875 62.390625 
Q 22.359375 61.078125 20.3125 58.828125 
Q 18.265625 56.59375 16.890625 53.875 
Q 15.53125 51.171875 14.765625 47.703125 
Q 14.015625 44.234375 13.8125 41.203125 
Q 13.625 38.1875 13.625 33.59375 
Q 15.375 37.703125 18.59375 40.3125 
Q 21.828125 42.921875 25.875 42.921875 
Q 30.328125 42.921875 33.984375 41.109375 
Q 37.640625 39.3125 40.28125 36.109375 
Q 42.921875 32.90625 44.3125 28.796875 
Q 45.703125 24.703125 45.703125 20.515625 
Q 45.703125 14.65625 43.09375 9.34375 
Q 40.484375 4.046875 35.734375 0.921875 
Q 31 -2.203125 25 -2.203125 
z
M 25 0.984375 
Q 28.859375 0.984375 31.203125 2.734375 
Q 33.546875 4.5 34.640625 7.390625 
Q 35.75 10.296875 36.015625 13.25 
Q 36.28125 16.21875 36.28125 20.515625 
Q 36.28125 26.171875 35.734375 30.171875 
Q 35.203125 34.1875 32.8125 37.234375 
Q 30.421875 40.28125 25.484375 40.28125 
Q 21.4375 40.28125 18.828125 37.546875 
Q 16.21875 34.8125 15.015625 30.640625 
Q 13.8125 26.46875 13.8125 22.609375 
Q 13.8125 21.296875 13.921875 20.609375 
Q 13.921875 20.453125 13.890625 20.359375 
Q 13.875 20.265625 13.8125 20.125 
Q 13.8125 15.828125 14.6875 11.421875 
Q 15.578125 7.03125 18.0625 4 
Q 20.5625 0.984375 25 0.984375 
z
" id="Cmr10-54"/>
       </defs>
       <use transform="translate(0 0.390625)" xlink:href="#Cmr10-52"/>
       <use transform="translate(50 0.390625)" xlink:href="#Cmmi10-58"/>
       <use transform="translate(77.685547 0.390625)" xlink:href="#Cmr10-54"/>
      </g>
     </g>
    </g>
    <g id="xtick_4">
     <g id="line2d_4">
      <g>
       <use style="stroke:#000000;stroke-width:0.8;" x="244.472727" xlink:href="#mc464955947" y="504"/>
      </g>
     </g>
     <g id="text_4">
      <!-- $4.8$ -->
      <g transform="translate(234.232727 523.1575)scale(0.16 -0.16)">
       <defs>
        <path d="M 4.203125 15.1875 
Q 4.203125 21.1875 8.15625 25.796875 
Q 12.109375 30.421875 18.3125 33.5 
L 14.59375 35.890625 
Q 11.1875 38.140625 9.03125 41.875 
Q 6.890625 45.609375 6.890625 49.703125 
Q 6.890625 54.5 9.40625 58.34375 
Q 11.921875 62.203125 16.09375 64.40625 
Q 20.265625 66.609375 25 66.609375 
Q 29.4375 66.609375 33.5625 64.796875 
Q 37.703125 62.984375 40.359375 59.609375 
Q 43.015625 56.25 43.015625 51.609375 
Q 43.015625 48.25 41.421875 45.359375 
Q 39.84375 42.484375 37.078125 40.1875 
Q 34.328125 37.890625 31.203125 36.28125 
L 36.921875 32.625 
Q 40.875 30.03125 43.28125 25.828125 
Q 45.703125 21.625 45.703125 17 
Q 45.703125 11.578125 42.796875 7.125 
Q 39.890625 2.6875 35.109375 0.234375 
Q 30.328125 -2.203125 25 -2.203125 
Q 19.828125 -2.203125 15.015625 -0.09375 
Q 10.203125 2 7.203125 5.984375 
Q 4.203125 9.96875 4.203125 15.1875 
z
M 9.625 15.1875 
Q 9.625 11.234375 11.796875 7.953125 
Q 13.96875 4.6875 17.53125 2.828125 
Q 21.09375 0.984375 25 0.984375 
Q 30.8125 0.984375 35.546875 4.375 
Q 40.28125 7.765625 40.28125 13.375 
Q 40.28125 15.28125 39.515625 17.15625 
Q 38.765625 19.046875 37.421875 20.578125 
Q 36.078125 22.125 34.421875 23.09375 
L 21 31.78125 
Q 17.875 30.125 15.25 27.578125 
Q 12.640625 25.046875 11.125 21.875 
Q 9.625 18.703125 9.625 15.1875 
z
M 16.5 45.703125 
L 28.609375 37.890625 
Q 32.8125 40.328125 35.5 43.796875 
Q 38.1875 47.265625 38.1875 51.609375 
Q 38.1875 54.984375 36.296875 57.78125 
Q 34.421875 60.59375 31.390625 62.15625 
Q 28.375 63.71875 24.90625 63.71875 
Q 21.875 63.71875 18.796875 62.546875 
Q 15.71875 61.375 13.71875 59.046875 
Q 11.71875 56.734375 11.71875 53.609375 
Q 11.71875 48.921875 16.5 45.703125 
z
" id="Cmr10-56"/>
       </defs>
       <use transform="translate(0 0.390625)" xlink:href="#Cmr10-52"/>
       <use transform="translate(50 0.390625)" xlink:href="#Cmmi10-58"/>
       <use transform="translate(77.685547 0.390625)" xlink:href="#Cmr10-56"/>
      </g>
     </g>
    </g>
    <g id="xtick_5">
     <g id="line2d_5">
      <g>
       <use style="stroke:#000000;stroke-width:0.8;" x="295.2" xlink:href="#mc464955947" y="504"/>
      </g>
     </g>
     <g id="text_5">
      <!-- $5.0$ -->
      <g transform="translate(284.96 523.1575)scale(0.16 -0.16)">
       <defs>
        <path d="M 8.6875 11.375 
Q 9.71875 8.453125 11.84375 6.046875 
Q 13.96875 3.65625 16.875 2.3125 
Q 19.78125 0.984375 22.90625 0.984375 
Q 30.125 0.984375 32.859375 6.59375 
Q 35.59375 12.203125 35.59375 20.21875 
Q 35.59375 23.6875 35.46875 26.046875 
Q 35.359375 28.421875 34.8125 30.609375 
Q 33.890625 34.125 31.5625 36.765625 
Q 29.25 39.40625 25.875 39.40625 
Q 22.515625 39.40625 20.09375 38.375 
Q 17.671875 37.359375 16.15625 35.984375 
Q 14.65625 34.625 13.484375 33.109375 
Q 12.3125 31.59375 12.015625 31.5 
L 10.890625 31.5 
Q 10.640625 31.5 10.265625 31.8125 
Q 9.90625 32.125 9.90625 32.421875 
L 9.90625 65.828125 
Q 9.90625 66.0625 10.21875 66.328125 
Q 10.546875 66.609375 10.890625 66.609375 
L 11.1875 66.609375 
Q 17.921875 63.375 25.484375 63.375 
Q 32.90625 63.375 39.796875 66.609375 
L 40.09375 66.609375 
Q 40.4375 66.609375 40.71875 66.359375 
Q 41.015625 66.109375 41.015625 65.828125 
L 41.015625 64.890625 
Q 41.015625 64.40625 40.828125 64.40625 
Q 37.40625 59.859375 32.25 57.3125 
Q 27.09375 54.78125 21.578125 54.78125 
Q 17.578125 54.78125 13.375 55.90625 
L 13.375 37.015625 
Q 16.703125 39.703125 19.3125 40.84375 
Q 21.921875 42 25.984375 42 
Q 31.5 42 35.859375 38.8125 
Q 40.234375 35.640625 42.578125 30.53125 
Q 44.921875 25.4375 44.921875 20.125 
Q 44.921875 14.109375 41.96875 8.984375 
Q 39.015625 3.859375 33.9375 0.828125 
Q 28.859375 -2.203125 22.90625 -2.203125 
Q 17.96875 -2.203125 13.84375 0.328125 
Q 9.71875 2.875 7.34375 7.171875 
Q 4.984375 11.46875 4.984375 16.3125 
Q 4.984375 18.5625 6.4375 19.96875 
Q 7.90625 21.390625 10.109375 21.390625 
Q 12.3125 21.390625 13.796875 19.9375 
Q 15.28125 18.5 15.28125 16.3125 
Q 15.28125 14.15625 13.796875 12.671875 
Q 12.3125 11.1875 10.109375 11.1875 
Q 9.765625 11.1875 9.328125 11.25 
Q 8.890625 11.328125 8.6875 11.375 
z
" id="Cmr10-53"/>
        <path d="M 25 -2.203125 
Q 12.75 -2.203125 8.328125 7.875 
Q 3.90625 17.96875 3.90625 31.890625 
Q 3.90625 40.578125 5.484375 48.234375 
Q 7.078125 55.90625 11.78125 61.25 
Q 16.5 66.609375 25 66.609375 
Q 31.59375 66.609375 35.78125 63.375 
Q 39.984375 60.15625 42.1875 55.046875 
Q 44.390625 49.953125 45.1875 44.109375 
Q 46 38.28125 46 31.890625 
Q 46 23.296875 44.40625 15.796875 
Q 42.828125 8.296875 38.1875 3.046875 
Q 33.546875 -2.203125 25 -2.203125 
z
M 25 0.390625 
Q 30.5625 0.390625 33.296875 6.09375 
Q 36.03125 11.8125 36.671875 18.75 
Q 37.3125 25.6875 37.3125 33.5 
Q 37.3125 41.015625 36.671875 47.359375 
Q 36.03125 53.71875 33.3125 58.859375 
Q 30.609375 64.015625 25 64.015625 
Q 19.34375 64.015625 16.609375 58.828125 
Q 13.875 53.65625 13.234375 47.328125 
Q 12.59375 41.015625 12.59375 33.5 
Q 12.59375 27.9375 12.859375 23 
Q 13.140625 18.0625 14.3125 12.8125 
Q 15.484375 7.5625 18.09375 3.96875 
Q 20.703125 0.390625 25 0.390625 
z
" id="Cmr10-48"/>
       </defs>
       <use transform="translate(0 0.390625)" xlink:href="#Cmr10-53"/>
       <use transform="translate(50 0.390625)" xlink:href="#Cmmi10-58"/>
       <use transform="translate(77.685547 0.390625)" xlink:href="#Cmr10-48"/>
      </g>
     </g>
    </g>
    <g id="xtick_6">
     <g id="line2d_6">
      <g>
       <use style="stroke:#000000;stroke-width:0.8;" x="345.927273" xlink:href="#mc464955947" y="504"/>
      </g>
     </g>
     <g id="text_6">
      <!-- $5.2$ -->
      <g transform="translate(335.687273 523.1575)scale(0.16 -0.16)">
       <use transform="translate(0 0.390625)" xlink:href="#Cmr10-53"/>
       <use transform="translate(50 0.390625)" xlink:href="#Cmmi10-58"/>
       <use transform="translate(77.685547 0.390625)" xlink:href="#Cmr10-50"/>
      </g>
     </g>
    </g>
    <g id="xtick_7">
     <g id="line2d_7">
      <g>
       <use style="stroke:#000000;stroke-width:0.8;" x="396.654545" xlink:href="#mc464955947" y="504"/>
      </g>
     </g>
     <g id="text_7">
      <!-- $5.4$ -->
      <g transform="translate(386.414545 523.1575)scale(0.16 -0.16)">
       <use transform="translate(0 0.390625)" xlink:href="#Cmr10-53"/>
       <use transform="translate(50 0.390625)" xlink:href="#Cmmi10-58"/>
       <use transform="translate(77.685547 0.390625)" xlink:href="#Cmr10-52"/>
      </g>
     </g>
    </g>
    <g id="xtick_8">
     <g id="line2d_8">
      <g>
       <use style="stroke:#000000;stroke-width:0.8;" x="447.381818" xlink:href="#mc464955947" y="504"/>
      </g>
     </g>
     <g id="text_8">
      <!-- $5.6$ -->
      <g transform="translate(437.141818 523.1575)scale(0.16 -0.16)">
       <use transform="translate(0 0.390625)" xlink:href="#Cmr10-53"/>
       <use transform="translate(50 0.390625)" xlink:href="#Cmmi10-58"/>
       <use transform="translate(77.685547 0.390625)" xlink:href="#Cmr10-54"/>
      </g>
     </g>
    </g>
    <g id="xtick_9">
     <g id="line2d_9">
      <g>
       <use style="stroke:#000000;stroke-width:0.8;" x="498.109091" xlink:href="#mc464955947" y="504"/>
      </g>
     </g>
     <g id="text_9">
      <!-- $5.8$ -->
      <g transform="translate(487.869091 523.1575)scale(0.16 -0.16)">
       <use transform="translate(0 0.390625)" xlink:href="#Cmr10-53"/>
       <use transform="translate(50 0.390625)" xlink:href="#Cmmi10-58"/>
       <use transform="translate(77.685547 0.390625)" xlink:href="#Cmr10-56"/>
      </g>
     </g>
    </g>
    <g id="text_10">
     <!-- $\omega_T/2 \pi \, (\mathrm{MHz})$ -->
     <g transform="translate(238.2 545.485)scale(0.2 -0.2)">
      <defs>
       <path d="M 12.109375 -1.125 
Q 6.453125 -1.125 3.9375 3.015625 
Q 1.421875 7.171875 1.421875 13.1875 
Q 1.421875 17.140625 2.125 20.921875 
Q 2.828125 24.703125 4.265625 28.578125 
Q 5.71875 32.46875 7.5625 35.859375 
Q 9.421875 39.265625 11.71875 42.484375 
Q 12.15625 43.109375 12.890625 43.109375 
Q 13.53125 43.109375 13.921875 42.71875 
Q 14.3125 42.328125 14.3125 41.796875 
Q 14.3125 41.265625 14.015625 40.828125 
Q 4.890625 28.265625 4.890625 17.671875 
Q 4.890625 13.09375 7 9.796875 
Q 9.125 6.5 13.484375 6.5 
Q 17.234375 6.5 20.4375 8.6875 
Q 23.640625 10.890625 25.984375 14.3125 
Q 25.984375 16.0625 26.59375 19.765625 
Q 27.203125 23.484375 28.484375 26.390625 
Q 29.78125 29.296875 31.59375 29.296875 
Q 33.890625 29.296875 33.890625 26.609375 
Q 33.890625 25.046875 33.21875 22.671875 
Q 32.5625 20.3125 31.75 18.265625 
Q 30.953125 16.21875 29.78125 13.625 
Q 30.953125 6.5 36.921875 6.5 
Q 40.375 6.5 43.859375 8.5 
Q 47.359375 10.5 50.046875 13.75 
Q 52.734375 17 54.265625 20.75 
Q 55.8125 24.515625 55.8125 27.875 
Q 55.8125 30.90625 54.859375 32.59375 
Q 53.90625 34.28125 52.34375 36.125 
Q 50.78125 37.984375 50.78125 39.109375 
Q 50.78125 41.0625 52.4375 42.671875 
Q 54.109375 44.28125 56 44.28125 
Q 58.453125 44.28125 59.46875 42.0625 
Q 60.5 39.84375 60.5 37.015625 
Q 60.5 32.421875 58.671875 25.4375 
Q 56.84375 18.453125 54.5 13.8125 
Q 51.265625 7.515625 46.40625 3.1875 
Q 41.546875 -1.125 35.5 -1.125 
Q 31.640625 -1.125 29.265625 1.1875 
Q 26.90625 3.515625 26.21875 7.515625 
Q 23.4375 3.5625 19.875 1.21875 
Q 16.3125 -1.125 12.109375 -1.125 
z
" id="Cmmi10-33"/>
       <path d="M 4.59375 1.3125 
Q 4.640625 1.5625 4.8125 2.1875 
Q 4.984375 2.828125 5.25 3.171875 
Q 5.515625 3.515625 6 3.515625 
Q 14.59375 3.515625 17.390625 4 
Q 20.0625 4.6875 20.609375 6.890625 
L 34.28125 61.8125 
Q 34.71875 63.03125 34.71875 64.015625 
Q 34.71875 64.796875 31.203125 64.796875 
L 25.390625 64.796875 
Q 18.703125 64.796875 15.0625 62.734375 
Q 11.421875 60.6875 9.71875 57.3125 
Q 8.015625 53.953125 5.328125 46.296875 
Q 4.984375 45.40625 4.296875 45.40625 
L 3.421875 45.40625 
Q 2.390625 45.40625 2.390625 46.6875 
L 9.515625 67.390625 
Q 9.71875 68.3125 10.5 68.3125 
L 69.578125 68.3125 
Q 70.609375 68.3125 70.609375 67 
L 67.28125 46.296875 
Q 67.28125 46 66.9375 45.703125 
Q 66.609375 45.40625 66.3125 45.40625 
L 65.375 45.40625 
Q 64.40625 45.40625 64.40625 46.6875 
Q 65.484375 53.765625 65.484375 56.6875 
Q 65.484375 60.203125 64.015625 62 
Q 62.546875 63.8125 60.203125 64.296875 
Q 57.859375 64.796875 54.109375 64.796875 
L 48.1875 64.796875 
Q 45.515625 64.796875 44.578125 64.296875 
Q 43.65625 63.8125 43.015625 61.375 
L 29.296875 6.5 
Q 29.25 6.296875 29.21875 6.09375 
Q 29.203125 5.90625 29.109375 5.609375 
Q 29.109375 4.34375 30.609375 4 
Q 33.203125 3.515625 41.703125 3.515625 
Q 42.671875 3.515625 42.671875 2.203125 
Q 42.328125 0.78125 42.125 0.390625 
Q 41.9375 0 41.015625 0 
L 5.609375 0 
Q 4.59375 0 4.59375 1.3125 
z
" id="Cmmi10-84"/>
       <path d="M 5.609375 -23 
Q 5.609375 -22.703125 5.71875 -22.609375 
L 40.484375 73.78125 
Q 40.671875 74.359375 41.15625 74.671875 
Q 41.65625 75 42.28125 75 
Q 43.171875 75 43.71875 74.453125 
Q 44.28125 73.921875 44.28125 73 
L 44.28125 72.609375 
L 9.515625 -23.78125 
Q 8.9375 -25 7.625 -25 
Q 6.78125 -25 6.1875 -24.40625 
Q 5.609375 -23.828125 5.609375 -23 
z
" id="Cmmi10-61"/>
       <path d="M 10.109375 1.703125 
Q 10.109375 2.25 10.5 3.328125 
Q 13.28125 9.125 15.6875 14.71875 
Q 18.109375 20.3125 20.03125 25.609375 
Q 21.96875 30.90625 23.578125 36.921875 
L 17.1875 36.921875 
Q 13.53125 36.921875 10.34375 34.625 
Q 7.171875 32.328125 5.078125 28.8125 
Q 4.890625 28.421875 4.5 28.421875 
L 3.328125 28.421875 
Q 2.390625 28.421875 2.390625 29.390625 
Q 2.390625 29.59375 2.59375 29.984375 
Q 5.859375 35.546875 9.59375 39.328125 
Q 13.328125 43.109375 18.015625 43.109375 
L 54.296875 43.109375 
Q 55.328125 43.109375 56.046875 42.421875 
Q 56.78125 41.75 56.78125 40.578125 
Q 56.78125 39.109375 55.734375 38.015625 
Q 54.6875 36.921875 53.21875 36.921875 
L 40.484375 36.921875 
Q 38.875 29.046875 38.71875 21.578125 
Q 38.71875 11.96875 42.09375 4.203125 
Q 42.390625 3.609375 42.390625 2.984375 
Q 42.390625 1.90625 41.75 0.96875 
Q 41.109375 0.046875 40.109375 -0.53125 
Q 39.109375 -1.125 37.984375 -1.125 
Q 35.359375 -1.125 34.375 3.171875 
Q 33.40625 7.46875 33.40625 11.53125 
Q 33.40625 17.234375 34.375 22.53125 
Q 35.359375 27.828125 37.5 36.921875 
L 26.609375 36.921875 
Q 18.703125 4.890625 17.09375 1.609375 
Q 15.671875 -1.125 13.1875 -1.125 
Q 11.96875 -1.125 11.03125 -0.3125 
Q 10.109375 0.484375 10.109375 1.703125 
z
" id="Cmmi10-188"/>
       <path d="M 31 -24.8125 
Q 25.4375 -20.40625 21.40625 -14.71875 
Q 17.390625 -9.03125 14.8125 -2.578125 
Q 12.25 3.859375 10.984375 10.890625 
Q 9.71875 17.921875 9.71875 25 
Q 9.71875 32.171875 10.984375 39.203125 
Q 12.25 46.234375 14.859375 52.734375 
Q 17.484375 59.234375 21.53125 64.890625 
Q 25.59375 70.5625 31 74.8125 
Q 31 75 31.5 75 
L 32.421875 75 
Q 32.71875 75 32.953125 74.734375 
Q 33.203125 74.46875 33.203125 74.125 
Q 33.203125 73.6875 33.015625 73.484375 
Q 28.125 68.703125 24.875 63.234375 
Q 21.625 57.765625 19.640625 51.578125 
Q 17.671875 45.40625 16.796875 38.78125 
Q 15.921875 32.171875 15.921875 25 
Q 15.921875 -6.78125 32.90625 -23.296875 
Q 33.203125 -23.578125 33.203125 -24.125 
Q 33.203125 -24.359375 32.9375 -24.671875 
Q 32.671875 -25 32.421875 -25 
L 31.5 -25 
Q 31 -25 31 -24.8125 
z
" id="Cmr10-40"/>
       <path d="M 3.515625 0 
L 3.515625 3.515625 
Q 13.8125 3.515625 13.8125 9.421875 
L 13.8125 61.625 
Q 13.8125 64.796875 3.515625 64.796875 
L 3.515625 68.3125 
L 22.40625 68.3125 
Q 23.640625 68.3125 24.03125 67.1875 
L 45.796875 10.59375 
L 67.578125 67.1875 
Q 67.96875 68.3125 69.1875 68.3125 
L 88.09375 68.3125 
L 88.09375 64.796875 
Q 77.78125 64.796875 77.78125 61.625 
L 77.78125 6.6875 
Q 77.78125 3.515625 88.09375 3.515625 
L 88.09375 0 
L 58.984375 0 
L 58.984375 3.515625 
Q 69.28125 3.515625 69.28125 6.6875 
L 69.28125 64.890625 
L 44.671875 1.125 
Q 44.234375 0 43.015625 0 
Q 41.75 0 41.3125 1.125 
L 17 64.109375 
L 17 9.421875 
Q 17 3.515625 27.296875 3.515625 
L 27.296875 0 
z
" id="Cmr10-77"/>
       <path d="M 3.078125 0 
L 3.078125 3.515625 
Q 13.375 3.515625 13.375 6.6875 
L 13.375 61.625 
Q 13.375 64.796875 3.078125 64.796875 
L 3.078125 68.3125 
L 33.015625 68.3125 
L 33.015625 64.796875 
Q 22.703125 64.796875 22.703125 61.625 
L 22.703125 37.3125 
L 52.203125 37.3125 
L 52.203125 61.625 
Q 52.203125 64.796875 41.890625 64.796875 
L 41.890625 68.3125 
L 71.78125 68.3125 
L 71.78125 64.796875 
Q 61.53125 64.796875 61.53125 61.625 
L 61.53125 6.6875 
Q 61.53125 3.515625 71.78125 3.515625 
L 71.78125 0 
L 41.890625 0 
L 41.890625 3.515625 
Q 52.203125 3.515625 52.203125 6.6875 
L 52.203125 33.796875 
L 22.703125 33.796875 
L 22.703125 6.6875 
Q 22.703125 3.515625 33.015625 3.515625 
L 33.015625 0 
z
" id="Cmr10-72"/>
       <path d="M 3.90625 0 
Q 2.78125 0 2.78125 1.125 
L 2.78125 1.90625 
Q 2.78125 2.296875 3.078125 2.59375 
L 31 40.484375 
L 22.015625 40.484375 
Q 17.78125 40.484375 15.015625 39.9375 
Q 12.25 39.40625 10.46875 37.90625 
Q 8.6875 36.421875 7.875 33.8125 
Q 7.078125 31.203125 7.078125 26.609375 
L 4.203125 26.609375 
L 5.328125 43.109375 
L 38.8125 43.109375 
Q 39.265625 43.109375 39.578125 42.796875 
Q 39.890625 42.484375 39.890625 42 
L 39.890625 41.40625 
Q 39.890625 41.109375 39.703125 40.71875 
L 11.71875 2.875 
L 21.296875 2.875 
Q 25.640625 2.875 28.546875 3.40625 
Q 31.453125 3.953125 33.5 6 
Q 35.40625 7.90625 36.109375 11.125 
Q 36.8125 14.359375 37.203125 19.09375 
L 40.09375 19.09375 
L 38.375 0 
z
" id="Cmr10-122"/>
       <path d="M 6.5 -25 
Q 5.609375 -25 5.609375 -24.125 
Q 5.609375 -23.6875 5.8125 -23.484375 
Q 22.90625 -6.78125 22.90625 25 
Q 22.90625 56.78125 6 73.296875 
Q 5.609375 73.53125 5.609375 74.125 
Q 5.609375 74.46875 5.875 74.734375 
Q 6.15625 75 6.5 75 
L 7.421875 75 
Q 7.71875 75 7.90625 74.8125 
Q 15.09375 69.140625 19.875 61.03125 
Q 24.65625 52.9375 26.875 43.75 
Q 29.109375 34.578125 29.109375 25 
Q 29.109375 17.921875 27.90625 11.0625 
Q 26.703125 4.203125 24.09375 -2.453125 
Q 21.484375 -9.125 17.484375 -14.765625 
Q 13.484375 -20.40625 7.90625 -24.8125 
Q 7.71875 -25 7.421875 -25 
z
" id="Cmr10-41"/>
      </defs>
      <use xlink:href="#Cmmi10-33"/>
      <use transform="translate(62.207031 -17.00625)scale(0.7)" xlink:href="#Cmmi10-84"/>
      <use transform="translate(109.463281 0)" xlink:href="#Cmmi10-61"/>
      <use transform="translate(159.463281 0)" xlink:href="#Cmr10-50"/>
      <use transform="translate(209.463281 0)" xlink:href="#Cmmi10-188"/>
      <use transform="translate(281.078157 0)" xlink:href="#Cmr10-40"/>
      <use transform="translate(319.896517 0)" xlink:href="#Cmr10-77"/>
      <use transform="translate(411.498079 0)" xlink:href="#Cmr10-72"/>
      <use transform="translate(486.498079 0)" xlink:href="#Cmr10-122"/>
      <use transform="translate(530.882845 0)" xlink:href="#Cmr10-41"/>
     </g>
    </g>
   </g>
   <g id="matplotlib.axis_2">
    <g id="ytick_1">
     <g id="line2d_10">
      <defs>
       <path d="M 0 0 
L -3.5 0 
" id="m071f0867b7" style="stroke:#000000;stroke-width:0.8;"/>
      </defs>
      <g>
       <use style="stroke:#000000;stroke-width:0.8;" x="72" xlink:href="#m071f0867b7" y="223.253855"/>
      </g>
     </g>
     <g id="text_11">
      <!-- $10^{-1}$ -->
      <g transform="translate(32.84 229.332605)scale(0.16 -0.16)">
       <defs>
        <path d="M 9.28125 0 
L 9.28125 3.515625 
Q 21.78125 3.515625 21.78125 6.6875 
L 21.78125 59.1875 
Q 16.609375 56.6875 8.6875 56.6875 
L 8.6875 60.203125 
Q 20.953125 60.203125 27.203125 66.609375 
L 28.609375 66.609375 
Q 28.953125 66.609375 29.265625 66.328125 
Q 29.59375 66.0625 29.59375 65.71875 
L 29.59375 6.6875 
Q 29.59375 3.515625 42.09375 3.515625 
L 42.09375 0 
z
" id="Cmr10-49"/>
        <path d="M 10.203125 23 
Q 9.375 23 8.828125 23.625 
Q 8.296875 24.265625 8.296875 25 
Q 8.296875 25.734375 8.828125 26.359375 
Q 9.375 27 10.203125 27 
L 67.578125 27 
Q 68.359375 27 68.875 26.359375 
Q 69.390625 25.734375 69.390625 25 
Q 69.390625 24.265625 68.875 23.625 
Q 68.359375 23 67.578125 23 
z
" id="Cmsy10-161"/>
       </defs>
       <use transform="translate(0 0.109375)" xlink:href="#Cmr10-49"/>
       <use transform="translate(50 0.109375)" xlink:href="#Cmr10-48"/>
       <use transform="translate(104.464141 38.373438)scale(0.7)" xlink:href="#Cmsy10-161"/>
       <use transform="translate(158.844023 38.373438)scale(0.7)" xlink:href="#Cmr10-49"/>
      </g>
     </g>
    </g>
    <g id="ytick_2">
     <g id="line2d_11">
      <g>
       <use style="stroke:#000000;stroke-width:0.8;" x="72" xlink:href="#m071f0867b7" y="452.359064"/>
      </g>
     </g>
     <g id="text_12">
      <!-- $10^{-2}$ -->
      <g transform="translate(32.84 458.437814)scale(0.16 -0.16)">
       <use transform="translate(0 0.109375)" xlink:href="#Cmr10-49"/>
       <use transform="translate(50 0.109375)" xlink:href="#Cmr10-48"/>
       <use transform="translate(104.464141 38.373438)scale(0.7)" xlink:href="#Cmsy10-161"/>
       <use transform="translate(158.844023 38.373438)scale(0.7)" xlink:href="#Cmr10-50"/>
      </g>
     </g>
    </g>
    <g id="ytick_3">
     <g id="line2d_12">
      <defs>
       <path d="M 0 0 
L -2 0 
" id="m9cf222337a" style="stroke:#000000;stroke-width:0.6;"/>
      </defs>
      <g>
       <use style="stroke:#000000;stroke-width:0.6;" x="72" xlink:href="#m9cf222337a" y="503.185768"/>
      </g>
     </g>
    </g>
    <g id="ytick_4">
     <g id="line2d_13">
      <g>
       <use style="stroke:#000000;stroke-width:0.6;" x="72" xlink:href="#m9cf222337a" y="487.847909"/>
      </g>
     </g>
    </g>
    <g id="ytick_5">
     <g id="line2d_14">
      <g>
       <use style="stroke:#000000;stroke-width:0.6;" x="72" xlink:href="#m9cf222337a" y="474.561652"/>
      </g>
     </g>
    </g>
    <g id="ytick_6">
     <g id="line2d_15">
      <g>
       <use style="stroke:#000000;stroke-width:0.6;" x="72" xlink:href="#m9cf222337a" y="462.842343"/>
      </g>
     </g>
    </g>
    <g id="ytick_7">
     <g id="line2d_16">
      <g>
       <use style="stroke:#000000;stroke-width:0.6;" x="72" xlink:href="#m9cf222337a" y="383.391524"/>
      </g>
     </g>
    </g>
    <g id="ytick_8">
     <g id="line2d_17">
      <g>
       <use style="stroke:#000000;stroke-width:0.6;" x="72" xlink:href="#m9cf222337a" y="343.048099"/>
      </g>
     </g>
    </g>
    <g id="ytick_9">
     <g id="line2d_18">
      <g>
       <use style="stroke:#000000;stroke-width:0.6;" x="72" xlink:href="#m9cf222337a" y="314.423984"/>
      </g>
     </g>
    </g>
    <g id="ytick_10">
     <g id="line2d_19">
      <g>
       <use style="stroke:#000000;stroke-width:0.6;" x="72" xlink:href="#m9cf222337a" y="292.221395"/>
      </g>
     </g>
    </g>
    <g id="ytick_11">
     <g id="line2d_20">
      <g>
       <use style="stroke:#000000;stroke-width:0.6;" x="72" xlink:href="#m9cf222337a" y="274.080559"/>
      </g>
     </g>
    </g>
    <g id="ytick_12">
     <g id="line2d_21">
      <g>
       <use style="stroke:#000000;stroke-width:0.6;" x="72" xlink:href="#m9cf222337a" y="258.742701"/>
      </g>
     </g>
    </g>
    <g id="ytick_13">
     <g id="line2d_22">
      <g>
       <use style="stroke:#000000;stroke-width:0.6;" x="72" xlink:href="#m9cf222337a" y="245.456444"/>
      </g>
     </g>
    </g>
    <g id="ytick_14">
     <g id="line2d_23">
      <g>
       <use style="stroke:#000000;stroke-width:0.6;" x="72" xlink:href="#m9cf222337a" y="233.737134"/>
      </g>
     </g>
    </g>
    <g id="ytick_15">
     <g id="line2d_24">
      <g>
       <use style="stroke:#000000;stroke-width:0.6;" x="72" xlink:href="#m9cf222337a" y="154.286315"/>
      </g>
     </g>
    </g>
    <g id="ytick_16">
     <g id="line2d_25">
      <g>
       <use style="stroke:#000000;stroke-width:0.6;" x="72" xlink:href="#m9cf222337a" y="113.94289"/>
      </g>
     </g>
    </g>
    <g id="ytick_17">
     <g id="line2d_26">
      <g>
       <use style="stroke:#000000;stroke-width:0.6;" x="72" xlink:href="#m9cf222337a" y="85.318775"/>
      </g>
     </g>
    </g>
    <g id="text_13">
     <!-- $\xi_{ZZ}/2 \pi \, (\mathrm{MHz})$ -->
     <g transform="translate(23.84 347.16)rotate(-90)scale(0.2 -0.2)">
      <defs>
       <path d="M 16.3125 -15.578125 
Q 16.453125 -14.40625 17.671875 -14.40625 
Q 17.78125 -14.40625 19.5625 -15.375 
Q 21.34375 -16.359375 23.484375 -17.140625 
Q 25.640625 -17.921875 27.78125 -17.921875 
Q 29.640625 -17.921875 30.90625 -16.328125 
Q 32.171875 -14.75 32.171875 -12.890625 
Q 32.171875 -10.25 29.390625 -9.1875 
L 12.40625 -2.59375 
Q 8.015625 -0.875 5.15625 2.515625 
Q 2.296875 5.90625 2.296875 10.203125 
Q 2.296875 14.0625 4.34375 18.234375 
Q 6.390625 22.40625 9.609375 25.796875 
Q 12.84375 29.203125 16.5 31.296875 
Q 13.578125 33.0625 11.9375 35.8125 
Q 10.296875 38.578125 10.296875 41.890625 
Q 10.296875 45.40625 11.734375 48.4375 
Q 13.1875 51.46875 15.671875 53.953125 
Q 18.171875 56.453125 21.234375 58.171875 
Q 24.3125 59.90625 27.484375 60.796875 
Q 27 62.84375 27 64.5 
Q 27 69.921875 29.109375 69.921875 
Q 29.640625 69.921875 30.03125 69.53125 
Q 30.421875 69.140625 30.421875 68.609375 
Q 30.421875 68.109375 30.15625 66.453125 
Q 29.890625 64.796875 29.890625 64.40625 
Q 29.890625 62.703125 30.328125 61.375 
Q 32.90625 61.921875 35.296875 61.921875 
Q 44.484375 61.921875 44.484375 59.078125 
Q 44.484375 55.71875 34.28125 55.71875 
Q 31.15625 55.71875 29.203125 57.8125 
Q 26.3125 56.34375 23.875 53.65625 
Q 21.4375 50.984375 20.0625 47.6875 
Q 18.703125 44.390625 18.703125 41.015625 
Q 18.703125 36.328125 21.390625 33.5 
Q 24.953125 34.71875 28.515625 34.71875 
Q 37.703125 34.71875 37.703125 31.890625 
Q 37.703125 28.515625 27.484375 28.515625 
Q 23.34375 28.515625 19.671875 29.78125 
Q 15.234375 27.390625 11.515625 22.5 
Q 7.8125 17.625 7.8125 13.09375 
Q 7.8125 10.15625 9.9375 7.9375 
Q 12.0625 5.71875 15.1875 4.390625 
L 32.90625 -2.484375 
Q 35.203125 -3.375 36.640625 -5.296875 
Q 38.09375 -7.234375 38.09375 -9.71875 
Q 38.09375 -13.8125 34.9375 -17.15625 
Q 31.78125 -20.515625 27.6875 -20.515625 
Q 26.421875 -20.515625 23.53125 -19.828125 
Q 20.65625 -19.140625 18.484375 -18.015625 
Q 16.3125 -16.890625 16.3125 -15.578125 
z
M 24.421875 31.59375 
Q 25.734375 31.109375 27.6875 31.109375 
Q 32.515625 31.109375 34.625 31.6875 
Q 32.71875 32.078125 28.421875 32.078125 
Q 26.703125 32.078125 24.421875 31.59375 
z
M 32.078125 58.890625 
Q 32.953125 58.296875 34.515625 58.296875 
Q 39.3125 58.296875 41.40625 58.890625 
z
" id="Cmmi10-187"/>
       <path d="M 5.8125 0.78125 
Q 5.8125 2.25 6.5 3.078125 
L 61.53125 64.796875 
L 46.78125 64.796875 
Q 39.453125 64.796875 34.640625 63.0625 
Q 29.828125 61.328125 26.671875 57.296875 
Q 23.53125 53.265625 21.390625 46.296875 
Q 21.1875 45.40625 20.40625 45.40625 
L 19.484375 45.40625 
Q 18.5 45.40625 18.5 46.6875 
L 24.8125 67.390625 
Q 25 68.3125 25.78125 68.3125 
L 71.390625 68.3125 
Q 72.21875 68.3125 72.21875 67.484375 
Q 72.21875 66.015625 71.578125 65.375 
L 16.796875 3.8125 
L 31.984375 3.8125 
Q 40.828125 3.8125 45.875 5.984375 
Q 50.921875 8.15625 53.875 12.84375 
Q 56.84375 17.53125 59.625 26.21875 
Q 59.71875 26.5625 59.984375 26.828125 
Q 60.25 27.09375 60.59375 27.09375 
L 61.53125 27.09375 
Q 62.5 27.09375 62.5 25.78125 
L 54.59375 0.875 
Q 54.15625 0 53.609375 0 
L 6.6875 0 
Q 5.8125 0 5.8125 0.78125 
z
" id="Cmmi10-90"/>
      </defs>
      <use xlink:href="#Cmmi10-187"/>
      <use transform="translate(43.701172 -17.00625)scale(0.7)" xlink:href="#Cmmi10-90"/>
      <use transform="translate(91.450195 -17.00625)scale(0.7)" xlink:href="#Cmmi10-90"/>
      <use transform="translate(145.576562 0)" xlink:href="#Cmmi10-61"/>
      <use transform="translate(195.576562 0)" xlink:href="#Cmr10-50"/>
      <use transform="translate(245.576562 0)" xlink:href="#Cmmi10-188"/>
      <use transform="translate(317.191438 0)" xlink:href="#Cmr10-40"/>
      <use transform="translate(356.009798 0)" xlink:href="#Cmr10-77"/>
      <use transform="translate(447.61136 0)" xlink:href="#Cmr10-72"/>
      <use transform="translate(522.61136 0)" xlink:href="#Cmr10-122"/>
      <use transform="translate(566.996126 0)" xlink:href="#Cmr10-41"/>
     </g>
    </g>
   </g>
   <g id="line2d_27">
    <path clip-path="url(#p2abec9e362)" d="M 92.290909 450.675221 
L 96.390083 452.064052 
L 100.489256 453.41081 
L 104.58843 454.71687 
L 108.687603 455.983524 
L 112.786777 457.211987 
L 116.88595 458.403406 
L 120.985124 459.558859 
L 125.084298 460.679364 
L 129.183471 461.765883 
L 133.282645 462.819323 
L 137.381818 463.840539 
L 141.480992 464.830343 
L 145.580165 465.789499 
L 149.679339 466.718732 
L 153.778512 467.618725 
L 157.877686 468.490126 
L 161.97686 469.333547 
L 166.076033 470.149568 
L 170.175207 470.938736 
L 174.27438 471.70157 
L 178.373554 472.438559 
L 182.472727 473.150167 
L 186.571901 473.83683 
L 190.671074 474.498963 
L 194.770248 475.136954 
L 198.869421 475.75117 
L 202.968595 476.341958 
L 207.067769 476.909644 
L 211.166942 477.454533 
L 215.266116 477.976912 
L 219.365289 478.477049 
L 223.464463 478.955196 
L 227.563636 479.411587 
L 231.66281 479.846439 
L 235.761983 480.259954 
L 239.861157 480.652317 
L 243.960331 481.0237 
L 248.059504 481.374259 
L 252.158678 481.704134 
L 256.257851 482.013456 
L 260.357025 482.302335 
L 264.456198 482.570874 
L 268.555372 482.819158 
L 272.654545 483.047263 
L 276.753719 483.255247 
L 280.852893 483.443159 
L 284.952066 483.611035 
L 289.05124 483.758896 
L 293.150413 483.886752 
L 297.249587 483.9946 
L 301.34876 484.082425 
L 305.447934 484.150197 
L 309.547107 484.197876 
L 313.646281 484.225409 
L 317.745455 484.232727 
L 321.844628 484.219752 
L 325.943802 484.186391 
L 330.042975 484.132536 
L 334.142149 484.058068 
L 338.241322 483.962853 
L 342.340496 483.846742 
L 346.439669 483.709573 
L 350.538843 483.551168 
L 354.638017 483.371335 
L 358.73719 483.169864 
L 362.836364 482.946533 
L 366.935537 482.701098 
L 371.034711 482.433303 
L 375.133884 482.14287 
L 379.233058 481.829505 
L 383.332231 481.492895 
L 387.431405 481.132705 
L 391.530579 480.748582 
L 395.629752 480.340148 
L 399.728926 479.907007 
L 403.828099 479.448735 
L 407.927273 478.964886 
L 412.026446 478.454987 
L 416.12562 477.918536 
L 420.224793 477.355007 
L 424.323967 476.763839 
L 428.42314 476.144442 
L 432.522314 475.496192 
L 436.621488 474.818427 
L 440.720661 474.110452 
L 444.819835 473.371526 
L 448.919008 472.600872 
L 453.018182 471.797664 
L 457.117355 470.961028 
L 461.216529 470.090039 
L 465.315702 469.18372 
L 469.414876 468.241032 
L 473.51405 467.260875 
L 477.613223 466.242083 
L 481.712397 465.183415 
L 485.81157 464.083555 
L 489.910744 462.941103 
L 494.009917 461.754568 
L 498.109091 460.522361 
" style="fill:none;stroke:#000000;stroke-linecap:square;stroke-width:2;"/>
   </g>
   <g id="line2d_28">
    <path clip-path="url(#p2abec9e362)" d="M 92.290909 445.444282 
L 96.390083 446.753973 
L 100.489256 448.022697 
L 104.58843 449.251835 
L 108.687603 450.442686 
L 112.786777 451.596474 
L 116.88595 452.714351 
L 120.985124 453.797405 
L 125.084298 454.846661 
L 129.183471 455.863087 
L 133.282645 456.847598 
L 137.381818 457.801058 
L 141.480992 458.724284 
L 145.580165 459.61805 
L 149.679339 460.483087 
L 153.778512 461.320087 
L 157.877686 462.129704 
L 161.97686 462.912559 
L 166.076033 463.669238 
L 170.175207 464.400298 
L 174.27438 465.106264 
L 178.373554 465.787633 
L 182.472727 466.444877 
L 186.571901 467.078441 
L 190.671074 467.688745 
L 194.770248 468.276188 
L 198.869421 468.841144 
L 202.968595 469.383968 
L 207.067769 469.904993 
L 211.166942 470.404534 
L 215.266116 470.882884 
L 219.365289 471.340322 
L 223.464463 471.777106 
L 227.563636 472.19348 
L 231.66281 472.589668 
L 235.761983 472.96588 
L 239.861157 473.322313 
L 243.960331 473.659144 
L 248.059504 473.976539 
L 252.158678 474.274648 
L 256.257851 474.553607 
L 260.357025 474.813541 
L 264.456198 475.054556 
L 268.555372 475.276751 
L 272.654545 475.480206 
L 276.753719 475.664994 
L 280.852893 475.831169 
L 284.952066 475.978778 
L 289.05124 476.107851 
L 293.150413 476.218408 
L 297.249587 476.310456 
L 301.34876 476.383989 
L 305.447934 476.438988 
L 309.547107 476.475422 
L 313.646281 476.493248 
L 317.745455 476.492409 
L 321.844628 476.472835 
L 325.943802 476.434443 
L 330.042975 476.377139 
L 334.142149 476.300811 
L 338.241322 476.205338 
L 342.340496 476.090581 
L 346.439669 475.956389 
L 350.538843 475.802596 
L 354.638017 475.62902 
L 358.73719 475.435463 
L 362.836364 475.221714 
L 366.935537 474.987541 
L 371.034711 474.7327 
L 375.133884 474.456925 
L 379.233058 474.159933 
L 383.332231 473.841424 
L 387.431405 473.501076 
L 391.530579 473.138547 
L 395.629752 472.753474 
L 399.728926 472.345471 
L 403.828099 471.914128 
L 407.927273 471.459012 
L 412.026446 470.979664 
L 416.12562 470.475596 
L 420.224793 469.946294 
L 424.323967 469.391211 
L 428.42314 468.809772 
L 432.522314 468.201366 
L 436.621488 467.565348 
L 440.720661 466.901033 
L 444.819835 466.207699 
L 448.919008 465.484581 
L 453.018182 464.730869 
L 457.117355 463.945705 
L 461.216529 463.12818 
L 465.315702 462.277331 
L 469.414876 461.392136 
L 473.51405 460.471511 
L 477.613223 459.514306 
L 481.712397 458.519297 
L 485.81157 457.485184 
L 489.910744 456.410585 
L 494.009917 455.294026 
L 498.109091 454.133936 
" style="fill:none;stroke:#000000;stroke-dasharray:7.4,3.2;stroke-dashoffset:0;stroke-width:2;"/>
   </g>
   <g id="line2d_29">
    <path clip-path="url(#p2abec9e362)" d="M 92.290909 232.061283 
L 96.390083 233.449791 
L 100.489256 234.796245 
L 104.58843 236.102018 
L 108.687603 237.368399 
L 112.786777 238.596604 
L 116.88595 239.787778 
L 120.985124 240.942998 
L 125.084298 242.063282 
L 129.183471 243.14959 
L 133.282645 244.202829 
L 137.381818 245.223854 
L 141.480992 246.213476 
L 145.580165 247.172458 
L 149.679339 248.101524 
L 153.778512 249.001358 
L 157.877686 249.872607 
L 161.97686 250.715883 
L 166.076033 251.531764 
L 170.175207 252.320798 
L 174.27438 253.083504 
L 178.373554 253.82037 
L 182.472727 254.53186 
L 186.571901 255.218409 
L 190.671074 255.880432 
L 194.770248 256.518318 
L 198.869421 257.132434 
L 202.968595 257.723125 
L 207.067769 258.290717 
L 211.166942 258.835515 
L 215.266116 259.357807 
L 219.365289 259.857861 
L 223.464463 260.335927 
L 227.563636 260.79224 
L 231.66281 261.227017 
L 235.761983 261.640459 
L 239.861157 262.032752 
L 243.960331 262.404068 
L 248.059504 262.754561 
L 252.158678 263.084374 
L 256.257851 263.393634 
L 260.357025 263.682455 
L 264.456198 263.950937 
L 268.555372 264.199167 
L 272.654545 264.427219 
L 276.753719 264.635152 
L 280.852893 264.823016 
L 284.952066 264.990844 
L 289.05124 265.13866 
L 293.150413 265.266472 
L 297.249587 265.374278 
L 301.34876 265.462062 
L 305.447934 265.529795 
L 309.547107 265.577437 
L 313.646281 265.604934 
L 317.745455 265.612218 
L 321.844628 265.599211 
L 325.943802 265.565818 
L 330.042975 265.511933 
L 334.142149 265.437437 
L 338.241322 265.342195 
L 342.340496 265.22606 
L 346.439669 265.088867 
L 350.538843 264.930441 
L 354.638017 264.750587 
L 358.73719 264.549098 
L 362.836364 264.325749 
L 366.935537 264.0803 
L 371.034711 263.812491 
L 375.133884 263.522046 
L 379.233058 263.208671 
L 383.332231 262.872053 
L 387.431405 262.511857 
L 391.530579 262.127729 
L 395.629752 261.719294 
L 399.728926 261.286153 
L 403.828099 260.827883 
L 407.927273 260.344039 
L 412.026446 259.834147 
L 416.12562 259.297707 
L 420.224793 258.73419 
L 424.323967 258.143038 
L 428.42314 257.52366 
L 432.522314 256.875432 
L 436.621488 256.197693 
L 440.720661 255.489747 
L 444.819835 254.750855 
L 448.919008 253.980239 
L 453.018182 253.177072 
L 457.117355 252.340483 
L 461.216529 251.469547 
L 465.315702 250.563286 
L 469.414876 249.620663 
L 473.51405 248.640577 
L 477.613223 247.621863 
L 481.712397 246.563281 
L 485.81157 245.463515 
L 489.910744 244.321167 
L 494.009917 243.134745 
L 498.109091 241.902662 
" style="fill:none;stroke:#ff0000;stroke-linecap:square;stroke-width:2;"/>
   </g>
   <g id="line2d_30">
    <path clip-path="url(#p2abec9e362)" d="M 92.290909 226.822353 
L 96.390083 228.132044 
L 100.489256 229.400768 
L 104.58843 230.629906 
L 108.687603 231.820757 
L 112.786777 232.974545 
L 116.88595 234.092422 
L 120.985124 235.175476 
L 125.084298 236.224732 
L 129.183471 237.241158 
L 133.282645 238.225668 
L 137.381818 239.179129 
L 141.480992 240.102355 
L 145.580165 240.996121 
L 149.679339 241.861158 
L 153.778512 242.698157 
L 157.877686 243.507775 
L 161.97686 244.29063 
L 166.076033 245.047309 
L 170.175207 245.778369 
L 174.27438 246.484335 
L 178.373554 247.165704 
L 182.472727 247.822948 
L 186.571901 248.456512 
L 190.671074 249.066816 
L 194.770248 249.654259 
L 198.869421 250.219215 
L 202.968595 250.762039 
L 207.067769 251.283064 
L 211.166942 251.782604 
L 215.266116 252.260955 
L 219.365289 252.718393 
L 223.464463 253.155177 
L 227.563636 253.57155 
L 231.66281 253.967738 
L 235.761983 254.343951 
L 239.861157 254.700384 
L 243.960331 255.037215 
L 248.059504 255.35461 
L 252.158678 255.652719 
L 256.257851 255.931678 
L 260.357025 256.191611 
L 264.456198 256.432627 
L 268.555372 256.654821 
L 272.654545 256.858277 
L 276.753719 257.043064 
L 280.852893 257.20924 
L 284.952066 257.356849 
L 289.05124 257.485922 
L 293.150413 257.596479 
L 297.249587 257.688527 
L 301.34876 257.76206 
L 305.447934 257.817059 
L 309.547107 257.853493 
L 313.646281 257.871319 
L 317.745455 257.870479 
L 321.844628 257.850905 
L 325.943802 257.812514 
L 330.042975 257.75521 
L 334.142149 257.678882 
L 338.241322 257.583409 
L 342.340496 257.468652 
L 346.439669 257.33446 
L 350.538843 257.180667 
L 354.638017 257.007091 
L 358.73719 256.813534 
L 362.836364 256.599784 
L 366.935537 256.365612 
L 371.034711 256.110771 
L 375.133884 255.834995 
L 379.233058 255.538004 
L 383.332231 255.219495 
L 387.431405 254.879147 
L 391.530579 254.516618 
L 395.629752 254.131545 
L 399.728926 253.723541 
L 403.828099 253.292199 
L 407.927273 252.837083 
L 412.026446 252.357735 
L 416.12562 251.853667 
L 420.224793 251.324364 
L 424.323967 250.769282 
L 428.42314 250.187843 
L 432.522314 249.579437 
L 436.621488 248.943418 
L 440.720661 248.279104 
L 444.819835 247.58577 
L 448.919008 246.862652 
L 453.018182 246.10894 
L 457.117355 245.323776 
L 461.216529 244.506251 
L 465.315702 243.655402 
L 469.414876 242.770207 
L 473.51405 241.849582 
L 477.613223 240.892376 
L 481.712397 239.897368 
L 485.81157 238.863255 
L 489.910744 237.788656 
L 494.009917 236.672097 
L 498.109091 235.512007 
" style="fill:none;stroke:#ff0000;stroke-dasharray:7.4,3.2;stroke-dashoffset:0;stroke-width:2;"/>
   </g>
   <g id="line2d_31">
    <path clip-path="url(#p2abec9e362)" d="M 92.290909 94.153155 
L 96.390083 95.540578 
L 100.489256 96.886006 
L 104.58843 98.190809 
L 108.687603 99.456271 
L 112.786777 100.683605 
L 116.88595 101.873952 
L 120.985124 103.028387 
L 125.084298 104.147925 
L 129.183471 105.233523 
L 133.282645 106.286086 
L 137.381818 107.306467 
L 141.480992 108.295473 
L 145.580165 109.253868 
L 149.679339 110.182373 
L 153.778512 111.081671 
L 157.877686 111.952407 
L 161.97686 112.795191 
L 166.076033 113.610602 
L 170.175207 114.399185 
L 174.27438 115.161458 
L 178.373554 115.897908 
L 182.472727 116.608999 
L 186.571901 117.295165 
L 190.671074 117.95682 
L 194.770248 118.594351 
L 198.869421 119.208126 
L 202.968595 119.798489 
L 207.067769 120.365765 
L 211.166942 120.910259 
L 215.266116 121.432258 
L 219.365289 121.932029 
L 223.464463 122.409822 
L 227.563636 122.865872 
L 231.66281 123.300396 
L 235.761983 123.713593 
L 239.861157 124.10565 
L 243.960331 124.476738 
L 248.059504 124.827011 
L 252.158678 125.156612 
L 256.257851 125.465667 
L 260.357025 125.75429 
L 264.456198 126.022581 
L 268.555372 126.270627 
L 272.654545 126.498501 
L 276.753719 126.706263 
L 280.852893 126.893961 
L 284.952066 127.06163 
L 289.05124 127.209292 
L 293.150413 127.336956 
L 297.249587 127.44462 
L 301.34876 127.532267 
L 305.447934 127.599869 
L 309.547107 127.647385 
L 313.646281 127.674761 
L 317.745455 127.68193 
L 321.844628 127.668813 
L 325.943802 127.635315 
L 330.042975 127.581331 
L 334.142149 127.50674 
L 338.241322 127.411408 
L 342.340496 127.295188 
L 346.439669 127.157917 
L 350.538843 126.999416 
L 354.638017 126.819494 
L 358.73719 126.617943 
L 362.836364 126.394537 
L 366.935537 126.149035 
L 371.034711 125.88118 
L 375.133884 125.590695 
L 379.233058 125.277287 
L 383.332231 124.940641 
L 387.431405 124.580424 
L 391.530579 124.196283 
L 395.629752 123.787841 
L 399.728926 123.3547 
L 403.828099 122.896439 
L 407.927273 122.412611 
L 412.026446 121.902743 
L 416.12562 121.366337 
L 420.224793 120.802863 
L 424.323967 120.211765 
L 428.42314 119.59245 
L 432.522314 118.944297 
L 436.621488 118.266645 
L 440.720661 117.558798 
L 444.819835 116.820019 
L 448.919008 116.04953 
L 453.018182 115.246506 
L 457.117355 114.410077 
L 461.216529 113.539318 
L 465.315702 112.633253 
L 469.414876 111.690847 
L 473.51405 110.711 
L 477.613223 109.69255 
L 481.712397 108.634257 
L 485.81157 107.53481 
L 489.910744 106.39281 
L 494.009917 105.206771 
L 498.109091 103.975108 
" style="fill:none;stroke:#0000ff;stroke-linecap:square;stroke-width:2;"/>
   </g>
   <g id="line2d_32">
    <path clip-path="url(#p2abec9e362)" d="M 92.290909 88.887273 
L 96.390083 90.196964 
L 100.489256 91.465688 
L 104.58843 92.694826 
L 108.687603 93.885677 
L 112.786777 95.039465 
L 116.88595 96.157342 
L 120.985124 97.240396 
L 125.084298 98.289652 
L 129.183471 99.306078 
L 133.282645 100.290588 
L 137.381818 101.244049 
L 141.480992 102.167275 
L 145.580165 103.061041 
L 149.679339 103.926078 
L 153.778512 104.763078 
L 157.877686 105.572695 
L 161.97686 106.35555 
L 166.076033 107.112229 
L 170.175207 107.843289 
L 174.27438 108.549255 
L 178.373554 109.230624 
L 182.472727 109.887868 
L 186.571901 110.521432 
L 190.671074 111.131736 
L 194.770248 111.719179 
L 198.869421 112.284135 
L 202.968595 112.826959 
L 207.067769 113.347984 
L 211.166942 113.847525 
L 215.266116 114.325875 
L 219.365289 114.783313 
L 223.464463 115.220097 
L 227.563636 115.63647 
L 231.66281 116.032658 
L 235.761983 116.408871 
L 239.861157 116.765304 
L 243.960331 117.102135 
L 248.059504 117.41953 
L 252.158678 117.717639 
L 256.257851 117.996598 
L 260.357025 118.256531 
L 264.456198 118.497547 
L 268.555372 118.719742 
L 272.654545 118.923197 
L 276.753719 119.107984 
L 280.852893 119.27416 
L 284.952066 119.421769 
L 289.05124 119.550842 
L 293.150413 119.661399 
L 297.249587 119.753447 
L 301.34876 119.82698 
L 305.447934 119.881979 
L 309.547107 119.918413 
L 313.646281 119.936239 
L 317.745455 119.935399 
L 321.844628 119.915825 
L 325.943802 119.877434 
L 330.042975 119.82013 
L 334.142149 119.743802 
L 338.241322 119.648329 
L 342.340496 119.533572 
L 346.439669 119.39938 
L 350.538843 119.245587 
L 354.638017 119.072011 
L 358.73719 118.878454 
L 362.836364 118.664705 
L 366.935537 118.430532 
L 371.034711 118.175691 
L 375.133884 117.899915 
L 379.233058 117.602924 
L 383.332231 117.284415 
L 387.431405 116.944067 
L 391.530579 116.581538 
L 395.629752 116.196465 
L 399.728926 115.788462 
L 403.828099 115.357119 
L 407.927273 114.902003 
L 412.026446 114.422655 
L 416.12562 113.918587 
L 420.224793 113.389285 
L 424.323967 112.834202 
L 428.42314 112.252763 
L 432.522314 111.644357 
L 436.621488 111.008338 
L 440.720661 110.344024 
L 444.819835 109.65069 
L 448.919008 108.927572 
L 453.018182 108.17386 
L 457.117355 107.388696 
L 461.216529 106.571171 
L 465.315702 105.720322 
L 469.414876 104.835127 
L 473.51405 103.914502 
L 477.613223 102.957296 
L 481.712397 101.962288 
L 485.81157 100.928175 
L 489.910744 99.853576 
L 494.009917 98.737017 
L 498.109091 97.576927 
" style="fill:none;stroke:#0000ff;stroke-dasharray:7.4,3.2;stroke-dashoffset:0;stroke-width:2;"/>
   </g>
   <g id="patch_3">
    <path d="M 72 504 
L 72 69.12 
" style="fill:none;stroke:#000000;stroke-linecap:square;stroke-linejoin:miter;stroke-width:0.8;"/>
   </g>
   <g id="patch_4">
    <path d="M 518.4 504 
L 518.4 69.12 
" style="fill:none;stroke:#000000;stroke-linecap:square;stroke-linejoin:miter;stroke-width:0.8;"/>
   </g>
   <g id="patch_5">
    <path d="M 72 504 
L 518.4 504 
" style="fill:none;stroke:#000000;stroke-linecap:square;stroke-linejoin:miter;stroke-width:0.8;"/>
   </g>
   <g id="patch_6">
    <path d="M 72 69.12 
L 518.4 69.12 
" style="fill:none;stroke:#000000;stroke-linecap:square;stroke-linejoin:miter;stroke-width:0.8;"/>
   </g>
   <g id="legend_1">
    <g id="patch_7">
     <path d="M 197.408 371.8325 
L 382.208 371.8325 
Q 385.408 371.8325 385.408 368.6325 
L 385.408 297.76 
Q 385.408 294.56 382.208 294.56 
L 197.408 294.56 
Q 194.208 294.56 194.208 297.76 
L 194.208 368.6325 
Q 194.208 371.8325 197.408 371.8325 
z
" style="fill:#ffffff;opacity:0.8;stroke:#cccccc;stroke-linejoin:miter;"/>
    </g>
    <g id="line2d_33">
     <path d="M 200.608 307.5175 
L 232.608 307.5175 
" style="fill:none;stroke:#000000;stroke-linecap:square;stroke-width:2;"/>
    </g>
    <g id="line2d_34"/>
    <g id="text_14">
     <!-- $J_C/ 2 \pi = 0.005  \, \mathrm{MHz}$ -->
     <g transform="translate(245.408 313.1175)scale(0.16 -0.16)">
      <defs>
       <path d="M 10.890625 6 
Q 11.859375 3.21875 14.5 1.796875 
Q 17.140625 0.390625 20.21875 0.390625 
Q 23.34375 0.390625 26.25 2.5625 
Q 29.15625 4.734375 31.171875 8 
Q 33.203125 11.28125 33.984375 14.5 
L 45.796875 61.8125 
Q 45.90625 62.203125 45.921875 62.390625 
Q 45.953125 62.59375 46 62.796875 
Q 46 63.875 45.21875 64.109375 
Q 42.578125 64.796875 34.515625 64.796875 
Q 33.5 64.796875 33.5 66.109375 
Q 33.6875 66.890625 33.8125 67.328125 
Q 33.9375 67.78125 34.25 68.046875 
Q 34.578125 68.3125 35.203125 68.3125 
L 62.3125 68.3125 
Q 63.28125 68.3125 63.28125 67 
Q 62.890625 64.796875 62.015625 64.796875 
Q 58.5 64.796875 56.6875 64.25 
Q 54.890625 63.71875 54.203125 61.375 
L 42.390625 14.109375 
Q 41.265625 9.46875 37.8125 5.734375 
Q 34.375 2 29.640625 -0.09375 
Q 24.90625 -2.203125 20.125 -2.203125 
Q 14.84375 -2.203125 10.859375 0.71875 
Q 6.890625 3.65625 6.890625 8.6875 
Q 6.890625 12.015625 8.6875 14.40625 
Q 10.5 16.796875 13.8125 16.796875 
Q 15.71875 16.796875 17.015625 15.625 
Q 18.3125 14.453125 18.3125 12.59375 
Q 18.3125 9.90625 16.3125 7.90625 
Q 14.3125 5.90625 11.625 5.90625 
Q 11.078125 5.90625 10.890625 6 
z
" id="Cmmi10-74"/>
       <path d="M 14.59375 21.578125 
Q 14.59375 15.578125 16.90625 11.015625 
Q 19.234375 6.453125 23.65625 3.875 
Q 28.078125 1.3125 34.078125 1.3125 
Q 40.375 1.3125 46.203125 4.53125 
Q 52.046875 7.765625 56.171875 13.15625 
Q 60.296875 18.5625 61.8125 24.609375 
Q 62.015625 25.203125 62.59375 25.203125 
L 63.8125 25.203125 
Q 64.203125 25.203125 64.453125 24.921875 
Q 64.703125 24.65625 64.703125 24.3125 
Q 64.703125 24.21875 64.59375 24.03125 
Q 62.890625 17.09375 57.984375 11.015625 
Q 53.078125 4.9375 46.234375 1.359375 
Q 39.40625 -2.203125 32.171875 -2.203125 
Q 24.359375 -2.203125 18.15625 1.3125 
Q 11.96875 4.828125 8.515625 11.078125 
Q 5.078125 17.328125 5.078125 25.203125 
Q 5.078125 33.59375 8.828125 41.8125 
Q 12.59375 50.046875 18.9375 56.46875 
Q 25.296875 62.890625 33.421875 66.703125 
Q 41.546875 70.515625 49.90625 70.515625 
Q 53.21875 70.515625 56.25 69.5 
Q 59.28125 68.5 61.859375 66.453125 
Q 64.453125 64.40625 66.109375 61.71875 
L 74.03125 70.3125 
Q 74.03125 70.515625 74.515625 70.515625 
L 75.09375 70.515625 
Q 75.484375 70.515625 75.734375 70.171875 
Q 75.984375 69.828125 75.984375 69.484375 
L 69.1875 42.484375 
Q 69.1875 41.796875 68.40625 41.796875 
L 66.609375 41.796875 
Q 65.828125 41.796875 65.828125 42.921875 
Q 66.21875 45.125 66.21875 48.1875 
Q 66.21875 53.078125 64.546875 57.390625 
Q 62.890625 61.71875 59.390625 64.359375 
Q 55.90625 67 50.875 67 
Q 42.71875 67 35.9375 62.890625 
Q 29.15625 58.796875 24.4375 52.125 
Q 19.734375 45.453125 17.15625 37.328125 
Q 14.59375 29.203125 14.59375 21.578125 
z
" id="Cmmi10-67"/>
       <path d="M 7.515625 13.28125 
Q 6.6875 13.28125 6.140625 13.90625 
Q 5.609375 14.546875 5.609375 15.28125 
Q 5.609375 16.109375 6.140625 16.6875 
Q 6.6875 17.28125 7.515625 17.28125 
L 70.3125 17.28125 
Q 71.046875 17.28125 71.578125 16.6875 
Q 72.125 16.109375 72.125 15.28125 
Q 72.125 14.546875 71.578125 13.90625 
Q 71.046875 13.28125 70.3125 13.28125 
z
M 7.515625 32.71875 
Q 6.6875 32.71875 6.140625 33.296875 
Q 5.609375 33.890625 5.609375 34.71875 
Q 5.609375 35.453125 6.140625 36.078125 
Q 6.6875 36.71875 7.515625 36.71875 
L 70.3125 36.71875 
Q 71.046875 36.71875 71.578125 36.078125 
Q 72.125 35.453125 72.125 34.71875 
Q 72.125 33.890625 71.578125 33.296875 
Q 71.046875 32.71875 70.3125 32.71875 
z
" id="Cmr10-61"/>
      </defs>
      <use xlink:href="#Cmmi10-74"/>
      <use transform="translate(55.419922 -17.00625)scale(0.7)" xlink:href="#Cmmi10-67"/>
      <use transform="translate(111.767969 0)" xlink:href="#Cmmi10-61"/>
      <use transform="translate(161.767969 0)" xlink:href="#Cmr10-50"/>
      <use transform="translate(211.767969 0)" xlink:href="#Cmmi10-188"/>
      <use transform="translate(286.308984 0)" xlink:href="#Cmr10-61"/>
      <use transform="translate(381.553125 0)" xlink:href="#Cmr10-48"/>
      <use transform="translate(431.553125 0)" xlink:href="#Cmmi10-58"/>
      <use transform="translate(459.238672 0)" xlink:href="#Cmr10-48"/>
      <use transform="translate(509.238672 0)" xlink:href="#Cmr10-48"/>
      <use transform="translate(559.238672 0)" xlink:href="#Cmr10-53"/>
      <use transform="translate(623.871126 0)" xlink:href="#Cmr10-77"/>
      <use transform="translate(715.472688 0)" xlink:href="#Cmr10-72"/>
      <use transform="translate(790.472688 0)" xlink:href="#Cmr10-122"/>
     </g>
    </g>
    <g id="line2d_35">
     <path d="M 200.608 331.675 
L 232.608 331.675 
" style="fill:none;stroke:#ff0000;stroke-linecap:square;stroke-width:2;"/>
    </g>
    <g id="line2d_36"/>
    <g id="text_15">
     <!-- $J_C/ 2 \pi = 0.015  \, \mathrm{MHz}$ -->
     <g transform="translate(245.408 337.275)scale(0.16 -0.16)">
      <use xlink:href="#Cmmi10-74"/>
      <use transform="translate(55.419922 -17.00625)scale(0.7)" xlink:href="#Cmmi10-67"/>
      <use transform="translate(111.767969 0)" xlink:href="#Cmmi10-61"/>
      <use transform="translate(161.767969 0)" xlink:href="#Cmr10-50"/>
      <use transform="translate(211.767969 0)" xlink:href="#Cmmi10-188"/>
      <use transform="translate(286.308984 0)" xlink:href="#Cmr10-61"/>
      <use transform="translate(381.553125 0)" xlink:href="#Cmr10-48"/>
      <use transform="translate(431.553125 0)" xlink:href="#Cmmi10-58"/>
      <use transform="translate(459.238672 0)" xlink:href="#Cmr10-48"/>
      <use transform="translate(509.238672 0)" xlink:href="#Cmr10-49"/>
      <use transform="translate(559.238672 0)" xlink:href="#Cmr10-53"/>
      <use transform="translate(623.871126 0)" xlink:href="#Cmr10-77"/>
      <use transform="translate(715.472688 0)" xlink:href="#Cmr10-72"/>
      <use transform="translate(790.472688 0)" xlink:href="#Cmr10-122"/>
     </g>
    </g>
    <g id="line2d_37">
     <path d="M 200.608 355.8325 
L 232.608 355.8325 
" style="fill:none;stroke:#0000ff;stroke-linecap:square;stroke-width:2;"/>
    </g>
    <g id="line2d_38"/>
    <g id="text_16">
     <!-- $J_C/ 2 \pi = 0.03  \, \mathrm{MHz}$ -->
     <g transform="translate(245.408 361.4325)scale(0.16 -0.16)">
      <defs>
       <path d="M 9.515625 7.71875 
Q 11.859375 4.296875 15.8125 2.640625 
Q 19.78125 0.984375 24.3125 0.984375 
Q 30.125 0.984375 32.5625 5.9375 
Q 35.015625 10.890625 35.015625 17.1875 
Q 35.015625 20.015625 34.5 22.84375 
Q 33.984375 25.6875 32.765625 28.125 
Q 31.546875 30.5625 29.421875 32.03125 
Q 27.296875 33.5 24.21875 33.5 
L 17.578125 33.5 
Q 16.703125 33.5 16.703125 34.421875 
L 16.703125 35.296875 
Q 16.703125 36.078125 17.578125 36.078125 
L 23.09375 36.53125 
Q 26.609375 36.53125 28.921875 39.15625 
Q 31.25 41.796875 32.328125 45.578125 
Q 33.40625 49.359375 33.40625 52.78125 
Q 33.40625 57.5625 31.15625 60.640625 
Q 28.90625 63.71875 24.3125 63.71875 
Q 20.515625 63.71875 17.046875 62.28125 
Q 13.578125 60.84375 11.53125 57.90625 
Q 11.71875 57.953125 11.859375 57.984375 
Q 12.015625 58.015625 12.203125 58.015625 
Q 14.453125 58.015625 15.96875 56.453125 
Q 17.484375 54.890625 17.484375 52.6875 
Q 17.484375 50.53125 15.96875 48.96875 
Q 14.453125 47.40625 12.203125 47.40625 
Q 10.015625 47.40625 8.453125 48.96875 
Q 6.890625 50.53125 6.890625 52.6875 
Q 6.890625 56.984375 9.46875 60.15625 
Q 12.0625 63.328125 16.140625 64.96875 
Q 20.21875 66.609375 24.3125 66.609375 
Q 27.34375 66.609375 30.703125 65.703125 
Q 34.078125 64.796875 36.8125 63.109375 
Q 39.546875 61.421875 41.28125 58.78125 
Q 43.015625 56.15625 43.015625 52.78125 
Q 43.015625 48.578125 41.140625 45.015625 
Q 39.265625 41.453125 35.984375 38.859375 
Q 32.71875 36.28125 28.8125 35.015625 
Q 33.15625 34.1875 37.0625 31.734375 
Q 40.96875 29.296875 43.328125 25.484375 
Q 45.703125 21.6875 45.703125 17.28125 
Q 45.703125 11.765625 42.671875 7.296875 
Q 39.65625 2.828125 34.71875 0.3125 
Q 29.78125 -2.203125 24.3125 -2.203125 
Q 19.625 -2.203125 14.90625 -0.40625 
Q 10.203125 1.375 7.203125 4.9375 
Q 4.203125 8.5 4.203125 13.484375 
Q 4.203125 15.96875 5.859375 17.625 
Q 7.515625 19.28125 10.015625 19.28125 
Q 11.625 19.28125 12.96875 18.53125 
Q 14.3125 17.78125 15.0625 16.40625 
Q 15.828125 15.046875 15.828125 13.484375 
Q 15.828125 11.03125 14.109375 9.375 
Q 12.40625 7.71875 10.015625 7.71875 
z
" id="Cmr10-51"/>
      </defs>
      <use xlink:href="#Cmmi10-74"/>
      <use transform="translate(55.419922 -17.00625)scale(0.7)" xlink:href="#Cmmi10-67"/>
      <use transform="translate(111.767969 0)" xlink:href="#Cmmi10-61"/>
      <use transform="translate(161.767969 0)" xlink:href="#Cmr10-50"/>
      <use transform="translate(211.767969 0)" xlink:href="#Cmmi10-188"/>
      <use transform="translate(286.308984 0)" xlink:href="#Cmr10-61"/>
      <use transform="translate(381.553125 0)" xlink:href="#Cmr10-48"/>
      <use transform="translate(431.553125 0)" xlink:href="#Cmmi10-58"/>
      <use transform="translate(459.238672 0)" xlink:href="#Cmr10-48"/>
      <use transform="translate(509.238672 0)" xlink:href="#Cmr10-51"/>
      <use transform="translate(573.871126 0)" xlink:href="#Cmr10-77"/>
      <use transform="translate(665.472688 0)" xlink:href="#Cmr10-72"/>
      <use transform="translate(740.472688 0)" xlink:href="#Cmr10-122"/>
     </g>
    </g>
   </g>
  </g>
 </g>
 <defs>
  <clipPath id="p2abec9e362">
   <rect height="434.88" width="446.4" x="72" y="69.12"/>
  </clipPath>
 </defs>
</svg>
