<?xml version="1.0" encoding="utf-8" standalone="no"?>
<!DOCTYPE svg PUBLIC "-//W3C//DTD SVG 1.1//EN"
  "http://www.w3.org/Graphics/SVG/1.1/DTD/svg11.dtd">
<!-- Created with matplotlib (https://matplotlib.org/) -->
<svg height="182.56169pt" version="1.1" viewBox="0 0 238.07952 182.56169" width="238.07952pt" xmlns="http://www.w3.org/2000/svg" xmlns:xlink="http://www.w3.org/1999/xlink">
 <metadata>
  <rdf:RDF xmlns:cc="http://creativecommons.org/ns#" xmlns:dc="http://purl.org/dc/elements/1.1/" xmlns:rdf="http://www.w3.org/1999/02/22-rdf-syntax-ns#">
   <cc:Work>
    <dc:type rdf:resource="http://purl.org/dc/dcmitype/StillImage"/>
    <dc:date>2022-06-07T23:38:56.656525</dc:date>
    <dc:format>image/svg+xml</dc:format>
    <dc:creator>
     <cc:Agent>
      <dc:title>Matplotlib v3.3.3, https://matplotlib.org/</dc:title>
     </cc:Agent>
    </dc:creator>
   </cc:Work>
  </rdf:RDF>
 </metadata>
 <defs>
  <style type="text/css">*{stroke-linecap:butt;stroke-linejoin:round;}</style>
 </defs>
 <g id="figure_1">
  <g id="patch_1">
   <path d="M 0 182.56169 
L 238.07952 182.56169 
L 238.07952 0 
L 0 0 
z
" style="fill:none;"/>
  </g>
  <g id="axes_1">
   <g id="patch_2">
    <path d="M 36.758125 153.81919 
L 238.07952 153.81919 
L 238.07952 -0 
L 36.758125 -0 
z
" style="fill:none;"/>
   </g>
   <g id="patch_3">
    <path clip-path="url(#pf2e981f36b)" d="M 103.102676 153.81919 
L 103.102676 -0 
L 137.418822 -0 
L 137.418822 153.81919 
z
" style="fill:#6aaed6;opacity:0.5;stroke:#6aaed6;stroke-linejoin:miter;"/>
   </g>
   <g id="matplotlib.axis_1">
    <g id="xtick_1">
     <g id="line2d_1">
      <defs>
       <path d="M 0 0 
L 0 3.5 
" id="m53b48653c0" style="stroke:#000000;stroke-width:0.8;"/>
      </defs>
      <g>
       <use style="stroke:#000000;stroke-width:0.8;" x="45.909097" xlink:href="#m53b48653c0" y="153.81919"/>
      </g>
     </g>
     <g id="text_1">
      <!-- $4.2$ -->
      <g transform="translate(40.789097 166.89794)scale(0.08 -0.08)">
       <defs>
        <path d="M 2.78125 16.5 
L 2.78125 20.015625 
L 33.6875 66.109375 
Q 34.03125 66.609375 34.71875 66.609375 
L 36.1875 66.609375 
Q 37.3125 66.609375 37.3125 65.484375 
L 37.3125 20.015625 
L 47.125 20.015625 
L 47.125 16.5 
L 37.3125 16.5 
L 37.3125 6.6875 
Q 37.3125 4.640625 40.234375 4.078125 
Q 43.171875 3.515625 47.015625 3.515625 
L 47.015625 0 
L 19.484375 0 
L 19.484375 3.515625 
Q 23.34375 3.515625 26.265625 4.078125 
Q 29.203125 4.640625 29.203125 6.6875 
L 29.203125 16.5 
z
M 6.109375 20.015625 
L 29.78125 20.015625 
L 29.78125 55.421875 
z
" id="Cmr10-52"/>
        <path d="M 8.40625 5.515625 
Q 8.40625 7.765625 10.0625 9.375 
Q 11.71875 10.984375 13.921875 10.984375 
Q 15.28125 10.984375 16.59375 10.25 
Q 17.921875 9.515625 18.65625 8.203125 
Q 19.390625 6.890625 19.390625 5.515625 
Q 19.390625 3.328125 17.765625 1.65625 
Q 16.15625 0 13.921875 0 
Q 11.71875 0 10.0625 1.65625 
Q 8.40625 3.328125 8.40625 5.515625 
z
" id="Cmmi10-58"/>
        <path d="M 4.984375 0 
L 4.984375 2.6875 
Q 4.984375 2.9375 5.171875 3.21875 
L 20.703125 20.40625 
Q 24.21875 24.21875 26.40625 26.796875 
Q 28.609375 29.390625 30.75 32.765625 
Q 32.90625 36.140625 34.15625 39.625 
Q 35.40625 43.109375 35.40625 47.015625 
Q 35.40625 51.125 33.890625 54.859375 
Q 32.375 58.59375 29.375 60.84375 
Q 26.375 63.09375 22.125 63.09375 
Q 17.78125 63.09375 14.3125 60.46875 
Q 10.84375 57.859375 9.421875 53.71875 
Q 9.8125 53.8125 10.5 53.8125 
Q 12.75 53.8125 14.328125 52.296875 
Q 15.921875 50.78125 15.921875 48.390625 
Q 15.921875 46.09375 14.328125 44.5 
Q 12.75 42.921875 10.5 42.921875 
Q 8.15625 42.921875 6.5625 44.546875 
Q 4.984375 46.1875 4.984375 48.390625 
Q 4.984375 52.15625 6.390625 55.4375 
Q 7.8125 58.734375 10.46875 61.296875 
Q 13.140625 63.875 16.484375 65.234375 
Q 19.828125 66.609375 23.578125 66.609375 
Q 29.296875 66.609375 34.21875 64.1875 
Q 39.15625 61.765625 42.03125 57.34375 
Q 44.921875 52.9375 44.921875 47.015625 
Q 44.921875 42.671875 43.015625 38.765625 
Q 41.109375 34.859375 38.125 31.65625 
Q 35.15625 28.46875 30.515625 24.40625 
Q 25.875 20.359375 24.421875 19 
L 13.09375 8.109375 
L 22.703125 8.109375 
Q 29.78125 8.109375 34.546875 8.21875 
Q 39.3125 8.34375 39.59375 8.59375 
Q 40.765625 9.859375 42 17.828125 
L 44.921875 17.828125 
L 42.09375 0 
z
" id="Cmr10-50"/>
       </defs>
       <use transform="translate(0 0.390625)" xlink:href="#Cmr10-52"/>
       <use transform="translate(50 0.390625)" xlink:href="#Cmmi10-58"/>
       <use transform="translate(77.685547 0.390625)" xlink:href="#Cmr10-50"/>
      </g>
     </g>
    </g>
    <g id="xtick_2">
     <g id="line2d_2">
      <g>
       <use style="stroke:#000000;stroke-width:0.8;" x="68.786529" xlink:href="#m53b48653c0" y="153.81919"/>
      </g>
     </g>
     <g id="text_2">
      <!-- $4.4$ -->
      <g transform="translate(63.666529 166.89794)scale(0.08 -0.08)">
       <use transform="translate(0 0.390625)" xlink:href="#Cmr10-52"/>
       <use transform="translate(50 0.390625)" xlink:href="#Cmmi10-58"/>
       <use transform="translate(77.685547 0.390625)" xlink:href="#Cmr10-52"/>
      </g>
     </g>
    </g>
    <g id="xtick_3">
     <g id="line2d_3">
      <g>
       <use style="stroke:#000000;stroke-width:0.8;" x="91.66396" xlink:href="#m53b48653c0" y="153.81919"/>
      </g>
     </g>
     <g id="text_3">
      <!-- $4.6$ -->
      <g transform="translate(86.54396 166.89794)scale(0.08 -0.08)">
       <defs>
        <path d="M 25 -2.203125 
Q 18.796875 -2.203125 14.640625 1.09375 
Q 10.5 4.390625 8.21875 9.640625 
Q 5.953125 14.890625 5.078125 20.65625 
Q 4.203125 26.421875 4.203125 32.328125 
Q 4.203125 40.234375 7.28125 48.1875 
Q 10.359375 56.15625 16.328125 61.375 
Q 22.3125 66.609375 30.515625 66.609375 
Q 33.9375 66.609375 36.890625 65.3125 
Q 39.84375 64.015625 41.53125 61.5 
Q 43.21875 58.984375 43.21875 55.421875 
Q 43.21875 53.375 41.828125 51.984375 
Q 40.4375 50.59375 38.375 50.59375 
Q 36.421875 50.59375 35 52 
Q 33.59375 53.421875 33.59375 55.421875 
Q 33.59375 57.375 35 58.78125 
Q 36.421875 60.203125 38.375 60.203125 
L 38.921875 60.203125 
Q 37.640625 62.015625 35.328125 62.859375 
Q 33.015625 63.71875 30.515625 63.71875 
Q 27.484375 63.71875 24.921875 62.390625 
Q 22.359375 61.078125 20.3125 58.828125 
Q 18.265625 56.59375 16.890625 53.875 
Q 15.53125 51.171875 14.765625 47.703125 
Q 14.015625 44.234375 13.8125 41.203125 
Q 13.625 38.1875 13.625 33.59375 
Q 15.375 37.703125 18.59375 40.3125 
Q 21.828125 42.921875 25.875 42.921875 
Q 30.328125 42.921875 33.984375 41.109375 
Q 37.640625 39.3125 40.28125 36.109375 
Q 42.921875 32.90625 44.3125 28.796875 
Q 45.703125 24.703125 45.703125 20.515625 
Q 45.703125 14.65625 43.09375 9.34375 
Q 40.484375 4.046875 35.734375 0.921875 
Q 31 -2.203125 25 -2.203125 
z
M 25 0.984375 
Q 28.859375 0.984375 31.203125 2.734375 
Q 33.546875 4.5 34.640625 7.390625 
Q 35.75 10.296875 36.015625 13.25 
Q 36.28125 16.21875 36.28125 20.515625 
Q 36.28125 26.171875 35.734375 30.171875 
Q 35.203125 34.1875 32.8125 37.234375 
Q 30.421875 40.28125 25.484375 40.28125 
Q 21.4375 40.28125 18.828125 37.546875 
Q 16.21875 34.8125 15.015625 30.640625 
Q 13.8125 26.46875 13.8125 22.609375 
Q 13.8125 21.296875 13.921875 20.609375 
Q 13.921875 20.453125 13.890625 20.359375 
Q 13.875 20.265625 13.8125 20.125 
Q 13.8125 15.828125 14.6875 11.421875 
Q 15.578125 7.03125 18.0625 4 
Q 20.5625 0.984375 25 0.984375 
z
" id="Cmr10-54"/>
       </defs>
       <use transform="translate(0 0.390625)" xlink:href="#Cmr10-52"/>
       <use transform="translate(50 0.390625)" xlink:href="#Cmmi10-58"/>
       <use transform="translate(77.685547 0.390625)" xlink:href="#Cmr10-54"/>
      </g>
     </g>
    </g>
    <g id="xtick_4">
     <g id="line2d_4">
      <g>
       <use style="stroke:#000000;stroke-width:0.8;" x="114.541391" xlink:href="#m53b48653c0" y="153.81919"/>
      </g>
     </g>
     <g id="text_4">
      <!-- $4.8$ -->
      <g transform="translate(109.421391 166.89794)scale(0.08 -0.08)">
       <defs>
        <path d="M 4.203125 15.1875 
Q 4.203125 21.1875 8.15625 25.796875 
Q 12.109375 30.421875 18.3125 33.5 
L 14.59375 35.890625 
Q 11.1875 38.140625 9.03125 41.875 
Q 6.890625 45.609375 6.890625 49.703125 
Q 6.890625 54.5 9.40625 58.34375 
Q 11.921875 62.203125 16.09375 64.40625 
Q 20.265625 66.609375 25 66.609375 
Q 29.4375 66.609375 33.5625 64.796875 
Q 37.703125 62.984375 40.359375 59.609375 
Q 43.015625 56.25 43.015625 51.609375 
Q 43.015625 48.25 41.421875 45.359375 
Q 39.84375 42.484375 37.078125 40.1875 
Q 34.328125 37.890625 31.203125 36.28125 
L 36.921875 32.625 
Q 40.875 30.03125 43.28125 25.828125 
Q 45.703125 21.625 45.703125 17 
Q 45.703125 11.578125 42.796875 7.125 
Q 39.890625 2.6875 35.109375 0.234375 
Q 30.328125 -2.203125 25 -2.203125 
Q 19.828125 -2.203125 15.015625 -0.09375 
Q 10.203125 2 7.203125 5.984375 
Q 4.203125 9.96875 4.203125 15.1875 
z
M 9.625 15.1875 
Q 9.625 11.234375 11.796875 7.953125 
Q 13.96875 4.6875 17.53125 2.828125 
Q 21.09375 0.984375 25 0.984375 
Q 30.8125 0.984375 35.546875 4.375 
Q 40.28125 7.765625 40.28125 13.375 
Q 40.28125 15.28125 39.515625 17.15625 
Q 38.765625 19.046875 37.421875 20.578125 
Q 36.078125 22.125 34.421875 23.09375 
L 21 31.78125 
Q 17.875 30.125 15.25 27.578125 
Q 12.640625 25.046875 11.125 21.875 
Q 9.625 18.703125 9.625 15.1875 
z
M 16.5 45.703125 
L 28.609375 37.890625 
Q 32.8125 40.328125 35.5 43.796875 
Q 38.1875 47.265625 38.1875 51.609375 
Q 38.1875 54.984375 36.296875 57.78125 
Q 34.421875 60.59375 31.390625 62.15625 
Q 28.375 63.71875 24.90625 63.71875 
Q 21.875 63.71875 18.796875 62.546875 
Q 15.71875 61.375 13.71875 59.046875 
Q 11.71875 56.734375 11.71875 53.609375 
Q 11.71875 48.921875 16.5 45.703125 
z
" id="Cmr10-56"/>
       </defs>
       <use transform="translate(0 0.390625)" xlink:href="#Cmr10-52"/>
       <use transform="translate(50 0.390625)" xlink:href="#Cmmi10-58"/>
       <use transform="translate(77.685547 0.390625)" xlink:href="#Cmr10-56"/>
      </g>
     </g>
    </g>
    <g id="xtick_5">
     <g id="line2d_5">
      <g>
       <use style="stroke:#000000;stroke-width:0.8;" x="137.418822" xlink:href="#m53b48653c0" y="153.81919"/>
      </g>
     </g>
     <g id="text_5">
      <!-- $5.0$ -->
      <g transform="translate(132.298822 166.89794)scale(0.08 -0.08)">
       <defs>
        <path d="M 8.6875 11.375 
Q 9.71875 8.453125 11.84375 6.046875 
Q 13.96875 3.65625 16.875 2.3125 
Q 19.78125 0.984375 22.90625 0.984375 
Q 30.125 0.984375 32.859375 6.59375 
Q 35.59375 12.203125 35.59375 20.21875 
Q 35.59375 23.6875 35.46875 26.046875 
Q 35.359375 28.421875 34.8125 30.609375 
Q 33.890625 34.125 31.5625 36.765625 
Q 29.25 39.40625 25.875 39.40625 
Q 22.515625 39.40625 20.09375 38.375 
Q 17.671875 37.359375 16.15625 35.984375 
Q 14.65625 34.625 13.484375 33.109375 
Q 12.3125 31.59375 12.015625 31.5 
L 10.890625 31.5 
Q 10.640625 31.5 10.265625 31.8125 
Q 9.90625 32.125 9.90625 32.421875 
L 9.90625 65.828125 
Q 9.90625 66.0625 10.21875 66.328125 
Q 10.546875 66.609375 10.890625 66.609375 
L 11.1875 66.609375 
Q 17.921875 63.375 25.484375 63.375 
Q 32.90625 63.375 39.796875 66.609375 
L 40.09375 66.609375 
Q 40.4375 66.609375 40.71875 66.359375 
Q 41.015625 66.109375 41.015625 65.828125 
L 41.015625 64.890625 
Q 41.015625 64.40625 40.828125 64.40625 
Q 37.40625 59.859375 32.25 57.3125 
Q 27.09375 54.78125 21.578125 54.78125 
Q 17.578125 54.78125 13.375 55.90625 
L 13.375 37.015625 
Q 16.703125 39.703125 19.3125 40.84375 
Q 21.921875 42 25.984375 42 
Q 31.5 42 35.859375 38.8125 
Q 40.234375 35.640625 42.578125 30.53125 
Q 44.921875 25.4375 44.921875 20.125 
Q 44.921875 14.109375 41.96875 8.984375 
Q 39.015625 3.859375 33.9375 0.828125 
Q 28.859375 -2.203125 22.90625 -2.203125 
Q 17.96875 -2.203125 13.84375 0.328125 
Q 9.71875 2.875 7.34375 7.171875 
Q 4.984375 11.46875 4.984375 16.3125 
Q 4.984375 18.5625 6.4375 19.96875 
Q 7.90625 21.390625 10.109375 21.390625 
Q 12.3125 21.390625 13.796875 19.9375 
Q 15.28125 18.5 15.28125 16.3125 
Q 15.28125 14.15625 13.796875 12.671875 
Q 12.3125 11.1875 10.109375 11.1875 
Q 9.765625 11.1875 9.328125 11.25 
Q 8.890625 11.328125 8.6875 11.375 
z
" id="Cmr10-53"/>
        <path d="M 25 -2.203125 
Q 12.75 -2.203125 8.328125 7.875 
Q 3.90625 17.96875 3.90625 31.890625 
Q 3.90625 40.578125 5.484375 48.234375 
Q 7.078125 55.90625 11.78125 61.25 
Q 16.5 66.609375 25 66.609375 
Q 31.59375 66.609375 35.78125 63.375 
Q 39.984375 60.15625 42.1875 55.046875 
Q 44.390625 49.953125 45.1875 44.109375 
Q 46 38.28125 46 31.890625 
Q 46 23.296875 44.40625 15.796875 
Q 42.828125 8.296875 38.1875 3.046875 
Q 33.546875 -2.203125 25 -2.203125 
z
M 25 0.390625 
Q 30.5625 0.390625 33.296875 6.09375 
Q 36.03125 11.8125 36.671875 18.75 
Q 37.3125 25.6875 37.3125 33.5 
Q 37.3125 41.015625 36.671875 47.359375 
Q 36.03125 53.71875 33.3125 58.859375 
Q 30.609375 64.015625 25 64.015625 
Q 19.34375 64.015625 16.609375 58.828125 
Q 13.875 53.65625 13.234375 47.328125 
Q 12.59375 41.015625 12.59375 33.5 
Q 12.59375 27.9375 12.859375 23 
Q 13.140625 18.0625 14.3125 12.8125 
Q 15.484375 7.5625 18.09375 3.96875 
Q 20.703125 0.390625 25 0.390625 
z
" id="Cmr10-48"/>
       </defs>
       <use transform="translate(0 0.390625)" xlink:href="#Cmr10-53"/>
       <use transform="translate(50 0.390625)" xlink:href="#Cmmi10-58"/>
       <use transform="translate(77.685547 0.390625)" xlink:href="#Cmr10-48"/>
      </g>
     </g>
    </g>
    <g id="xtick_6">
     <g id="line2d_6">
      <g>
       <use style="stroke:#000000;stroke-width:0.8;" x="160.296254" xlink:href="#m53b48653c0" y="153.81919"/>
      </g>
     </g>
     <g id="text_6">
      <!-- $5.2$ -->
      <g transform="translate(155.176254 166.89794)scale(0.08 -0.08)">
       <use transform="translate(0 0.390625)" xlink:href="#Cmr10-53"/>
       <use transform="translate(50 0.390625)" xlink:href="#Cmmi10-58"/>
       <use transform="translate(77.685547 0.390625)" xlink:href="#Cmr10-50"/>
      </g>
     </g>
    </g>
    <g id="xtick_7">
     <g id="line2d_7">
      <g>
       <use style="stroke:#000000;stroke-width:0.8;" x="183.173685" xlink:href="#m53b48653c0" y="153.81919"/>
      </g>
     </g>
     <g id="text_7">
      <!-- $5.4$ -->
      <g transform="translate(178.053685 166.89794)scale(0.08 -0.08)">
       <use transform="translate(0 0.390625)" xlink:href="#Cmr10-53"/>
       <use transform="translate(50 0.390625)" xlink:href="#Cmmi10-58"/>
       <use transform="translate(77.685547 0.390625)" xlink:href="#Cmr10-52"/>
      </g>
     </g>
    </g>
    <g id="xtick_8">
     <g id="line2d_8">
      <g>
       <use style="stroke:#000000;stroke-width:0.8;" x="206.051116" xlink:href="#m53b48653c0" y="153.81919"/>
      </g>
     </g>
     <g id="text_8">
      <!-- $5.6$ -->
      <g transform="translate(200.931116 166.89794)scale(0.08 -0.08)">
       <use transform="translate(0 0.390625)" xlink:href="#Cmr10-53"/>
       <use transform="translate(50 0.390625)" xlink:href="#Cmmi10-58"/>
       <use transform="translate(77.685547 0.390625)" xlink:href="#Cmr10-54"/>
      </g>
     </g>
    </g>
    <g id="xtick_9">
     <g id="line2d_9">
      <g>
       <use style="stroke:#000000;stroke-width:0.8;" x="228.928548" xlink:href="#m53b48653c0" y="153.81919"/>
      </g>
     </g>
     <g id="text_9">
      <!-- $5.8$ -->
      <g transform="translate(223.808548 166.89794)scale(0.08 -0.08)">
       <use transform="translate(0 0.390625)" xlink:href="#Cmr10-53"/>
       <use transform="translate(50 0.390625)" xlink:href="#Cmmi10-58"/>
       <use transform="translate(77.685547 0.390625)" xlink:href="#Cmr10-56"/>
      </g>
     </g>
    </g>
    <g id="text_10">
     <!-- $\omega_t/2 \pi \, (\mathrm{GHz})$ -->
     <g transform="translate(110.368823 180.06169)scale(0.1 -0.1)">
      <defs>
       <path d="M 12.109375 -1.125 
Q 6.453125 -1.125 3.9375 3.015625 
Q 1.421875 7.171875 1.421875 13.1875 
Q 1.421875 17.140625 2.125 20.921875 
Q 2.828125 24.703125 4.265625 28.578125 
Q 5.71875 32.46875 7.5625 35.859375 
Q 9.421875 39.265625 11.71875 42.484375 
Q 12.15625 43.109375 12.890625 43.109375 
Q 13.53125 43.109375 13.921875 42.71875 
Q 14.3125 42.328125 14.3125 41.796875 
Q 14.3125 41.265625 14.015625 40.828125 
Q 4.890625 28.265625 4.890625 17.671875 
Q 4.890625 13.09375 7 9.796875 
Q 9.125 6.5 13.484375 6.5 
Q 17.234375 6.5 20.4375 8.6875 
Q 23.640625 10.890625 25.984375 14.3125 
Q 25.984375 16.0625 26.59375 19.765625 
Q 27.203125 23.484375 28.484375 26.390625 
Q 29.78125 29.296875 31.59375 29.296875 
Q 33.890625 29.296875 33.890625 26.609375 
Q 33.890625 25.046875 33.21875 22.671875 
Q 32.5625 20.3125 31.75 18.265625 
Q 30.953125 16.21875 29.78125 13.625 
Q 30.953125 6.5 36.921875 6.5 
Q 40.375 6.5 43.859375 8.5 
Q 47.359375 10.5 50.046875 13.75 
Q 52.734375 17 54.265625 20.75 
Q 55.8125 24.515625 55.8125 27.875 
Q 55.8125 30.90625 54.859375 32.59375 
Q 53.90625 34.28125 52.34375 36.125 
Q 50.78125 37.984375 50.78125 39.109375 
Q 50.78125 41.0625 52.4375 42.671875 
Q 54.109375 44.28125 56 44.28125 
Q 58.453125 44.28125 59.46875 42.0625 
Q 60.5 39.84375 60.5 37.015625 
Q 60.5 32.421875 58.671875 25.4375 
Q 56.84375 18.453125 54.5 13.8125 
Q 51.265625 7.515625 46.40625 3.1875 
Q 41.546875 -1.125 35.5 -1.125 
Q 31.640625 -1.125 29.265625 1.1875 
Q 26.90625 3.515625 26.21875 7.515625 
Q 23.4375 3.5625 19.875 1.21875 
Q 16.3125 -1.125 12.109375 -1.125 
z
" id="Cmmi10-33"/>
       <path d="M 6.203125 8.109375 
Q 6.203125 9.578125 6.5 10.890625 
L 13.71875 39.59375 
L 3.21875 39.59375 
Q 2.203125 39.59375 2.203125 40.921875 
Q 2.59375 43.109375 3.515625 43.109375 
L 14.59375 43.109375 
L 18.609375 59.421875 
Q 19 60.75 20.171875 61.671875 
Q 21.34375 62.59375 22.796875 62.59375 
Q 24.078125 62.59375 24.921875 61.828125 
Q 25.78125 61.078125 25.78125 59.8125 
Q 25.78125 59.515625 25.75 59.34375 
Q 25.734375 59.1875 25.6875 58.984375 
L 21.6875 43.109375 
L 31.984375 43.109375 
Q 33.015625 43.109375 33.015625 41.796875 
Q 32.953125 41.546875 32.8125 40.953125 
Q 32.671875 40.375 32.421875 39.984375 
Q 32.171875 39.59375 31.6875 39.59375 
L 20.796875 39.59375 
L 13.625 10.6875 
Q 12.890625 7.859375 12.890625 5.8125 
Q 12.890625 1.515625 15.828125 1.515625 
Q 20.21875 1.515625 23.609375 5.640625 
Q 27 9.765625 28.8125 14.703125 
Q 29.203125 15.28125 29.59375 15.28125 
L 30.8125 15.28125 
Q 31.203125 15.28125 31.4375 15.015625 
Q 31.6875 14.75 31.6875 14.40625 
Q 31.6875 14.203125 31.59375 14.109375 
Q 29.390625 8.0625 25.1875 3.46875 
Q 21 -1.125 15.578125 -1.125 
Q 11.625 -1.125 8.90625 1.453125 
Q 6.203125 4.046875 6.203125 8.109375 
z
" id="Cmmi10-116"/>
       <path d="M 5.609375 -23 
Q 5.609375 -22.703125 5.71875 -22.609375 
L 40.484375 73.78125 
Q 40.671875 74.359375 41.15625 74.671875 
Q 41.65625 75 42.28125 75 
Q 43.171875 75 43.71875 74.453125 
Q 44.28125 73.921875 44.28125 73 
L 44.28125 72.609375 
L 9.515625 -23.78125 
Q 8.9375 -25 7.625 -25 
Q 6.78125 -25 6.1875 -24.40625 
Q 5.609375 -23.828125 5.609375 -23 
z
" id="Cmmi10-61"/>
       <path d="M 10.109375 1.703125 
Q 10.109375 2.25 10.5 3.328125 
Q 13.28125 9.125 15.6875 14.71875 
Q 18.109375 20.3125 20.03125 25.609375 
Q 21.96875 30.90625 23.578125 36.921875 
L 17.1875 36.921875 
Q 13.53125 36.921875 10.34375 34.625 
Q 7.171875 32.328125 5.078125 28.8125 
Q 4.890625 28.421875 4.5 28.421875 
L 3.328125 28.421875 
Q 2.390625 28.421875 2.390625 29.390625 
Q 2.390625 29.59375 2.59375 29.984375 
Q 5.859375 35.546875 9.59375 39.328125 
Q 13.328125 43.109375 18.015625 43.109375 
L 54.296875 43.109375 
Q 55.328125 43.109375 56.046875 42.421875 
Q 56.78125 41.75 56.78125 40.578125 
Q 56.78125 39.109375 55.734375 38.015625 
Q 54.6875 36.921875 53.21875 36.921875 
L 40.484375 36.921875 
Q 38.875 29.046875 38.71875 21.578125 
Q 38.71875 11.96875 42.09375 4.203125 
Q 42.390625 3.609375 42.390625 2.984375 
Q 42.390625 1.90625 41.75 0.96875 
Q 41.109375 0.046875 40.109375 -0.53125 
Q 39.109375 -1.125 37.984375 -1.125 
Q 35.359375 -1.125 34.375 3.171875 
Q 33.40625 7.46875 33.40625 11.53125 
Q 33.40625 17.234375 34.375 22.53125 
Q 35.359375 27.828125 37.5 36.921875 
L 26.609375 36.921875 
Q 18.703125 4.890625 17.09375 1.609375 
Q 15.671875 -1.125 13.1875 -1.125 
Q 11.96875 -1.125 11.03125 -0.3125 
Q 10.109375 0.484375 10.109375 1.703125 
z
" id="Cmmi10-188"/>
       <path d="M 31 -24.8125 
Q 25.4375 -20.40625 21.40625 -14.71875 
Q 17.390625 -9.03125 14.8125 -2.578125 
Q 12.25 3.859375 10.984375 10.890625 
Q 9.71875 17.921875 9.71875 25 
Q 9.71875 32.171875 10.984375 39.203125 
Q 12.25 46.234375 14.859375 52.734375 
Q 17.484375 59.234375 21.53125 64.890625 
Q 25.59375 70.5625 31 74.8125 
Q 31 75 31.5 75 
L 32.421875 75 
Q 32.71875 75 32.953125 74.734375 
Q 33.203125 74.46875 33.203125 74.125 
Q 33.203125 73.6875 33.015625 73.484375 
Q 28.125 68.703125 24.875 63.234375 
Q 21.625 57.765625 19.640625 51.578125 
Q 17.671875 45.40625 16.796875 38.78125 
Q 15.921875 32.171875 15.921875 25 
Q 15.921875 -6.78125 32.90625 -23.296875 
Q 33.203125 -23.578125 33.203125 -24.125 
Q 33.203125 -24.359375 32.9375 -24.671875 
Q 32.671875 -25 32.421875 -25 
L 31.5 -25 
Q 31 -25 31 -24.8125 
z
" id="Cmr10-40"/>
       <path d="M 23 10.6875 
Q 26.609375 6.296875 31.8125 3.796875 
Q 37.015625 1.3125 42.671875 1.3125 
Q 48.25 1.3125 52.78125 4.140625 
Q 57.328125 6.984375 57.328125 12.203125 
L 57.328125 20.609375 
Q 57.328125 23.78125 44.828125 23.78125 
L 44.828125 27.296875 
L 73.484375 27.296875 
L 73.484375 23.78125 
Q 70.3125 23.78125 68.453125 23.234375 
Q 66.609375 22.703125 66.609375 20.609375 
L 66.609375 0.875 
Q 66.609375 0.53125 66.328125 0.265625 
Q 66.0625 0 65.71875 0 
Q 64.796875 0 62.625 2.1875 
Q 60.453125 4.390625 59.1875 6.109375 
Q 56.734375 1.90625 51.515625 -0.140625 
Q 46.296875 -2.203125 40.578125 -2.203125 
Q 30.859375 -2.203125 22.875 2.796875 
Q 14.890625 7.8125 10.25 16.1875 
Q 5.609375 24.5625 5.609375 34.1875 
Q 5.609375 41.265625 8.296875 47.953125 
Q 10.984375 54.640625 15.796875 59.71875 
Q 20.609375 64.796875 27 67.65625 
Q 33.40625 70.515625 40.578125 70.515625 
Q 45.75 70.515625 50.359375 68.28125 
Q 54.984375 66.0625 58.59375 62.015625 
L 64.40625 70.21875 
Q 64.984375 70.515625 65.09375 70.515625 
L 65.828125 70.515625 
Q 66.109375 70.515625 66.359375 70.265625 
Q 66.609375 70.015625 66.609375 69.671875 
L 66.609375 42.671875 
Q 66.609375 41.796875 65.828125 41.796875 
L 64.015625 41.796875 
Q 63.09375 41.796875 63.09375 42.671875 
Q 63.09375 45.5625 61.9375 49.125 
Q 60.796875 52.6875 59.015625 55.875 
Q 57.234375 59.078125 54.890625 61.53125 
Q 49.265625 67 42 67 
Q 36.421875 67 31.34375 64.5 
Q 26.265625 62.015625 22.796875 57.625 
Q 19.140625 52.9375 17.71875 46.953125 
Q 16.3125 40.96875 16.3125 34.1875 
Q 16.3125 18.84375 23 10.6875 
z
" id="Cmr10-71"/>
       <path d="M 3.078125 0 
L 3.078125 3.515625 
Q 13.375 3.515625 13.375 6.6875 
L 13.375 61.625 
Q 13.375 64.796875 3.078125 64.796875 
L 3.078125 68.3125 
L 33.015625 68.3125 
L 33.015625 64.796875 
Q 22.703125 64.796875 22.703125 61.625 
L 22.703125 37.3125 
L 52.203125 37.3125 
L 52.203125 61.625 
Q 52.203125 64.796875 41.890625 64.796875 
L 41.890625 68.3125 
L 71.78125 68.3125 
L 71.78125 64.796875 
Q 61.53125 64.796875 61.53125 61.625 
L 61.53125 6.6875 
Q 61.53125 3.515625 71.78125 3.515625 
L 71.78125 0 
L 41.890625 0 
L 41.890625 3.515625 
Q 52.203125 3.515625 52.203125 6.6875 
L 52.203125 33.796875 
L 22.703125 33.796875 
L 22.703125 6.6875 
Q 22.703125 3.515625 33.015625 3.515625 
L 33.015625 0 
z
" id="Cmr10-72"/>
       <path d="M 3.90625 0 
Q 2.78125 0 2.78125 1.125 
L 2.78125 1.90625 
Q 2.78125 2.296875 3.078125 2.59375 
L 31 40.484375 
L 22.015625 40.484375 
Q 17.78125 40.484375 15.015625 39.9375 
Q 12.25 39.40625 10.46875 37.90625 
Q 8.6875 36.421875 7.875 33.8125 
Q 7.078125 31.203125 7.078125 26.609375 
L 4.203125 26.609375 
L 5.328125 43.109375 
L 38.8125 43.109375 
Q 39.265625 43.109375 39.578125 42.796875 
Q 39.890625 42.484375 39.890625 42 
L 39.890625 41.40625 
Q 39.890625 41.109375 39.703125 40.71875 
L 11.71875 2.875 
L 21.296875 2.875 
Q 25.640625 2.875 28.546875 3.40625 
Q 31.453125 3.953125 33.5 6 
Q 35.40625 7.90625 36.109375 11.125 
Q 36.8125 14.359375 37.203125 19.09375 
L 40.09375 19.09375 
L 38.375 0 
z
" id="Cmr10-122"/>
       <path d="M 6.5 -25 
Q 5.609375 -25 5.609375 -24.125 
Q 5.609375 -23.6875 5.8125 -23.484375 
Q 22.90625 -6.78125 22.90625 25 
Q 22.90625 56.78125 6 73.296875 
Q 5.609375 73.53125 5.609375 74.125 
Q 5.609375 74.46875 5.875 74.734375 
Q 6.15625 75 6.5 75 
L 7.421875 75 
Q 7.71875 75 7.90625 74.8125 
Q 15.09375 69.140625 19.875 61.03125 
Q 24.65625 52.9375 26.875 43.75 
Q 29.109375 34.578125 29.109375 25 
Q 29.109375 17.921875 27.90625 11.0625 
Q 26.703125 4.203125 24.09375 -2.453125 
Q 21.484375 -9.125 17.484375 -14.765625 
Q 13.484375 -20.40625 7.90625 -24.8125 
Q 7.71875 -25 7.421875 -25 
z
" id="Cmr10-41"/>
      </defs>
      <use xlink:href="#Cmmi10-33"/>
      <use transform="translate(62.207031 -17.00625)scale(0.7)" xlink:href="#Cmmi10-116"/>
      <use transform="translate(93.843164 0)" xlink:href="#Cmmi10-61"/>
      <use transform="translate(143.843164 0)" xlink:href="#Cmr10-50"/>
      <use transform="translate(193.843164 0)" xlink:href="#Cmmi10-188"/>
      <use transform="translate(265.45804 0)" xlink:href="#Cmr10-40"/>
      <use transform="translate(304.276399 0)" xlink:href="#Cmr10-71"/>
      <use transform="translate(382.694368 0)" xlink:href="#Cmr10-72"/>
      <use transform="translate(457.694368 0)" xlink:href="#Cmr10-122"/>
      <use transform="translate(502.079134 0)" xlink:href="#Cmr10-41"/>
     </g>
    </g>
   </g>
   <g id="matplotlib.axis_2">
    <g id="ytick_1">
     <g id="line2d_10">
      <defs>
       <path d="M 0 0 
L -3.5 0 
" id="m1eabdc0684" style="stroke:#000000;stroke-width:0.8;"/>
      </defs>
      <g>
       <use style="stroke:#000000;stroke-width:0.8;" x="36.758125" xlink:href="#m1eabdc0684" y="15.783708"/>
      </g>
     </g>
     <g id="text_11">
      <!-- $10^{-1}$ -->
      <g transform="translate(13.678125 18.823083)scale(0.08 -0.08)">
       <defs>
        <path d="M 9.28125 0 
L 9.28125 3.515625 
Q 21.78125 3.515625 21.78125 6.6875 
L 21.78125 59.1875 
Q 16.609375 56.6875 8.6875 56.6875 
L 8.6875 60.203125 
Q 20.953125 60.203125 27.203125 66.609375 
L 28.609375 66.609375 
Q 28.953125 66.609375 29.265625 66.328125 
Q 29.59375 66.0625 29.59375 65.71875 
L 29.59375 6.6875 
Q 29.59375 3.515625 42.09375 3.515625 
L 42.09375 0 
z
" id="Cmr10-49"/>
        <path d="M 10.203125 23 
Q 9.375 23 8.828125 23.625 
Q 8.296875 24.265625 8.296875 25 
Q 8.296875 25.734375 8.828125 26.359375 
Q 9.375 27 10.203125 27 
L 67.578125 27 
Q 68.359375 27 68.875 26.359375 
Q 69.390625 25.734375 69.390625 25 
Q 69.390625 24.265625 68.875 23.625 
Q 68.359375 23 67.578125 23 
z
" id="Cmsy10-161"/>
       </defs>
       <use transform="translate(0 0.109375)" xlink:href="#Cmr10-49"/>
       <use transform="translate(50 0.109375)" xlink:href="#Cmr10-48"/>
       <use transform="translate(104.464141 38.373438)scale(0.7)" xlink:href="#Cmsy10-161"/>
       <use transform="translate(158.844023 38.373438)scale(0.7)" xlink:href="#Cmr10-49"/>
      </g>
     </g>
    </g>
    <g id="ytick_2">
     <g id="line2d_11">
      <g>
       <use style="stroke:#000000;stroke-width:0.8;" x="36.758125" xlink:href="#m1eabdc0684" y="35.503063"/>
      </g>
     </g>
     <g id="text_12">
      <!-- $10^{-2}$ -->
      <g transform="translate(13.678125 38.542438)scale(0.08 -0.08)">
       <use transform="translate(0 0.109375)" xlink:href="#Cmr10-49"/>
       <use transform="translate(50 0.109375)" xlink:href="#Cmr10-48"/>
       <use transform="translate(104.464141 38.373438)scale(0.7)" xlink:href="#Cmsy10-161"/>
       <use transform="translate(158.844023 38.373438)scale(0.7)" xlink:href="#Cmr10-50"/>
      </g>
     </g>
    </g>
    <g id="ytick_3">
     <g id="line2d_12">
      <g>
       <use style="stroke:#000000;stroke-width:0.8;" x="36.758125" xlink:href="#m1eabdc0684" y="55.222417"/>
      </g>
     </g>
     <g id="text_13">
      <!-- $10^{-3}$ -->
      <g transform="translate(13.678125 58.261792)scale(0.08 -0.08)">
       <defs>
        <path d="M 9.515625 7.71875 
Q 11.859375 4.296875 15.8125 2.640625 
Q 19.78125 0.984375 24.3125 0.984375 
Q 30.125 0.984375 32.5625 5.9375 
Q 35.015625 10.890625 35.015625 17.1875 
Q 35.015625 20.015625 34.5 22.84375 
Q 33.984375 25.6875 32.765625 28.125 
Q 31.546875 30.5625 29.421875 32.03125 
Q 27.296875 33.5 24.21875 33.5 
L 17.578125 33.5 
Q 16.703125 33.5 16.703125 34.421875 
L 16.703125 35.296875 
Q 16.703125 36.078125 17.578125 36.078125 
L 23.09375 36.53125 
Q 26.609375 36.53125 28.921875 39.15625 
Q 31.25 41.796875 32.328125 45.578125 
Q 33.40625 49.359375 33.40625 52.78125 
Q 33.40625 57.5625 31.15625 60.640625 
Q 28.90625 63.71875 24.3125 63.71875 
Q 20.515625 63.71875 17.046875 62.28125 
Q 13.578125 60.84375 11.53125 57.90625 
Q 11.71875 57.953125 11.859375 57.984375 
Q 12.015625 58.015625 12.203125 58.015625 
Q 14.453125 58.015625 15.96875 56.453125 
Q 17.484375 54.890625 17.484375 52.6875 
Q 17.484375 50.53125 15.96875 48.96875 
Q 14.453125 47.40625 12.203125 47.40625 
Q 10.015625 47.40625 8.453125 48.96875 
Q 6.890625 50.53125 6.890625 52.6875 
Q 6.890625 56.984375 9.46875 60.15625 
Q 12.0625 63.328125 16.140625 64.96875 
Q 20.21875 66.609375 24.3125 66.609375 
Q 27.34375 66.609375 30.703125 65.703125 
Q 34.078125 64.796875 36.8125 63.109375 
Q 39.546875 61.421875 41.28125 58.78125 
Q 43.015625 56.15625 43.015625 52.78125 
Q 43.015625 48.578125 41.140625 45.015625 
Q 39.265625 41.453125 35.984375 38.859375 
Q 32.71875 36.28125 28.8125 35.015625 
Q 33.15625 34.1875 37.0625 31.734375 
Q 40.96875 29.296875 43.328125 25.484375 
Q 45.703125 21.6875 45.703125 17.28125 
Q 45.703125 11.765625 42.671875 7.296875 
Q 39.65625 2.828125 34.71875 0.3125 
Q 29.78125 -2.203125 24.3125 -2.203125 
Q 19.625 -2.203125 14.90625 -0.40625 
Q 10.203125 1.375 7.203125 4.9375 
Q 4.203125 8.5 4.203125 13.484375 
Q 4.203125 15.96875 5.859375 17.625 
Q 7.515625 19.28125 10.015625 19.28125 
Q 11.625 19.28125 12.96875 18.53125 
Q 14.3125 17.78125 15.0625 16.40625 
Q 15.828125 15.046875 15.828125 13.484375 
Q 15.828125 11.03125 14.109375 9.375 
Q 12.40625 7.71875 10.015625 7.71875 
z
" id="Cmr10-51"/>
       </defs>
       <use transform="translate(0 0.109375)" xlink:href="#Cmr10-49"/>
       <use transform="translate(50 0.109375)" xlink:href="#Cmr10-48"/>
       <use transform="translate(104.464141 38.373438)scale(0.7)" xlink:href="#Cmsy10-161"/>
       <use transform="translate(158.844023 38.373438)scale(0.7)" xlink:href="#Cmr10-51"/>
      </g>
     </g>
    </g>
    <g id="ytick_4">
     <g id="line2d_13">
      <g>
       <use style="stroke:#000000;stroke-width:0.8;" x="36.758125" xlink:href="#m1eabdc0684" y="74.941772"/>
      </g>
     </g>
     <g id="text_14">
      <!-- $10^{-4}$ -->
      <g transform="translate(13.678125 77.981147)scale(0.08 -0.08)">
       <use transform="translate(0 0.109375)" xlink:href="#Cmr10-49"/>
       <use transform="translate(50 0.109375)" xlink:href="#Cmr10-48"/>
       <use transform="translate(104.464141 38.373438)scale(0.7)" xlink:href="#Cmsy10-161"/>
       <use transform="translate(158.844023 38.373438)scale(0.7)" xlink:href="#Cmr10-52"/>
      </g>
     </g>
    </g>
    <g id="ytick_5">
     <g id="line2d_14">
      <g>
       <use style="stroke:#000000;stroke-width:0.8;" x="36.758125" xlink:href="#m1eabdc0684" y="94.661126"/>
      </g>
     </g>
     <g id="text_15">
      <!-- $10^{-5}$ -->
      <g transform="translate(13.678125 97.700501)scale(0.08 -0.08)">
       <use transform="translate(0 0.109375)" xlink:href="#Cmr10-49"/>
       <use transform="translate(50 0.109375)" xlink:href="#Cmr10-48"/>
       <use transform="translate(104.464141 38.373438)scale(0.7)" xlink:href="#Cmsy10-161"/>
       <use transform="translate(158.844023 38.373438)scale(0.7)" xlink:href="#Cmr10-53"/>
      </g>
     </g>
    </g>
    <g id="ytick_6">
     <g id="line2d_15">
      <g>
       <use style="stroke:#000000;stroke-width:0.8;" x="36.758125" xlink:href="#m1eabdc0684" y="114.380481"/>
      </g>
     </g>
     <g id="text_16">
      <!-- $10^{-6}$ -->
      <g transform="translate(13.678125 117.419856)scale(0.08 -0.08)">
       <use transform="translate(0 0.109375)" xlink:href="#Cmr10-49"/>
       <use transform="translate(50 0.109375)" xlink:href="#Cmr10-48"/>
       <use transform="translate(104.464141 38.373438)scale(0.7)" xlink:href="#Cmsy10-161"/>
       <use transform="translate(158.844023 38.373438)scale(0.7)" xlink:href="#Cmr10-54"/>
      </g>
     </g>
    </g>
    <g id="ytick_7">
     <g id="line2d_16">
      <g>
       <use style="stroke:#000000;stroke-width:0.8;" x="36.758125" xlink:href="#m1eabdc0684" y="134.099835"/>
      </g>
     </g>
     <g id="text_17">
      <!-- $10^{-7}$ -->
      <g transform="translate(13.678125 137.13921)scale(0.08 -0.08)">
       <defs>
        <path d="M 17.390625 2.59375 
Q 17.390625 8.15625 18.359375 13.46875 
Q 19.34375 18.796875 21.21875 24 
Q 23.09375 29.203125 25.75 34.203125 
Q 28.421875 39.203125 31.59375 43.609375 
L 40.71875 56.296875 
L 29.296875 56.296875 
Q 11.53125 56.296875 10.984375 55.8125 
Q 9.671875 54.203125 8.5 46.578125 
L 5.609375 46.578125 
L 8.890625 67.578125 
L 11.8125 67.578125 
L 11.8125 67.28125 
Q 11.8125 65.484375 17.921875 64.9375 
Q 24.03125 64.40625 29.890625 64.40625 
L 48.484375 64.40625 
L 48.484375 61.8125 
Q 48.484375 61.71875 48.453125 61.671875 
Q 48.4375 61.625 48.390625 61.53125 
L 34.625 42.1875 
Q 29.546875 34.671875 28.265625 25.484375 
Q 27 16.3125 27 2.59375 
Q 27 0.640625 25.578125 -0.78125 
Q 24.171875 -2.203125 22.21875 -2.203125 
Q 20.21875 -2.203125 18.796875 -0.78125 
Q 17.390625 0.640625 17.390625 2.59375 
z
" id="Cmr10-55"/>
       </defs>
       <use transform="translate(0 0.43125)" xlink:href="#Cmr10-49"/>
       <use transform="translate(50 0.43125)" xlink:href="#Cmr10-48"/>
       <use transform="translate(104.464141 38.695313)scale(0.7)" xlink:href="#Cmsy10-161"/>
       <use transform="translate(158.844023 38.695313)scale(0.7)" xlink:href="#Cmr10-55"/>
      </g>
     </g>
    </g>
    <g id="ytick_8">
     <g id="line2d_17">
      <g>
       <use style="stroke:#000000;stroke-width:0.8;" x="36.758125" xlink:href="#m1eabdc0684" y="153.81919"/>
      </g>
     </g>
     <g id="text_18">
      <!-- $10^{-8}$ -->
      <g transform="translate(13.678125 156.858565)scale(0.08 -0.08)">
       <use transform="translate(0 0.109375)" xlink:href="#Cmr10-49"/>
       <use transform="translate(50 0.109375)" xlink:href="#Cmr10-48"/>
       <use transform="translate(104.464141 38.373438)scale(0.7)" xlink:href="#Cmsy10-161"/>
       <use transform="translate(158.844023 38.373438)scale(0.7)" xlink:href="#Cmr10-56"/>
      </g>
     </g>
    </g>
    <g id="ytick_9">
     <g id="line2d_18">
      <defs>
       <path d="M 0 0 
L -2 0 
" id="m51dff380a6" style="stroke:#000000;stroke-width:0.6;"/>
      </defs>
      <g>
       <use style="stroke:#000000;stroke-width:0.6;" x="36.758125" xlink:href="#m51dff380a6" y="147.883073"/>
      </g>
     </g>
    </g>
    <g id="ytick_10">
     <g id="line2d_19">
      <g>
       <use style="stroke:#000000;stroke-width:0.6;" x="36.758125" xlink:href="#m51dff380a6" y="144.410667"/>
      </g>
     </g>
    </g>
    <g id="ytick_11">
     <g id="line2d_20">
      <g>
       <use style="stroke:#000000;stroke-width:0.6;" x="36.758125" xlink:href="#m51dff380a6" y="141.946956"/>
      </g>
     </g>
    </g>
    <g id="ytick_12">
     <g id="line2d_21">
      <g>
       <use style="stroke:#000000;stroke-width:0.6;" x="36.758125" xlink:href="#m51dff380a6" y="140.035953"/>
      </g>
     </g>
    </g>
    <g id="ytick_13">
     <g id="line2d_22">
      <g>
       <use style="stroke:#000000;stroke-width:0.6;" x="36.758125" xlink:href="#m51dff380a6" y="138.47455"/>
      </g>
     </g>
    </g>
    <g id="ytick_14">
     <g id="line2d_23">
      <g>
       <use style="stroke:#000000;stroke-width:0.6;" x="36.758125" xlink:href="#m51dff380a6" y="137.154402"/>
      </g>
     </g>
    </g>
    <g id="ytick_15">
     <g id="line2d_24">
      <g>
       <use style="stroke:#000000;stroke-width:0.6;" x="36.758125" xlink:href="#m51dff380a6" y="136.010838"/>
      </g>
     </g>
    </g>
    <g id="ytick_16">
     <g id="line2d_25">
      <g>
       <use style="stroke:#000000;stroke-width:0.6;" x="36.758125" xlink:href="#m51dff380a6" y="135.002144"/>
      </g>
     </g>
    </g>
    <g id="ytick_17">
     <g id="line2d_26">
      <g>
       <use style="stroke:#000000;stroke-width:0.6;" x="36.758125" xlink:href="#m51dff380a6" y="128.163718"/>
      </g>
     </g>
    </g>
    <g id="ytick_18">
     <g id="line2d_27">
      <g>
       <use style="stroke:#000000;stroke-width:0.6;" x="36.758125" xlink:href="#m51dff380a6" y="124.691312"/>
      </g>
     </g>
    </g>
    <g id="ytick_19">
     <g id="line2d_28">
      <g>
       <use style="stroke:#000000;stroke-width:0.6;" x="36.758125" xlink:href="#m51dff380a6" y="122.227601"/>
      </g>
     </g>
    </g>
    <g id="ytick_20">
     <g id="line2d_29">
      <g>
       <use style="stroke:#000000;stroke-width:0.6;" x="36.758125" xlink:href="#m51dff380a6" y="120.316598"/>
      </g>
     </g>
    </g>
    <g id="ytick_21">
     <g id="line2d_30">
      <g>
       <use style="stroke:#000000;stroke-width:0.6;" x="36.758125" xlink:href="#m51dff380a6" y="118.755195"/>
      </g>
     </g>
    </g>
    <g id="ytick_22">
     <g id="line2d_31">
      <g>
       <use style="stroke:#000000;stroke-width:0.6;" x="36.758125" xlink:href="#m51dff380a6" y="117.435048"/>
      </g>
     </g>
    </g>
    <g id="ytick_23">
     <g id="line2d_32">
      <g>
       <use style="stroke:#000000;stroke-width:0.6;" x="36.758125" xlink:href="#m51dff380a6" y="116.291484"/>
      </g>
     </g>
    </g>
    <g id="ytick_24">
     <g id="line2d_33">
      <g>
       <use style="stroke:#000000;stroke-width:0.6;" x="36.758125" xlink:href="#m51dff380a6" y="115.282789"/>
      </g>
     </g>
    </g>
    <g id="ytick_25">
     <g id="line2d_34">
      <g>
       <use style="stroke:#000000;stroke-width:0.6;" x="36.758125" xlink:href="#m51dff380a6" y="108.444364"/>
      </g>
     </g>
    </g>
    <g id="ytick_26">
     <g id="line2d_35">
      <g>
       <use style="stroke:#000000;stroke-width:0.6;" x="36.758125" xlink:href="#m51dff380a6" y="104.971958"/>
      </g>
     </g>
    </g>
    <g id="ytick_27">
     <g id="line2d_36">
      <g>
       <use style="stroke:#000000;stroke-width:0.6;" x="36.758125" xlink:href="#m51dff380a6" y="102.508246"/>
      </g>
     </g>
    </g>
    <g id="ytick_28">
     <g id="line2d_37">
      <g>
       <use style="stroke:#000000;stroke-width:0.6;" x="36.758125" xlink:href="#m51dff380a6" y="100.597244"/>
      </g>
     </g>
    </g>
    <g id="ytick_29">
     <g id="line2d_38">
      <g>
       <use style="stroke:#000000;stroke-width:0.6;" x="36.758125" xlink:href="#m51dff380a6" y="99.03584"/>
      </g>
     </g>
    </g>
    <g id="ytick_30">
     <g id="line2d_39">
      <g>
       <use style="stroke:#000000;stroke-width:0.6;" x="36.758125" xlink:href="#m51dff380a6" y="97.715693"/>
      </g>
     </g>
    </g>
    <g id="ytick_31">
     <g id="line2d_40">
      <g>
       <use style="stroke:#000000;stroke-width:0.6;" x="36.758125" xlink:href="#m51dff380a6" y="96.572129"/>
      </g>
     </g>
    </g>
    <g id="ytick_32">
     <g id="line2d_41">
      <g>
       <use style="stroke:#000000;stroke-width:0.6;" x="36.758125" xlink:href="#m51dff380a6" y="95.563434"/>
      </g>
     </g>
    </g>
    <g id="ytick_33">
     <g id="line2d_42">
      <g>
       <use style="stroke:#000000;stroke-width:0.6;" x="36.758125" xlink:href="#m51dff380a6" y="88.725009"/>
      </g>
     </g>
    </g>
    <g id="ytick_34">
     <g id="line2d_43">
      <g>
       <use style="stroke:#000000;stroke-width:0.6;" x="36.758125" xlink:href="#m51dff380a6" y="85.252603"/>
      </g>
     </g>
    </g>
    <g id="ytick_35">
     <g id="line2d_44">
      <g>
       <use style="stroke:#000000;stroke-width:0.6;" x="36.758125" xlink:href="#m51dff380a6" y="82.788892"/>
      </g>
     </g>
    </g>
    <g id="ytick_36">
     <g id="line2d_45">
      <g>
       <use style="stroke:#000000;stroke-width:0.6;" x="36.758125" xlink:href="#m51dff380a6" y="80.877889"/>
      </g>
     </g>
    </g>
    <g id="ytick_37">
     <g id="line2d_46">
      <g>
       <use style="stroke:#000000;stroke-width:0.6;" x="36.758125" xlink:href="#m51dff380a6" y="79.316486"/>
      </g>
     </g>
    </g>
    <g id="ytick_38">
     <g id="line2d_47">
      <g>
       <use style="stroke:#000000;stroke-width:0.6;" x="36.758125" xlink:href="#m51dff380a6" y="77.996338"/>
      </g>
     </g>
    </g>
    <g id="ytick_39">
     <g id="line2d_48">
      <g>
       <use style="stroke:#000000;stroke-width:0.6;" x="36.758125" xlink:href="#m51dff380a6" y="76.852775"/>
      </g>
     </g>
    </g>
    <g id="ytick_40">
     <g id="line2d_49">
      <g>
       <use style="stroke:#000000;stroke-width:0.6;" x="36.758125" xlink:href="#m51dff380a6" y="75.84408"/>
      </g>
     </g>
    </g>
    <g id="ytick_41">
     <g id="line2d_50">
      <g>
       <use style="stroke:#000000;stroke-width:0.6;" x="36.758125" xlink:href="#m51dff380a6" y="69.005655"/>
      </g>
     </g>
    </g>
    <g id="ytick_42">
     <g id="line2d_51">
      <g>
       <use style="stroke:#000000;stroke-width:0.6;" x="36.758125" xlink:href="#m51dff380a6" y="65.533249"/>
      </g>
     </g>
    </g>
    <g id="ytick_43">
     <g id="line2d_52">
      <g>
       <use style="stroke:#000000;stroke-width:0.6;" x="36.758125" xlink:href="#m51dff380a6" y="63.069537"/>
      </g>
     </g>
    </g>
    <g id="ytick_44">
     <g id="line2d_53">
      <g>
       <use style="stroke:#000000;stroke-width:0.6;" x="36.758125" xlink:href="#m51dff380a6" y="61.158534"/>
      </g>
     </g>
    </g>
    <g id="ytick_45">
     <g id="line2d_54">
      <g>
       <use style="stroke:#000000;stroke-width:0.6;" x="36.758125" xlink:href="#m51dff380a6" y="59.597131"/>
      </g>
     </g>
    </g>
    <g id="ytick_46">
     <g id="line2d_55">
      <g>
       <use style="stroke:#000000;stroke-width:0.6;" x="36.758125" xlink:href="#m51dff380a6" y="58.276984"/>
      </g>
     </g>
    </g>
    <g id="ytick_47">
     <g id="line2d_56">
      <g>
       <use style="stroke:#000000;stroke-width:0.6;" x="36.758125" xlink:href="#m51dff380a6" y="57.13342"/>
      </g>
     </g>
    </g>
    <g id="ytick_48">
     <g id="line2d_57">
      <g>
       <use style="stroke:#000000;stroke-width:0.6;" x="36.758125" xlink:href="#m51dff380a6" y="56.124725"/>
      </g>
     </g>
    </g>
    <g id="ytick_49">
     <g id="line2d_58">
      <g>
       <use style="stroke:#000000;stroke-width:0.6;" x="36.758125" xlink:href="#m51dff380a6" y="49.2863"/>
      </g>
     </g>
    </g>
    <g id="ytick_50">
     <g id="line2d_59">
      <g>
       <use style="stroke:#000000;stroke-width:0.6;" x="36.758125" xlink:href="#m51dff380a6" y="45.813894"/>
      </g>
     </g>
    </g>
    <g id="ytick_51">
     <g id="line2d_60">
      <g>
       <use style="stroke:#000000;stroke-width:0.6;" x="36.758125" xlink:href="#m51dff380a6" y="43.350183"/>
      </g>
     </g>
    </g>
    <g id="ytick_52">
     <g id="line2d_61">
      <g>
       <use style="stroke:#000000;stroke-width:0.6;" x="36.758125" xlink:href="#m51dff380a6" y="41.43918"/>
      </g>
     </g>
    </g>
    <g id="ytick_53">
     <g id="line2d_62">
      <g>
       <use style="stroke:#000000;stroke-width:0.6;" x="36.758125" xlink:href="#m51dff380a6" y="39.877777"/>
      </g>
     </g>
    </g>
    <g id="ytick_54">
     <g id="line2d_63">
      <g>
       <use style="stroke:#000000;stroke-width:0.6;" x="36.758125" xlink:href="#m51dff380a6" y="38.557629"/>
      </g>
     </g>
    </g>
    <g id="ytick_55">
     <g id="line2d_64">
      <g>
       <use style="stroke:#000000;stroke-width:0.6;" x="36.758125" xlink:href="#m51dff380a6" y="37.414066"/>
      </g>
     </g>
    </g>
    <g id="ytick_56">
     <g id="line2d_65">
      <g>
       <use style="stroke:#000000;stroke-width:0.6;" x="36.758125" xlink:href="#m51dff380a6" y="36.405371"/>
      </g>
     </g>
    </g>
    <g id="ytick_57">
     <g id="line2d_66">
      <g>
       <use style="stroke:#000000;stroke-width:0.6;" x="36.758125" xlink:href="#m51dff380a6" y="29.566945"/>
      </g>
     </g>
    </g>
    <g id="ytick_58">
     <g id="line2d_67">
      <g>
       <use style="stroke:#000000;stroke-width:0.6;" x="36.758125" xlink:href="#m51dff380a6" y="26.094539"/>
      </g>
     </g>
    </g>
    <g id="ytick_59">
     <g id="line2d_68">
      <g>
       <use style="stroke:#000000;stroke-width:0.6;" x="36.758125" xlink:href="#m51dff380a6" y="23.630828"/>
      </g>
     </g>
    </g>
    <g id="ytick_60">
     <g id="line2d_69">
      <g>
       <use style="stroke:#000000;stroke-width:0.6;" x="36.758125" xlink:href="#m51dff380a6" y="21.719825"/>
      </g>
     </g>
    </g>
    <g id="ytick_61">
     <g id="line2d_70">
      <g>
       <use style="stroke:#000000;stroke-width:0.6;" x="36.758125" xlink:href="#m51dff380a6" y="20.158422"/>
      </g>
     </g>
    </g>
    <g id="ytick_62">
     <g id="line2d_71">
      <g>
       <use style="stroke:#000000;stroke-width:0.6;" x="36.758125" xlink:href="#m51dff380a6" y="18.838275"/>
      </g>
     </g>
    </g>
    <g id="ytick_63">
     <g id="line2d_72">
      <g>
       <use style="stroke:#000000;stroke-width:0.6;" x="36.758125" xlink:href="#m51dff380a6" y="17.694711"/>
      </g>
     </g>
    </g>
    <g id="ytick_64">
     <g id="line2d_73">
      <g>
       <use style="stroke:#000000;stroke-width:0.6;" x="36.758125" xlink:href="#m51dff380a6" y="16.686016"/>
      </g>
     </g>
    </g>
    <g id="ytick_65">
     <g id="line2d_74">
      <g>
       <use style="stroke:#000000;stroke-width:0.6;" x="36.758125" xlink:href="#m51dff380a6" y="9.847591"/>
      </g>
     </g>
    </g>
    <g id="ytick_66">
     <g id="line2d_75">
      <g>
       <use style="stroke:#000000;stroke-width:0.6;" x="36.758125" xlink:href="#m51dff380a6" y="6.375185"/>
      </g>
     </g>
    </g>
    <g id="ytick_67">
     <g id="line2d_76">
      <g>
       <use style="stroke:#000000;stroke-width:0.6;" x="36.758125" xlink:href="#m51dff380a6" y="3.911474"/>
      </g>
     </g>
    </g>
    <g id="ytick_68">
     <g id="line2d_77">
      <g>
       <use style="stroke:#000000;stroke-width:0.6;" x="36.758125" xlink:href="#m51dff380a6" y="2.000471"/>
      </g>
     </g>
    </g>
    <g id="ytick_69">
     <g id="line2d_78">
      <g>
       <use style="stroke:#000000;stroke-width:0.6;" x="36.758125" xlink:href="#m51dff380a6" y="0.439068"/>
      </g>
     </g>
    </g>
    <g id="text_19">
     <!-- $L_1$ -->
     <g transform="translate(7.598438 82.409595)rotate(-90)scale(0.1 -0.1)">
      <defs>
       <path d="M 4.6875 0 
Q 3.71875 0 3.71875 1.3125 
Q 3.765625 1.5625 3.90625 2.171875 
Q 4.046875 2.78125 4.3125 3.140625 
Q 4.59375 3.515625 4.984375 3.515625 
Q 11.078125 3.515625 13.484375 4.203125 
Q 14.796875 4.640625 15.375 6.890625 
L 29.109375 61.8125 
Q 29.296875 62.796875 29.296875 63.1875 
Q 29.296875 64.265625 28.078125 64.40625 
Q 26.21875 64.796875 20.90625 64.796875 
Q 19.921875 64.796875 19.921875 66.109375 
Q 20.265625 67.390625 20.453125 67.84375 
Q 20.65625 68.3125 21.578125 68.3125 
L 51.125 68.3125 
Q 52 68.3125 52 67 
Q 51.859375 65.96875 51.65625 65.375 
Q 51.46875 64.796875 50.6875 64.796875 
Q 43.3125 64.796875 40.828125 64.3125 
Q 38.375 63.875 37.796875 61.375 
L 24.125 6.5 
Q 23.6875 5.28125 23.6875 4.296875 
Q 23.6875 3.515625 27.09375 3.515625 
L 36.375 3.515625 
Q 44.234375 3.515625 49.109375 6.640625 
Q 54 9.765625 56.34375 13.6875 
Q 58.6875 17.625 60.265625 21.84375 
Q 61.859375 26.078125 62.59375 26.21875 
L 63.484375 26.21875 
Q 64.5 26.21875 64.5 24.90625 
L 55.609375 0.6875 
Q 55.46875 0 54.6875 0 
z
" id="Cmmi10-76"/>
      </defs>
      <use transform="translate(0 0.6875)" xlink:href="#Cmmi10-76"/>
      <use transform="translate(68.017578 -16.31875)scale(0.7)" xlink:href="#Cmr10-49"/>
     </g>
    </g>
   </g>
   <g id="line2d_79">
    <path clip-path="url(#pf2e981f36b)" d="M 45.909097 128.523447 
L 46.828793 129.249504 
L 47.748489 128.698699 
L 48.668185 128.699609 
L 49.58788 125.095015 
L 50.507576 120.392628 
L 51.427272 119.280836 
L 52.346968 120.610604 
L 53.266663 120.515487 
L 54.186359 119.519123 
L 55.106055 122.020192 
L 56.025751 126.410685 
L 57.865142 132.642604 
L 58.784838 98.870165 
L 59.704533 128.2301 
L 60.624229 126.503793 
L 61.543925 123.294917 
L 62.463621 118.962788 
L 63.383316 115.38407 
L 64.303012 111.084837 
L 67.981795 78.379174 
L 68.901491 68.53902 
L 69.821186 48.705287 
L 71.660578 72.265305 
L 72.580274 79.749354 
L 73.499969 94.397804 
L 74.419665 97.585594 
L 75.339361 104.549773 
L 76.259057 113.56054 
L 77.178752 116.723804 
L 78.098448 123.811796 
L 79.018144 127.363016 
L 79.937839 131.927456 
L 80.857535 134.714484 
L 82.696927 136.505876 
L 84.536318 132.789489 
L 86.37571 130.682098 
L 87.295405 130.393373 
L 88.215101 130.887884 
L 89.134797 132.595648 
L 90.054492 133.708259 
L 90.974188 135.219774 
L 91.893884 137.765347 
L 92.81358 139.397575 
L 93.733275 139.284463 
L 94.652971 137.32571 
L 95.572667 136.741605 
L 96.492363 134.969033 
L 97.412058 132.670105 
L 99.25145 131.91964 
L 101.090841 133.462478 
L 102.010537 133.895506 
L 102.930233 136.752455 
L 103.849928 138.436452 
L 104.769624 135.165849 
L 105.68932 134.753959 
L 106.609016 132.223315 
L 108.448407 129.085567 
L 110.287799 120.461706 
L 111.207494 115.194408 
L 112.12719 103.604747 
L 113.046886 75.780755 
L 113.966581 110.653802 
L 114.886277 113.540769 
L 115.805973 110.552538 
L 117.645364 103.295012 
L 118.56506 98.710248 
L 119.484756 88.721089 
L 120.404452 86.276371 
L 122.243843 72.893679 
L 125.922626 49.011754 
L 126.842322 44.554878 
L 127.762017 37.87897 
L 128.681713 29.336021 
L 129.601409 8.056984 
L 130.521105 9.363099 
L 131.4408 29.510473 
L 132.360496 33.498726 
L 133.280192 41.291808 
L 134.199887 57.406508 
L 135.119583 56.864536 
L 136.039279 59.937403 
L 136.958975 73.386978 
L 137.87867 75.716357 
L 138.798366 78.770672 
L 139.718062 90.29265 
L 140.637758 94.262403 
L 141.557453 95.314895 
L 142.477149 105.818742 
L 143.396845 108.86908 
L 144.31654 109.419613 
L 145.236236 115.933488 
L 146.155932 121.284143 
L 147.075628 120.881705 
L 147.995323 126.65644 
L 148.915019 126.537797 
L 149.834715 126.843116 
L 150.754411 131.103508 
L 151.674106 133.274688 
L 152.593802 132.318738 
L 153.513498 136.790637 
L 154.433193 137.359402 
L 155.352889 134.397473 
L 156.272585 137.287522 
L 157.192281 139.200891 
L 158.111976 137.0187 
L 159.031672 138.310983 
L 159.951368 136.522914 
L 160.871064 139.277099 
L 161.790759 141.221201 
L 162.710455 137.403284 
L 163.630151 138.842415 
L 164.549846 142.008287 
L 165.469542 140.674789 
L 166.389238 143.265678 
L 167.308934 138.163165 
L 168.228629 140.371 
L 169.148325 135.948243 
L 170.068021 138.800865 
L 170.987717 136.835275 
L 171.907412 137.323877 
L 172.827108 137.226637 
L 173.746804 138.230409 
L 174.6665 137.843252 
L 175.586195 141.144961 
L 176.505891 139.333579 
L 177.425587 144.029968 
L 178.345282 139.758989 
L 179.264978 136.117564 
L 180.184674 142.302589 
L 181.10437 135.210979 
L 182.024065 135.04345 
L 182.943761 141.658065 
L 183.863457 132.932014 
L 185.702848 141.983165 
L 186.622544 136.70086 
L 187.54224 137.293025 
L 188.461935 144.225261 
L 189.381631 141.997037 
L 190.301327 140.450528 
L 191.221023 135.264173 
L 192.140718 134.162992 
L 193.060414 138.409886 
L 193.98011 137.306654 
L 194.899806 130.547933 
L 195.819501 129.476416 
L 196.739197 134.686674 
L 197.658893 140.954424 
L 198.578588 139.705371 
L 199.498284 138.785756 
L 200.41798 137.587905 
L 201.337676 136.987635 
L 202.257371 133.505191 
L 203.177067 130.902815 
L 204.096763 132.141493 
L 205.936154 139.083003 
L 206.85585 133.749234 
L 207.775546 129.270086 
L 208.695241 128.102838 
L 209.614937 130.289842 
L 210.534633 133.3694 
L 211.454329 134.945424 
L 212.374024 134.823309 
L 214.213416 131.448413 
L 215.133112 131.465028 
L 216.052807 134.064325 
L 216.972503 137.093513 
L 217.892199 133.352668 
L 218.811894 128.097038 
L 219.73159 125.670865 
L 220.651286 125.910733 
L 221.570982 128.225165 
L 222.490677 131.791756 
L 223.410373 133.149302 
L 224.330069 130.861829 
L 225.249765 127.259743 
L 226.16946 124.164729 
L 227.089156 123.72749 
L 228.008852 127.530598 
L 228.928547 134.146363 
L 228.928547 134.146363 
" style="fill:none;stroke:#bc141a;stroke-linecap:square;stroke-width:1.5;"/>
    <defs>
     <path d="M -1.5 3 
L 0 1.5 
L 1.5 3 
L 3 1.5 
L 1.5 0 
L 3 -1.5 
L 1.5 -3 
L 0 -1.5 
L -1.5 -3 
L -3 -1.5 
L -1.5 0 
L -3 1.5 
z
" id="mbb2f945863" style="stroke:#bc141a;stroke-linejoin:miter;"/>
    </defs>
    <g clip-path="url(#pf2e981f36b)">
     <use style="fill:#bc141a;stroke:#bc141a;stroke-linejoin:miter;" x="45.909097" xlink:href="#mbb2f945863" y="128.523447"/>
     <use style="fill:#bc141a;stroke:#bc141a;stroke-linejoin:miter;" x="46.828793" xlink:href="#mbb2f945863" y="129.249504"/>
     <use style="fill:#bc141a;stroke:#bc141a;stroke-linejoin:miter;" x="47.748489" xlink:href="#mbb2f945863" y="128.698699"/>
     <use style="fill:#bc141a;stroke:#bc141a;stroke-linejoin:miter;" x="48.668185" xlink:href="#mbb2f945863" y="128.699609"/>
     <use style="fill:#bc141a;stroke:#bc141a;stroke-linejoin:miter;" x="49.58788" xlink:href="#mbb2f945863" y="125.095015"/>
     <use style="fill:#bc141a;stroke:#bc141a;stroke-linejoin:miter;" x="50.507576" xlink:href="#mbb2f945863" y="120.392628"/>
     <use style="fill:#bc141a;stroke:#bc141a;stroke-linejoin:miter;" x="51.427272" xlink:href="#mbb2f945863" y="119.280836"/>
     <use style="fill:#bc141a;stroke:#bc141a;stroke-linejoin:miter;" x="52.346968" xlink:href="#mbb2f945863" y="120.610604"/>
     <use style="fill:#bc141a;stroke:#bc141a;stroke-linejoin:miter;" x="53.266663" xlink:href="#mbb2f945863" y="120.515487"/>
     <use style="fill:#bc141a;stroke:#bc141a;stroke-linejoin:miter;" x="54.186359" xlink:href="#mbb2f945863" y="119.519123"/>
     <use style="fill:#bc141a;stroke:#bc141a;stroke-linejoin:miter;" x="55.106055" xlink:href="#mbb2f945863" y="122.020192"/>
     <use style="fill:#bc141a;stroke:#bc141a;stroke-linejoin:miter;" x="56.025751" xlink:href="#mbb2f945863" y="126.410685"/>
     <use style="fill:#bc141a;stroke:#bc141a;stroke-linejoin:miter;" x="56.945446" xlink:href="#mbb2f945863" y="129.64575"/>
     <use style="fill:#bc141a;stroke:#bc141a;stroke-linejoin:miter;" x="57.865142" xlink:href="#mbb2f945863" y="132.642604"/>
     <use style="fill:#bc141a;stroke:#bc141a;stroke-linejoin:miter;" x="58.784838" xlink:href="#mbb2f945863" y="98.870165"/>
     <use style="fill:#bc141a;stroke:#bc141a;stroke-linejoin:miter;" x="59.704533" xlink:href="#mbb2f945863" y="128.2301"/>
     <use style="fill:#bc141a;stroke:#bc141a;stroke-linejoin:miter;" x="60.624229" xlink:href="#mbb2f945863" y="126.503793"/>
     <use style="fill:#bc141a;stroke:#bc141a;stroke-linejoin:miter;" x="61.543925" xlink:href="#mbb2f945863" y="123.294917"/>
     <use style="fill:#bc141a;stroke:#bc141a;stroke-linejoin:miter;" x="62.463621" xlink:href="#mbb2f945863" y="118.962788"/>
     <use style="fill:#bc141a;stroke:#bc141a;stroke-linejoin:miter;" x="63.383316" xlink:href="#mbb2f945863" y="115.38407"/>
     <use style="fill:#bc141a;stroke:#bc141a;stroke-linejoin:miter;" x="64.303012" xlink:href="#mbb2f945863" y="111.084837"/>
     <use style="fill:#bc141a;stroke:#bc141a;stroke-linejoin:miter;" x="65.222708" xlink:href="#mbb2f945863" y="103.051707"/>
     <use style="fill:#bc141a;stroke:#bc141a;stroke-linejoin:miter;" x="66.142404" xlink:href="#mbb2f945863" y="94.641276"/>
     <use style="fill:#bc141a;stroke:#bc141a;stroke-linejoin:miter;" x="67.062099" xlink:href="#mbb2f945863" y="86.667148"/>
     <use style="fill:#bc141a;stroke:#bc141a;stroke-linejoin:miter;" x="67.981795" xlink:href="#mbb2f945863" y="78.379174"/>
     <use style="fill:#bc141a;stroke:#bc141a;stroke-linejoin:miter;" x="68.901491" xlink:href="#mbb2f945863" y="68.53902"/>
     <use style="fill:#bc141a;stroke:#bc141a;stroke-linejoin:miter;" x="69.821186" xlink:href="#mbb2f945863" y="48.705287"/>
     <use style="fill:#bc141a;stroke:#bc141a;stroke-linejoin:miter;" x="70.740882" xlink:href="#mbb2f945863" y="60.770686"/>
     <use style="fill:#bc141a;stroke:#bc141a;stroke-linejoin:miter;" x="71.660578" xlink:href="#mbb2f945863" y="72.265305"/>
     <use style="fill:#bc141a;stroke:#bc141a;stroke-linejoin:miter;" x="72.580274" xlink:href="#mbb2f945863" y="79.749354"/>
     <use style="fill:#bc141a;stroke:#bc141a;stroke-linejoin:miter;" x="73.499969" xlink:href="#mbb2f945863" y="94.397804"/>
     <use style="fill:#bc141a;stroke:#bc141a;stroke-linejoin:miter;" x="74.419665" xlink:href="#mbb2f945863" y="97.585594"/>
     <use style="fill:#bc141a;stroke:#bc141a;stroke-linejoin:miter;" x="75.339361" xlink:href="#mbb2f945863" y="104.549773"/>
     <use style="fill:#bc141a;stroke:#bc141a;stroke-linejoin:miter;" x="76.259057" xlink:href="#mbb2f945863" y="113.56054"/>
     <use style="fill:#bc141a;stroke:#bc141a;stroke-linejoin:miter;" x="77.178752" xlink:href="#mbb2f945863" y="116.723804"/>
     <use style="fill:#bc141a;stroke:#bc141a;stroke-linejoin:miter;" x="78.098448" xlink:href="#mbb2f945863" y="123.811796"/>
     <use style="fill:#bc141a;stroke:#bc141a;stroke-linejoin:miter;" x="79.018144" xlink:href="#mbb2f945863" y="127.363016"/>
     <use style="fill:#bc141a;stroke:#bc141a;stroke-linejoin:miter;" x="79.937839" xlink:href="#mbb2f945863" y="131.927456"/>
     <use style="fill:#bc141a;stroke:#bc141a;stroke-linejoin:miter;" x="80.857535" xlink:href="#mbb2f945863" y="134.714484"/>
     <use style="fill:#bc141a;stroke:#bc141a;stroke-linejoin:miter;" x="81.777231" xlink:href="#mbb2f945863" y="135.690085"/>
     <use style="fill:#bc141a;stroke:#bc141a;stroke-linejoin:miter;" x="82.696927" xlink:href="#mbb2f945863" y="136.505876"/>
     <use style="fill:#bc141a;stroke:#bc141a;stroke-linejoin:miter;" x="83.616622" xlink:href="#mbb2f945863" y="134.550057"/>
     <use style="fill:#bc141a;stroke:#bc141a;stroke-linejoin:miter;" x="84.536318" xlink:href="#mbb2f945863" y="132.789489"/>
     <use style="fill:#bc141a;stroke:#bc141a;stroke-linejoin:miter;" x="85.456014" xlink:href="#mbb2f945863" y="131.769453"/>
     <use style="fill:#bc141a;stroke:#bc141a;stroke-linejoin:miter;" x="86.37571" xlink:href="#mbb2f945863" y="130.682098"/>
     <use style="fill:#bc141a;stroke:#bc141a;stroke-linejoin:miter;" x="87.295405" xlink:href="#mbb2f945863" y="130.393373"/>
     <use style="fill:#bc141a;stroke:#bc141a;stroke-linejoin:miter;" x="88.215101" xlink:href="#mbb2f945863" y="130.887884"/>
     <use style="fill:#bc141a;stroke:#bc141a;stroke-linejoin:miter;" x="89.134797" xlink:href="#mbb2f945863" y="132.595648"/>
     <use style="fill:#bc141a;stroke:#bc141a;stroke-linejoin:miter;" x="90.054492" xlink:href="#mbb2f945863" y="133.708259"/>
     <use style="fill:#bc141a;stroke:#bc141a;stroke-linejoin:miter;" x="90.974188" xlink:href="#mbb2f945863" y="135.219774"/>
     <use style="fill:#bc141a;stroke:#bc141a;stroke-linejoin:miter;" x="91.893884" xlink:href="#mbb2f945863" y="137.765347"/>
     <use style="fill:#bc141a;stroke:#bc141a;stroke-linejoin:miter;" x="92.81358" xlink:href="#mbb2f945863" y="139.397575"/>
     <use style="fill:#bc141a;stroke:#bc141a;stroke-linejoin:miter;" x="93.733275" xlink:href="#mbb2f945863" y="139.284463"/>
     <use style="fill:#bc141a;stroke:#bc141a;stroke-linejoin:miter;" x="94.652971" xlink:href="#mbb2f945863" y="137.32571"/>
     <use style="fill:#bc141a;stroke:#bc141a;stroke-linejoin:miter;" x="95.572667" xlink:href="#mbb2f945863" y="136.741605"/>
     <use style="fill:#bc141a;stroke:#bc141a;stroke-linejoin:miter;" x="96.492363" xlink:href="#mbb2f945863" y="134.969033"/>
     <use style="fill:#bc141a;stroke:#bc141a;stroke-linejoin:miter;" x="97.412058" xlink:href="#mbb2f945863" y="132.670105"/>
     <use style="fill:#bc141a;stroke:#bc141a;stroke-linejoin:miter;" x="98.331754" xlink:href="#mbb2f945863" y="132.333987"/>
     <use style="fill:#bc141a;stroke:#bc141a;stroke-linejoin:miter;" x="99.25145" xlink:href="#mbb2f945863" y="131.91964"/>
     <use style="fill:#bc141a;stroke:#bc141a;stroke-linejoin:miter;" x="100.171145" xlink:href="#mbb2f945863" y="132.708105"/>
     <use style="fill:#bc141a;stroke:#bc141a;stroke-linejoin:miter;" x="101.090841" xlink:href="#mbb2f945863" y="133.462478"/>
     <use style="fill:#bc141a;stroke:#bc141a;stroke-linejoin:miter;" x="102.010537" xlink:href="#mbb2f945863" y="133.895506"/>
     <use style="fill:#bc141a;stroke:#bc141a;stroke-linejoin:miter;" x="102.930233" xlink:href="#mbb2f945863" y="136.752455"/>
     <use style="fill:#bc141a;stroke:#bc141a;stroke-linejoin:miter;" x="103.849928" xlink:href="#mbb2f945863" y="138.436452"/>
     <use style="fill:#bc141a;stroke:#bc141a;stroke-linejoin:miter;" x="104.769624" xlink:href="#mbb2f945863" y="135.165849"/>
     <use style="fill:#bc141a;stroke:#bc141a;stroke-linejoin:miter;" x="105.68932" xlink:href="#mbb2f945863" y="134.753959"/>
     <use style="fill:#bc141a;stroke:#bc141a;stroke-linejoin:miter;" x="106.609016" xlink:href="#mbb2f945863" y="132.223315"/>
     <use style="fill:#bc141a;stroke:#bc141a;stroke-linejoin:miter;" x="107.528711" xlink:href="#mbb2f945863" y="130.651407"/>
     <use style="fill:#bc141a;stroke:#bc141a;stroke-linejoin:miter;" x="108.448407" xlink:href="#mbb2f945863" y="129.085567"/>
     <use style="fill:#bc141a;stroke:#bc141a;stroke-linejoin:miter;" x="109.368103" xlink:href="#mbb2f945863" y="124.722326"/>
     <use style="fill:#bc141a;stroke:#bc141a;stroke-linejoin:miter;" x="110.287799" xlink:href="#mbb2f945863" y="120.461706"/>
     <use style="fill:#bc141a;stroke:#bc141a;stroke-linejoin:miter;" x="111.207494" xlink:href="#mbb2f945863" y="115.194408"/>
     <use style="fill:#bc141a;stroke:#bc141a;stroke-linejoin:miter;" x="112.12719" xlink:href="#mbb2f945863" y="103.604747"/>
     <use style="fill:#bc141a;stroke:#bc141a;stroke-linejoin:miter;" x="113.046886" xlink:href="#mbb2f945863" y="75.780755"/>
     <use style="fill:#bc141a;stroke:#bc141a;stroke-linejoin:miter;" x="113.966581" xlink:href="#mbb2f945863" y="110.653802"/>
     <use style="fill:#bc141a;stroke:#bc141a;stroke-linejoin:miter;" x="114.886277" xlink:href="#mbb2f945863" y="113.540769"/>
     <use style="fill:#bc141a;stroke:#bc141a;stroke-linejoin:miter;" x="115.805973" xlink:href="#mbb2f945863" y="110.552538"/>
     <use style="fill:#bc141a;stroke:#bc141a;stroke-linejoin:miter;" x="116.725669" xlink:href="#mbb2f945863" y="107.0649"/>
     <use style="fill:#bc141a;stroke:#bc141a;stroke-linejoin:miter;" x="117.645364" xlink:href="#mbb2f945863" y="103.295012"/>
     <use style="fill:#bc141a;stroke:#bc141a;stroke-linejoin:miter;" x="118.56506" xlink:href="#mbb2f945863" y="98.710248"/>
     <use style="fill:#bc141a;stroke:#bc141a;stroke-linejoin:miter;" x="119.484756" xlink:href="#mbb2f945863" y="88.721089"/>
     <use style="fill:#bc141a;stroke:#bc141a;stroke-linejoin:miter;" x="120.404452" xlink:href="#mbb2f945863" y="86.276371"/>
     <use style="fill:#bc141a;stroke:#bc141a;stroke-linejoin:miter;" x="121.324147" xlink:href="#mbb2f945863" y="79.349275"/>
     <use style="fill:#bc141a;stroke:#bc141a;stroke-linejoin:miter;" x="122.243843" xlink:href="#mbb2f945863" y="72.893679"/>
     <use style="fill:#bc141a;stroke:#bc141a;stroke-linejoin:miter;" x="123.163539" xlink:href="#mbb2f945863" y="66.804153"/>
     <use style="fill:#bc141a;stroke:#bc141a;stroke-linejoin:miter;" x="124.083234" xlink:href="#mbb2f945863" y="60.394203"/>
     <use style="fill:#bc141a;stroke:#bc141a;stroke-linejoin:miter;" x="125.00293" xlink:href="#mbb2f945863" y="54.070306"/>
     <use style="fill:#bc141a;stroke:#bc141a;stroke-linejoin:miter;" x="125.922626" xlink:href="#mbb2f945863" y="49.011754"/>
     <use style="fill:#bc141a;stroke:#bc141a;stroke-linejoin:miter;" x="126.842322" xlink:href="#mbb2f945863" y="44.554878"/>
     <use style="fill:#bc141a;stroke:#bc141a;stroke-linejoin:miter;" x="127.762017" xlink:href="#mbb2f945863" y="37.87897"/>
     <use style="fill:#bc141a;stroke:#bc141a;stroke-linejoin:miter;" x="128.681713" xlink:href="#mbb2f945863" y="29.336021"/>
     <use style="fill:#bc141a;stroke:#bc141a;stroke-linejoin:miter;" x="129.601409" xlink:href="#mbb2f945863" y="8.056984"/>
     <use style="fill:#bc141a;stroke:#bc141a;stroke-linejoin:miter;" x="130.521105" xlink:href="#mbb2f945863" y="9.363099"/>
     <use style="fill:#bc141a;stroke:#bc141a;stroke-linejoin:miter;" x="131.4408" xlink:href="#mbb2f945863" y="29.510473"/>
     <use style="fill:#bc141a;stroke:#bc141a;stroke-linejoin:miter;" x="132.360496" xlink:href="#mbb2f945863" y="33.498726"/>
     <use style="fill:#bc141a;stroke:#bc141a;stroke-linejoin:miter;" x="133.280192" xlink:href="#mbb2f945863" y="41.291808"/>
     <use style="fill:#bc141a;stroke:#bc141a;stroke-linejoin:miter;" x="134.199887" xlink:href="#mbb2f945863" y="57.406508"/>
     <use style="fill:#bc141a;stroke:#bc141a;stroke-linejoin:miter;" x="135.119583" xlink:href="#mbb2f945863" y="56.864536"/>
     <use style="fill:#bc141a;stroke:#bc141a;stroke-linejoin:miter;" x="136.039279" xlink:href="#mbb2f945863" y="59.937403"/>
     <use style="fill:#bc141a;stroke:#bc141a;stroke-linejoin:miter;" x="136.958975" xlink:href="#mbb2f945863" y="73.386978"/>
     <use style="fill:#bc141a;stroke:#bc141a;stroke-linejoin:miter;" x="137.87867" xlink:href="#mbb2f945863" y="75.716357"/>
     <use style="fill:#bc141a;stroke:#bc141a;stroke-linejoin:miter;" x="138.798366" xlink:href="#mbb2f945863" y="78.770672"/>
     <use style="fill:#bc141a;stroke:#bc141a;stroke-linejoin:miter;" x="139.718062" xlink:href="#mbb2f945863" y="90.29265"/>
     <use style="fill:#bc141a;stroke:#bc141a;stroke-linejoin:miter;" x="140.637758" xlink:href="#mbb2f945863" y="94.262403"/>
     <use style="fill:#bc141a;stroke:#bc141a;stroke-linejoin:miter;" x="141.557453" xlink:href="#mbb2f945863" y="95.314895"/>
     <use style="fill:#bc141a;stroke:#bc141a;stroke-linejoin:miter;" x="142.477149" xlink:href="#mbb2f945863" y="105.818742"/>
     <use style="fill:#bc141a;stroke:#bc141a;stroke-linejoin:miter;" x="143.396845" xlink:href="#mbb2f945863" y="108.86908"/>
     <use style="fill:#bc141a;stroke:#bc141a;stroke-linejoin:miter;" x="144.31654" xlink:href="#mbb2f945863" y="109.419613"/>
     <use style="fill:#bc141a;stroke:#bc141a;stroke-linejoin:miter;" x="145.236236" xlink:href="#mbb2f945863" y="115.933488"/>
     <use style="fill:#bc141a;stroke:#bc141a;stroke-linejoin:miter;" x="146.155932" xlink:href="#mbb2f945863" y="121.284143"/>
     <use style="fill:#bc141a;stroke:#bc141a;stroke-linejoin:miter;" x="147.075628" xlink:href="#mbb2f945863" y="120.881705"/>
     <use style="fill:#bc141a;stroke:#bc141a;stroke-linejoin:miter;" x="147.995323" xlink:href="#mbb2f945863" y="126.65644"/>
     <use style="fill:#bc141a;stroke:#bc141a;stroke-linejoin:miter;" x="148.915019" xlink:href="#mbb2f945863" y="126.537797"/>
     <use style="fill:#bc141a;stroke:#bc141a;stroke-linejoin:miter;" x="149.834715" xlink:href="#mbb2f945863" y="126.843116"/>
     <use style="fill:#bc141a;stroke:#bc141a;stroke-linejoin:miter;" x="150.754411" xlink:href="#mbb2f945863" y="131.103508"/>
     <use style="fill:#bc141a;stroke:#bc141a;stroke-linejoin:miter;" x="151.674106" xlink:href="#mbb2f945863" y="133.274688"/>
     <use style="fill:#bc141a;stroke:#bc141a;stroke-linejoin:miter;" x="152.593802" xlink:href="#mbb2f945863" y="132.318738"/>
     <use style="fill:#bc141a;stroke:#bc141a;stroke-linejoin:miter;" x="153.513498" xlink:href="#mbb2f945863" y="136.790637"/>
     <use style="fill:#bc141a;stroke:#bc141a;stroke-linejoin:miter;" x="154.433193" xlink:href="#mbb2f945863" y="137.359402"/>
     <use style="fill:#bc141a;stroke:#bc141a;stroke-linejoin:miter;" x="155.352889" xlink:href="#mbb2f945863" y="134.397473"/>
     <use style="fill:#bc141a;stroke:#bc141a;stroke-linejoin:miter;" x="156.272585" xlink:href="#mbb2f945863" y="137.287522"/>
     <use style="fill:#bc141a;stroke:#bc141a;stroke-linejoin:miter;" x="157.192281" xlink:href="#mbb2f945863" y="139.200891"/>
     <use style="fill:#bc141a;stroke:#bc141a;stroke-linejoin:miter;" x="158.111976" xlink:href="#mbb2f945863" y="137.0187"/>
     <use style="fill:#bc141a;stroke:#bc141a;stroke-linejoin:miter;" x="159.031672" xlink:href="#mbb2f945863" y="138.310983"/>
     <use style="fill:#bc141a;stroke:#bc141a;stroke-linejoin:miter;" x="159.951368" xlink:href="#mbb2f945863" y="136.522914"/>
     <use style="fill:#bc141a;stroke:#bc141a;stroke-linejoin:miter;" x="160.871064" xlink:href="#mbb2f945863" y="139.277099"/>
     <use style="fill:#bc141a;stroke:#bc141a;stroke-linejoin:miter;" x="161.790759" xlink:href="#mbb2f945863" y="141.221201"/>
     <use style="fill:#bc141a;stroke:#bc141a;stroke-linejoin:miter;" x="162.710455" xlink:href="#mbb2f945863" y="137.403284"/>
     <use style="fill:#bc141a;stroke:#bc141a;stroke-linejoin:miter;" x="163.630151" xlink:href="#mbb2f945863" y="138.842415"/>
     <use style="fill:#bc141a;stroke:#bc141a;stroke-linejoin:miter;" x="164.549846" xlink:href="#mbb2f945863" y="142.008287"/>
     <use style="fill:#bc141a;stroke:#bc141a;stroke-linejoin:miter;" x="165.469542" xlink:href="#mbb2f945863" y="140.674789"/>
     <use style="fill:#bc141a;stroke:#bc141a;stroke-linejoin:miter;" x="166.389238" xlink:href="#mbb2f945863" y="143.265678"/>
     <use style="fill:#bc141a;stroke:#bc141a;stroke-linejoin:miter;" x="167.308934" xlink:href="#mbb2f945863" y="138.163165"/>
     <use style="fill:#bc141a;stroke:#bc141a;stroke-linejoin:miter;" x="168.228629" xlink:href="#mbb2f945863" y="140.371"/>
     <use style="fill:#bc141a;stroke:#bc141a;stroke-linejoin:miter;" x="169.148325" xlink:href="#mbb2f945863" y="135.948243"/>
     <use style="fill:#bc141a;stroke:#bc141a;stroke-linejoin:miter;" x="170.068021" xlink:href="#mbb2f945863" y="138.800865"/>
     <use style="fill:#bc141a;stroke:#bc141a;stroke-linejoin:miter;" x="170.987717" xlink:href="#mbb2f945863" y="136.835275"/>
     <use style="fill:#bc141a;stroke:#bc141a;stroke-linejoin:miter;" x="171.907412" xlink:href="#mbb2f945863" y="137.323877"/>
     <use style="fill:#bc141a;stroke:#bc141a;stroke-linejoin:miter;" x="172.827108" xlink:href="#mbb2f945863" y="137.226637"/>
     <use style="fill:#bc141a;stroke:#bc141a;stroke-linejoin:miter;" x="173.746804" xlink:href="#mbb2f945863" y="138.230409"/>
     <use style="fill:#bc141a;stroke:#bc141a;stroke-linejoin:miter;" x="174.6665" xlink:href="#mbb2f945863" y="137.843252"/>
     <use style="fill:#bc141a;stroke:#bc141a;stroke-linejoin:miter;" x="175.586195" xlink:href="#mbb2f945863" y="141.144961"/>
     <use style="fill:#bc141a;stroke:#bc141a;stroke-linejoin:miter;" x="176.505891" xlink:href="#mbb2f945863" y="139.333579"/>
     <use style="fill:#bc141a;stroke:#bc141a;stroke-linejoin:miter;" x="177.425587" xlink:href="#mbb2f945863" y="144.029968"/>
     <use style="fill:#bc141a;stroke:#bc141a;stroke-linejoin:miter;" x="178.345282" xlink:href="#mbb2f945863" y="139.758989"/>
     <use style="fill:#bc141a;stroke:#bc141a;stroke-linejoin:miter;" x="179.264978" xlink:href="#mbb2f945863" y="136.117564"/>
     <use style="fill:#bc141a;stroke:#bc141a;stroke-linejoin:miter;" x="180.184674" xlink:href="#mbb2f945863" y="142.302589"/>
     <use style="fill:#bc141a;stroke:#bc141a;stroke-linejoin:miter;" x="181.10437" xlink:href="#mbb2f945863" y="135.210979"/>
     <use style="fill:#bc141a;stroke:#bc141a;stroke-linejoin:miter;" x="182.024065" xlink:href="#mbb2f945863" y="135.04345"/>
     <use style="fill:#bc141a;stroke:#bc141a;stroke-linejoin:miter;" x="182.943761" xlink:href="#mbb2f945863" y="141.658065"/>
     <use style="fill:#bc141a;stroke:#bc141a;stroke-linejoin:miter;" x="183.863457" xlink:href="#mbb2f945863" y="132.932014"/>
     <use style="fill:#bc141a;stroke:#bc141a;stroke-linejoin:miter;" x="184.783153" xlink:href="#mbb2f945863" y="137.551032"/>
     <use style="fill:#bc141a;stroke:#bc141a;stroke-linejoin:miter;" x="185.702848" xlink:href="#mbb2f945863" y="141.983165"/>
     <use style="fill:#bc141a;stroke:#bc141a;stroke-linejoin:miter;" x="186.622544" xlink:href="#mbb2f945863" y="136.70086"/>
     <use style="fill:#bc141a;stroke:#bc141a;stroke-linejoin:miter;" x="187.54224" xlink:href="#mbb2f945863" y="137.293025"/>
     <use style="fill:#bc141a;stroke:#bc141a;stroke-linejoin:miter;" x="188.461935" xlink:href="#mbb2f945863" y="144.225261"/>
     <use style="fill:#bc141a;stroke:#bc141a;stroke-linejoin:miter;" x="189.381631" xlink:href="#mbb2f945863" y="141.997037"/>
     <use style="fill:#bc141a;stroke:#bc141a;stroke-linejoin:miter;" x="190.301327" xlink:href="#mbb2f945863" y="140.450528"/>
     <use style="fill:#bc141a;stroke:#bc141a;stroke-linejoin:miter;" x="191.221023" xlink:href="#mbb2f945863" y="135.264173"/>
     <use style="fill:#bc141a;stroke:#bc141a;stroke-linejoin:miter;" x="192.140718" xlink:href="#mbb2f945863" y="134.162992"/>
     <use style="fill:#bc141a;stroke:#bc141a;stroke-linejoin:miter;" x="193.060414" xlink:href="#mbb2f945863" y="138.409886"/>
     <use style="fill:#bc141a;stroke:#bc141a;stroke-linejoin:miter;" x="193.98011" xlink:href="#mbb2f945863" y="137.306654"/>
     <use style="fill:#bc141a;stroke:#bc141a;stroke-linejoin:miter;" x="194.899806" xlink:href="#mbb2f945863" y="130.547933"/>
     <use style="fill:#bc141a;stroke:#bc141a;stroke-linejoin:miter;" x="195.819501" xlink:href="#mbb2f945863" y="129.476416"/>
     <use style="fill:#bc141a;stroke:#bc141a;stroke-linejoin:miter;" x="196.739197" xlink:href="#mbb2f945863" y="134.686674"/>
     <use style="fill:#bc141a;stroke:#bc141a;stroke-linejoin:miter;" x="197.658893" xlink:href="#mbb2f945863" y="140.954424"/>
     <use style="fill:#bc141a;stroke:#bc141a;stroke-linejoin:miter;" x="198.578588" xlink:href="#mbb2f945863" y="139.705371"/>
     <use style="fill:#bc141a;stroke:#bc141a;stroke-linejoin:miter;" x="199.498284" xlink:href="#mbb2f945863" y="138.785756"/>
     <use style="fill:#bc141a;stroke:#bc141a;stroke-linejoin:miter;" x="200.41798" xlink:href="#mbb2f945863" y="137.587905"/>
     <use style="fill:#bc141a;stroke:#bc141a;stroke-linejoin:miter;" x="201.337676" xlink:href="#mbb2f945863" y="136.987635"/>
     <use style="fill:#bc141a;stroke:#bc141a;stroke-linejoin:miter;" x="202.257371" xlink:href="#mbb2f945863" y="133.505191"/>
     <use style="fill:#bc141a;stroke:#bc141a;stroke-linejoin:miter;" x="203.177067" xlink:href="#mbb2f945863" y="130.902815"/>
     <use style="fill:#bc141a;stroke:#bc141a;stroke-linejoin:miter;" x="204.096763" xlink:href="#mbb2f945863" y="132.141493"/>
     <use style="fill:#bc141a;stroke:#bc141a;stroke-linejoin:miter;" x="205.016459" xlink:href="#mbb2f945863" y="135.565737"/>
     <use style="fill:#bc141a;stroke:#bc141a;stroke-linejoin:miter;" x="205.936154" xlink:href="#mbb2f945863" y="139.083003"/>
     <use style="fill:#bc141a;stroke:#bc141a;stroke-linejoin:miter;" x="206.85585" xlink:href="#mbb2f945863" y="133.749234"/>
     <use style="fill:#bc141a;stroke:#bc141a;stroke-linejoin:miter;" x="207.775546" xlink:href="#mbb2f945863" y="129.270086"/>
     <use style="fill:#bc141a;stroke:#bc141a;stroke-linejoin:miter;" x="208.695241" xlink:href="#mbb2f945863" y="128.102838"/>
     <use style="fill:#bc141a;stroke:#bc141a;stroke-linejoin:miter;" x="209.614937" xlink:href="#mbb2f945863" y="130.289842"/>
     <use style="fill:#bc141a;stroke:#bc141a;stroke-linejoin:miter;" x="210.534633" xlink:href="#mbb2f945863" y="133.3694"/>
     <use style="fill:#bc141a;stroke:#bc141a;stroke-linejoin:miter;" x="211.454329" xlink:href="#mbb2f945863" y="134.945424"/>
     <use style="fill:#bc141a;stroke:#bc141a;stroke-linejoin:miter;" x="212.374024" xlink:href="#mbb2f945863" y="134.823309"/>
     <use style="fill:#bc141a;stroke:#bc141a;stroke-linejoin:miter;" x="213.29372" xlink:href="#mbb2f945863" y="133.209373"/>
     <use style="fill:#bc141a;stroke:#bc141a;stroke-linejoin:miter;" x="214.213416" xlink:href="#mbb2f945863" y="131.448413"/>
     <use style="fill:#bc141a;stroke:#bc141a;stroke-linejoin:miter;" x="215.133112" xlink:href="#mbb2f945863" y="131.465028"/>
     <use style="fill:#bc141a;stroke:#bc141a;stroke-linejoin:miter;" x="216.052807" xlink:href="#mbb2f945863" y="134.064325"/>
     <use style="fill:#bc141a;stroke:#bc141a;stroke-linejoin:miter;" x="216.972503" xlink:href="#mbb2f945863" y="137.093513"/>
     <use style="fill:#bc141a;stroke:#bc141a;stroke-linejoin:miter;" x="217.892199" xlink:href="#mbb2f945863" y="133.352668"/>
     <use style="fill:#bc141a;stroke:#bc141a;stroke-linejoin:miter;" x="218.811894" xlink:href="#mbb2f945863" y="128.097038"/>
     <use style="fill:#bc141a;stroke:#bc141a;stroke-linejoin:miter;" x="219.73159" xlink:href="#mbb2f945863" y="125.670865"/>
     <use style="fill:#bc141a;stroke:#bc141a;stroke-linejoin:miter;" x="220.651286" xlink:href="#mbb2f945863" y="125.910733"/>
     <use style="fill:#bc141a;stroke:#bc141a;stroke-linejoin:miter;" x="221.570982" xlink:href="#mbb2f945863" y="128.225165"/>
     <use style="fill:#bc141a;stroke:#bc141a;stroke-linejoin:miter;" x="222.490677" xlink:href="#mbb2f945863" y="131.791756"/>
     <use style="fill:#bc141a;stroke:#bc141a;stroke-linejoin:miter;" x="223.410373" xlink:href="#mbb2f945863" y="133.149302"/>
     <use style="fill:#bc141a;stroke:#bc141a;stroke-linejoin:miter;" x="224.330069" xlink:href="#mbb2f945863" y="130.861829"/>
     <use style="fill:#bc141a;stroke:#bc141a;stroke-linejoin:miter;" x="225.249765" xlink:href="#mbb2f945863" y="127.259743"/>
     <use style="fill:#bc141a;stroke:#bc141a;stroke-linejoin:miter;" x="226.16946" xlink:href="#mbb2f945863" y="124.164729"/>
     <use style="fill:#bc141a;stroke:#bc141a;stroke-linejoin:miter;" x="227.089156" xlink:href="#mbb2f945863" y="123.72749"/>
     <use style="fill:#bc141a;stroke:#bc141a;stroke-linejoin:miter;" x="228.008852" xlink:href="#mbb2f945863" y="127.530598"/>
     <use style="fill:#bc141a;stroke:#bc141a;stroke-linejoin:miter;" x="228.928547" xlink:href="#mbb2f945863" y="134.146363"/>
    </g>
   </g>
   <g id="line2d_80">
    <path clip-path="url(#pf2e981f36b)" d="M 106.53429 13.830317 
L 107.094554 16.044034 
L 107.654818 16.472027 
L 108.215081 15.268788 
L 108.775345 20.680961 
L 109.335608 23.354068 
L 109.895872 21.507428 
L 110.456136 27.981577 
L 111.016399 28.270014 
L 111.576663 27.372589 
L 112.136927 38.93465 
L 112.69719 35.20735 
L 113.257454 34.346636 
L 113.817717 41.995817 
L 114.377981 48.790278 
L 114.938245 45.02694 
L 115.498508 47.076553 
L 116.058772 56.805636 
L 116.619036 54.826279 
L 117.179299 44.954114 
L 117.739563 51.353968 
L 118.299826 40.355785 
L 118.86009 38.154125 
L 119.420354 25.664033 
L 119.980617 6.86787 
L 120.540881 21.57339 
L 121.101144 24.995124 
L 121.661408 55.3265 
L 122.221672 38.443864 
L 122.781935 63.702276 
L 123.342199 50.002273 
L 123.902463 51.532661 
L 124.462726 59.729822 
L 125.02299 64.733993 
L 125.583253 63.361658 
L 126.143517 65.534125 
L 126.703781 85.269942 
L 127.264044 75.929315 
L 127.824308 75.973647 
L 128.384572 83.196144 
L 128.944835 99.440463 
L 129.505099 89.169282 
L 130.065362 89.810927 
L 130.625626 101.024079 
L 131.18589 93.130213 
L 131.746153 98.383739 
L 132.306417 90.617458 
L 132.866681 97.349296 
L 133.426944 97.417905 
L 133.987208 89.871715 
" style="fill:none;stroke:#08306b;stroke-linecap:square;stroke-width:1.5;"/>
    <defs>
     <path d="M 0 3 
C 0.795609 3 1.55874 2.683901 2.12132 2.12132 
C 2.683901 1.55874 3 0.795609 3 0 
C 3 -0.795609 2.683901 -1.55874 2.12132 -2.12132 
C 1.55874 -2.683901 0.795609 -3 0 -3 
C -0.795609 -3 -1.55874 -2.683901 -2.12132 -2.12132 
C -2.683901 -1.55874 -3 -0.795609 -3 0 
C -3 0.795609 -2.683901 1.55874 -2.12132 2.12132 
C -1.55874 2.683901 -0.795609 3 0 3 
z
" id="meb51e29913" style="stroke:#08306b;"/>
    </defs>
    <g clip-path="url(#pf2e981f36b)">
     <use style="fill:#08306b;stroke:#08306b;" x="106.53429" xlink:href="#meb51e29913" y="13.830317"/>
     <use style="fill:#08306b;stroke:#08306b;" x="107.094554" xlink:href="#meb51e29913" y="16.044034"/>
     <use style="fill:#08306b;stroke:#08306b;" x="107.654818" xlink:href="#meb51e29913" y="16.472027"/>
     <use style="fill:#08306b;stroke:#08306b;" x="108.215081" xlink:href="#meb51e29913" y="15.268788"/>
     <use style="fill:#08306b;stroke:#08306b;" x="108.775345" xlink:href="#meb51e29913" y="20.680961"/>
     <use style="fill:#08306b;stroke:#08306b;" x="109.335608" xlink:href="#meb51e29913" y="23.354068"/>
     <use style="fill:#08306b;stroke:#08306b;" x="109.895872" xlink:href="#meb51e29913" y="21.507428"/>
     <use style="fill:#08306b;stroke:#08306b;" x="110.456136" xlink:href="#meb51e29913" y="27.981577"/>
     <use style="fill:#08306b;stroke:#08306b;" x="111.016399" xlink:href="#meb51e29913" y="28.270014"/>
     <use style="fill:#08306b;stroke:#08306b;" x="111.576663" xlink:href="#meb51e29913" y="27.372589"/>
     <use style="fill:#08306b;stroke:#08306b;" x="112.136927" xlink:href="#meb51e29913" y="38.93465"/>
     <use style="fill:#08306b;stroke:#08306b;" x="112.69719" xlink:href="#meb51e29913" y="35.20735"/>
     <use style="fill:#08306b;stroke:#08306b;" x="113.257454" xlink:href="#meb51e29913" y="34.346636"/>
     <use style="fill:#08306b;stroke:#08306b;" x="113.817717" xlink:href="#meb51e29913" y="41.995817"/>
     <use style="fill:#08306b;stroke:#08306b;" x="114.377981" xlink:href="#meb51e29913" y="48.790278"/>
     <use style="fill:#08306b;stroke:#08306b;" x="114.938245" xlink:href="#meb51e29913" y="45.02694"/>
     <use style="fill:#08306b;stroke:#08306b;" x="115.498508" xlink:href="#meb51e29913" y="47.076553"/>
     <use style="fill:#08306b;stroke:#08306b;" x="116.058772" xlink:href="#meb51e29913" y="56.805636"/>
     <use style="fill:#08306b;stroke:#08306b;" x="116.619036" xlink:href="#meb51e29913" y="54.826279"/>
     <use style="fill:#08306b;stroke:#08306b;" x="117.179299" xlink:href="#meb51e29913" y="44.954114"/>
     <use style="fill:#08306b;stroke:#08306b;" x="117.739563" xlink:href="#meb51e29913" y="51.353968"/>
     <use style="fill:#08306b;stroke:#08306b;" x="118.299826" xlink:href="#meb51e29913" y="40.355785"/>
     <use style="fill:#08306b;stroke:#08306b;" x="118.86009" xlink:href="#meb51e29913" y="38.154125"/>
     <use style="fill:#08306b;stroke:#08306b;" x="119.420354" xlink:href="#meb51e29913" y="25.664033"/>
     <use style="fill:#08306b;stroke:#08306b;" x="119.980617" xlink:href="#meb51e29913" y="6.86787"/>
     <use style="fill:#08306b;stroke:#08306b;" x="120.540881" xlink:href="#meb51e29913" y="21.57339"/>
     <use style="fill:#08306b;stroke:#08306b;" x="121.101144" xlink:href="#meb51e29913" y="24.995124"/>
     <use style="fill:#08306b;stroke:#08306b;" x="121.661408" xlink:href="#meb51e29913" y="55.3265"/>
     <use style="fill:#08306b;stroke:#08306b;" x="122.221672" xlink:href="#meb51e29913" y="38.443864"/>
     <use style="fill:#08306b;stroke:#08306b;" x="122.781935" xlink:href="#meb51e29913" y="63.702276"/>
     <use style="fill:#08306b;stroke:#08306b;" x="123.342199" xlink:href="#meb51e29913" y="50.002273"/>
     <use style="fill:#08306b;stroke:#08306b;" x="123.902463" xlink:href="#meb51e29913" y="51.532661"/>
     <use style="fill:#08306b;stroke:#08306b;" x="124.462726" xlink:href="#meb51e29913" y="59.729822"/>
     <use style="fill:#08306b;stroke:#08306b;" x="125.02299" xlink:href="#meb51e29913" y="64.733993"/>
     <use style="fill:#08306b;stroke:#08306b;" x="125.583253" xlink:href="#meb51e29913" y="63.361658"/>
     <use style="fill:#08306b;stroke:#08306b;" x="126.143517" xlink:href="#meb51e29913" y="65.534125"/>
     <use style="fill:#08306b;stroke:#08306b;" x="126.703781" xlink:href="#meb51e29913" y="85.269942"/>
     <use style="fill:#08306b;stroke:#08306b;" x="127.264044" xlink:href="#meb51e29913" y="75.929315"/>
     <use style="fill:#08306b;stroke:#08306b;" x="127.824308" xlink:href="#meb51e29913" y="75.973647"/>
     <use style="fill:#08306b;stroke:#08306b;" x="128.384572" xlink:href="#meb51e29913" y="83.196144"/>
     <use style="fill:#08306b;stroke:#08306b;" x="128.944835" xlink:href="#meb51e29913" y="99.440463"/>
     <use style="fill:#08306b;stroke:#08306b;" x="129.505099" xlink:href="#meb51e29913" y="89.169282"/>
     <use style="fill:#08306b;stroke:#08306b;" x="130.065362" xlink:href="#meb51e29913" y="89.810927"/>
     <use style="fill:#08306b;stroke:#08306b;" x="130.625626" xlink:href="#meb51e29913" y="101.024079"/>
     <use style="fill:#08306b;stroke:#08306b;" x="131.18589" xlink:href="#meb51e29913" y="93.130213"/>
     <use style="fill:#08306b;stroke:#08306b;" x="131.746153" xlink:href="#meb51e29913" y="98.383739"/>
     <use style="fill:#08306b;stroke:#08306b;" x="132.306417" xlink:href="#meb51e29913" y="90.617458"/>
     <use style="fill:#08306b;stroke:#08306b;" x="132.866681" xlink:href="#meb51e29913" y="97.349296"/>
     <use style="fill:#08306b;stroke:#08306b;" x="133.426944" xlink:href="#meb51e29913" y="97.417905"/>
     <use style="fill:#08306b;stroke:#08306b;" x="133.987208" xlink:href="#meb51e29913" y="89.871715"/>
    </g>
   </g>
   <g id="patch_4">
    <path d="M 36.758125 153.81919 
L 36.758125 -0 
" style="fill:none;stroke:#000000;stroke-linecap:square;stroke-linejoin:miter;stroke-width:0.8;"/>
   </g>
   <g id="patch_5">
    <path d="M 238.07952 153.81919 
L 238.07952 -0 
" style="fill:none;stroke:#000000;stroke-linecap:square;stroke-linejoin:miter;stroke-width:0.8;"/>
   </g>
   <g id="patch_6">
    <path d="M 36.758125 153.81919 
L 238.07952 153.81919 
" style="fill:none;stroke:#000000;stroke-linecap:square;stroke-linejoin:miter;stroke-width:0.8;"/>
   </g>
   <g id="patch_7">
    <path d="M 36.758125 -0 
L 238.07952 -0 
" style="fill:none;stroke:#000000;stroke-linecap:square;stroke-linejoin:miter;stroke-width:0.8;"/>
   </g>
   <g id="legend_1">
    <g id="patch_8">
     <path d="M 94.209208 37.35625 
L 231.07952 37.35625 
Q 233.07952 37.35625 233.07952 35.35625 
L 233.07952 7 
Q 233.07952 5 231.07952 5 
L 94.209208 5 
Q 92.209208 5 92.209208 7 
L 92.209208 35.35625 
Q 92.209208 37.35625 94.209208 37.35625 
z
" style="fill:#ffffff;opacity:0.8;stroke:#cccccc;stroke-linejoin:miter;"/>
    </g>
    <g id="line2d_81">
     <path d="M 96.209208 13.098437 
L 116.209208 13.098437 
" style="fill:none;stroke:#bc141a;stroke-linecap:square;stroke-width:1.5;"/>
    </g>
    <g id="line2d_82">
     <g>
      <use style="fill:#bc141a;stroke:#bc141a;stroke-linejoin:miter;" x="106.209208" xlink:href="#mbb2f945863" y="13.098437"/>
     </g>
    </g>
    <g id="text_20">
     <!-- Transmon-fluxonium -->
     <g transform="translate(124.209208 16.598437)scale(0.1 -0.1)">
      <defs>
       <path d="M 19.09375 0 
L 19.09375 5.171875 
L 28.421875 5.171875 
L 28.421875 67.09375 
L 6.984375 67.09375 
L 6.984375 55.71875 
L 0.984375 55.71875 
L 0.984375 72.90625 
L 65.71875 72.90625 
L 65.71875 55.71875 
L 59.71875 55.71875 
L 59.71875 67.09375 
L 38.28125 67.09375 
L 38.28125 5.171875 
L 47.609375 5.171875 
L 47.609375 0 
z
" id="DejaVuSerif-84"/>
       <path d="M 47.796875 52 
L 47.796875 39.015625 
L 42.625 39.015625 
Q 42.390625 42.875 40.484375 44.78125 
Q 38.578125 46.6875 34.90625 46.6875 
Q 28.265625 46.6875 24.71875 42.09375 
Q 21.1875 37.5 21.1875 28.90625 
L 21.1875 5.171875 
L 31.59375 5.171875 
L 31.59375 0 
L 4.109375 0 
L 4.109375 5.171875 
L 12.203125 5.171875 
L 12.203125 46.78125 
L 3.609375 46.78125 
L 3.609375 51.90625 
L 21.1875 51.90625 
L 21.1875 42.671875 
Q 23.828125 48.09375 27.96875 50.703125 
Q 32.125 53.328125 38.09375 53.328125 
Q 40.28125 53.328125 42.703125 52.984375 
Q 45.125 52.640625 47.796875 52 
z
" id="DejaVuSerif-114"/>
       <path d="M 39.796875 16.3125 
L 39.796875 27.296875 
L 28.21875 27.296875 
Q 21.53125 27.296875 18.25 24.40625 
Q 14.984375 21.53125 14.984375 15.578125 
Q 14.984375 10.15625 18.296875 6.984375 
Q 21.625 3.8125 27.296875 3.8125 
Q 32.90625 3.8125 36.34375 7.28125 
Q 39.796875 10.75 39.796875 16.3125 
z
M 48.78125 32.421875 
L 48.78125 5.171875 
L 56.78125 5.171875 
L 56.78125 0 
L 39.796875 0 
L 39.796875 5.609375 
Q 36.8125 2 32.90625 0.28125 
Q 29 -1.421875 23.78125 -1.421875 
Q 15.140625 -1.421875 10.0625 3.171875 
Q 4.984375 7.765625 4.984375 15.578125 
Q 4.984375 23.640625 10.796875 28.078125 
Q 16.609375 32.515625 27.203125 32.515625 
L 39.796875 32.515625 
L 39.796875 36.078125 
Q 39.796875 42 36.203125 45.234375 
Q 32.625 48.484375 26.125 48.484375 
Q 20.75 48.484375 17.578125 46.046875 
Q 14.40625 43.609375 13.625 38.8125 
L 8.984375 38.8125 
L 8.984375 49.3125 
Q 13.671875 51.3125 18.09375 52.3125 
Q 22.515625 53.328125 26.703125 53.328125 
Q 37.5 53.328125 43.140625 47.96875 
Q 48.78125 42.625 48.78125 32.421875 
z
" id="DejaVuSerif-97"/>
       <path d="M 4.109375 0 
L 4.109375 5.171875 
L 12.203125 5.171875 
L 12.203125 46.6875 
L 3.609375 46.6875 
L 3.609375 51.90625 
L 21.1875 51.90625 
L 21.1875 42.671875 
Q 23.6875 47.953125 27.65625 50.640625 
Q 31.640625 53.328125 36.921875 53.328125 
Q 45.515625 53.328125 49.5625 48.390625 
Q 53.609375 43.453125 53.609375 33.015625 
L 53.609375 5.171875 
L 61.625 5.171875 
L 61.625 0 
L 36.8125 0 
L 36.8125 5.171875 
L 44.578125 5.171875 
L 44.578125 30.171875 
Q 44.578125 39.703125 42.234375 43.234375 
Q 39.890625 46.78125 33.984375 46.78125 
Q 27.734375 46.78125 24.453125 42.203125 
Q 21.1875 37.640625 21.1875 28.90625 
L 21.1875 5.171875 
L 29 5.171875 
L 29 0 
z
" id="DejaVuSerif-110"/>
       <path d="M 5.609375 2.875 
L 5.609375 14.984375 
L 10.796875 14.984375 
Q 10.984375 9.1875 14.421875 6.296875 
Q 17.875 3.421875 24.609375 3.421875 
Q 30.671875 3.421875 33.84375 5.6875 
Q 37.015625 7.953125 37.015625 12.3125 
Q 37.015625 15.71875 34.6875 17.8125 
Q 32.375 19.921875 24.90625 22.3125 
L 18.40625 24.515625 
Q 11.71875 26.65625 8.71875 29.875 
Q 5.71875 33.109375 5.71875 38.09375 
Q 5.71875 45.21875 10.9375 49.265625 
Q 16.15625 53.328125 25.390625 53.328125 
Q 29.5 53.328125 34.03125 52.25 
Q 38.578125 51.171875 43.40625 49.125 
L 43.40625 37.796875 
L 38.234375 37.796875 
Q 38.03125 42.828125 34.703125 45.65625 
Q 31.390625 48.484375 25.6875 48.484375 
Q 20.015625 48.484375 17.109375 46.484375 
Q 14.203125 44.484375 14.203125 40.484375 
Q 14.203125 37.203125 16.40625 35.21875 
Q 18.609375 33.25 25.203125 31.203125 
L 32.328125 29 
Q 39.703125 26.703125 42.9375 23.265625 
Q 46.1875 19.828125 46.1875 14.40625 
Q 46.1875 7.03125 40.546875 2.796875 
Q 34.90625 -1.421875 25 -1.421875 
Q 19.96875 -1.421875 15.1875 -0.34375 
Q 10.40625 0.734375 5.609375 2.875 
z
" id="DejaVuSerif-115"/>
       <path d="M 51.8125 41.796875 
Q 54.390625 47.515625 58.421875 50.421875 
Q 62.453125 53.328125 67.828125 53.328125 
Q 75.984375 53.328125 79.984375 48.265625 
Q 83.984375 43.21875 83.984375 33.015625 
L 83.984375 5.171875 
L 92.09375 5.171875 
L 92.09375 0 
L 67.1875 0 
L 67.1875 5.171875 
L 75 5.171875 
L 75 31.984375 
Q 75 39.9375 72.65625 43.3125 
Q 70.3125 46.6875 64.890625 46.6875 
Q 58.890625 46.6875 55.734375 42.140625 
Q 52.59375 37.59375 52.59375 28.90625 
L 52.59375 5.171875 
L 60.40625 5.171875 
L 60.40625 0 
L 35.796875 0 
L 35.796875 5.171875 
L 43.609375 5.171875 
L 43.609375 32.328125 
Q 43.609375 40.09375 41.265625 43.390625 
Q 38.921875 46.6875 33.5 46.6875 
Q 27.484375 46.6875 24.328125 42.140625 
Q 21.1875 37.59375 21.1875 28.90625 
L 21.1875 5.171875 
L 29 5.171875 
L 29 0 
L 4.109375 0 
L 4.109375 5.171875 
L 12.203125 5.171875 
L 12.203125 46.78125 
L 3.609375 46.78125 
L 3.609375 51.90625 
L 21.1875 51.90625 
L 21.1875 42.671875 
Q 23.6875 47.859375 27.53125 50.59375 
Q 31.390625 53.328125 36.28125 53.328125 
Q 42.328125 53.328125 46.375 50.3125 
Q 50.4375 47.3125 51.8125 41.796875 
z
" id="DejaVuSerif-109"/>
       <path d="M 30.078125 3.421875 
Q 37.3125 3.421875 40.984375 9.125 
Q 44.671875 14.84375 44.671875 25.984375 
Q 44.671875 37.109375 40.984375 42.796875 
Q 37.3125 48.484375 30.078125 48.484375 
Q 22.859375 48.484375 19.171875 42.796875 
Q 15.484375 37.109375 15.484375 25.984375 
Q 15.484375 14.84375 19.1875 9.125 
Q 22.90625 3.421875 30.078125 3.421875 
z
M 30.078125 -1.421875 
Q 18.75 -1.421875 11.859375 6.078125 
Q 4.984375 13.578125 4.984375 25.984375 
Q 4.984375 38.375 11.84375 45.84375 
Q 18.703125 53.328125 30.078125 53.328125 
Q 41.453125 53.328125 48.3125 45.84375 
Q 55.171875 38.375 55.171875 25.984375 
Q 55.171875 13.578125 48.3125 6.078125 
Q 41.453125 -1.421875 30.078125 -1.421875 
z
" id="DejaVuSerif-111"/>
       <path d="M 4.390625 30.609375 
L 29.390625 30.609375 
L 29.390625 23 
L 4.390625 23 
z
" id="DejaVuSerif-45"/>
       <path d="M 43.015625 63.71875 
L 38.28125 63.71875 
Q 38.234375 67.390625 36.203125 69.28125 
Q 34.1875 71.1875 30.328125 71.1875 
Q 25.296875 71.1875 23.234375 68.421875 
Q 21.1875 65.671875 21.1875 58.59375 
L 21.1875 51.90625 
L 35.6875 51.90625 
L 35.6875 46.6875 
L 21.1875 46.6875 
L 21.1875 5.171875 
L 32.71875 5.171875 
L 32.71875 0 
L 3.609375 0 
L 3.609375 5.171875 
L 12.203125 5.171875 
L 12.203125 46.6875 
L 3.609375 46.6875 
L 3.609375 51.90625 
L 12.203125 51.90625 
L 12.203125 58.40625 
Q 12.203125 67.09375 16.71875 71.53125 
Q 21.234375 75.984375 29.984375 75.984375 
Q 33.25 75.984375 36.515625 75.390625 
Q 39.796875 74.8125 43.015625 73.578125 
z
" id="DejaVuSerif-102"/>
       <path d="M 20.515625 5.171875 
L 29 5.171875 
L 29 0 
L 2.875 0 
L 2.875 5.171875 
L 11.53125 5.171875 
L 11.53125 70.796875 
L 2.875 70.796875 
L 2.875 75.984375 
L 20.515625 75.984375 
z
" id="DejaVuSerif-108"/>
       <path d="M 35.40625 51.90625 
L 52.203125 51.90625 
L 52.203125 5.171875 
L 60.6875 5.171875 
L 60.6875 0 
L 43.21875 0 
L 43.21875 9.1875 
Q 40.71875 4 36.765625 1.28125 
Q 32.8125 -1.421875 27.59375 -1.421875 
Q 18.953125 -1.421875 14.875 3.484375 
Q 10.796875 8.40625 10.796875 18.890625 
L 10.796875 46.6875 
L 2.6875 46.6875 
L 2.6875 51.90625 
L 19.828125 51.90625 
L 19.828125 21.6875 
Q 19.828125 12.203125 22.140625 8.6875 
Q 24.46875 5.171875 30.421875 5.171875 
Q 36.671875 5.171875 39.9375 9.765625 
Q 43.21875 14.359375 43.21875 23.09375 
L 43.21875 46.6875 
L 35.40625 46.6875 
z
" id="DejaVuSerif-117"/>
       <path d="M 29.109375 31.6875 
L 39.984375 46.6875 
L 33.015625 46.6875 
L 33.015625 51.90625 
L 52.984375 51.90625 
L 52.984375 46.6875 
L 46.09375 46.6875 
L 32.171875 27.484375 
L 48.390625 5.171875 
L 55.171875 5.171875 
L 55.171875 0 
L 31.203125 0 
L 31.203125 5.171875 
L 37.796875 5.171875 
L 26.515625 20.703125 
L 15.1875 5.171875 
L 21.921875 5.171875 
L 21.921875 0 
L 2.203125 0 
L 2.203125 5.171875 
L 9.078125 5.171875 
L 23.390625 24.90625 
L 7.625 46.6875 
L 1.21875 46.6875 
L 1.21875 51.90625 
L 24.421875 51.90625 
L 24.421875 46.6875 
L 18.21875 46.6875 
z
" id="DejaVuSerif-120"/>
       <path d="M 9.71875 68.015625 
Q 9.71875 70.265625 11.34375 71.921875 
Q 12.984375 73.578125 15.28125 73.578125 
Q 17.53125 73.578125 19.15625 71.921875 
Q 20.796875 70.265625 20.796875 68.015625 
Q 20.796875 65.71875 19.1875 64.109375 
Q 17.578125 62.5 15.28125 62.5 
Q 12.984375 62.5 11.34375 64.109375 
Q 9.71875 65.71875 9.71875 68.015625 
z
M 21.1875 5.171875 
L 29.6875 5.171875 
L 29.6875 0 
L 3.609375 0 
L 3.609375 5.171875 
L 12.203125 5.171875 
L 12.203125 46.6875 
L 3.609375 46.6875 
L 3.609375 51.90625 
L 21.1875 51.90625 
z
" id="DejaVuSerif-105"/>
      </defs>
      <use xlink:href="#DejaVuSerif-84"/>
      <use x="66.699219" xlink:href="#DejaVuSerif-114"/>
      <use x="114.501953" xlink:href="#DejaVuSerif-97"/>
      <use x="174.121094" xlink:href="#DejaVuSerif-110"/>
      <use x="238.525391" xlink:href="#DejaVuSerif-115"/>
      <use x="289.84375" xlink:href="#DejaVuSerif-109"/>
      <use x="384.667969" xlink:href="#DejaVuSerif-111"/>
      <use x="444.873047" xlink:href="#DejaVuSerif-110"/>
      <use x="509.277344" xlink:href="#DejaVuSerif-45"/>
      <use x="543.066406" xlink:href="#DejaVuSerif-102"/>
      <use x="580.078125" xlink:href="#DejaVuSerif-108"/>
      <use x="612.060547" xlink:href="#DejaVuSerif-117"/>
      <use x="676.464844" xlink:href="#DejaVuSerif-120"/>
      <use x="732.861328" xlink:href="#DejaVuSerif-111"/>
      <use x="793.066406" xlink:href="#DejaVuSerif-110"/>
      <use x="857.470703" xlink:href="#DejaVuSerif-105"/>
      <use x="889.453125" xlink:href="#DejaVuSerif-117"/>
      <use x="953.857422" xlink:href="#DejaVuSerif-109"/>
     </g>
    </g>
    <g id="line2d_83">
     <path d="M 96.209208 27.776562 
L 116.209208 27.776562 
" style="fill:none;stroke:#08306b;stroke-linecap:square;stroke-width:1.5;"/>
    </g>
    <g id="line2d_84">
     <g>
      <use style="fill:#08306b;stroke:#08306b;" x="106.209208" xlink:href="#meb51e29913" y="27.776562"/>
     </g>
    </g>
    <g id="text_21">
     <!-- Transmon-transmon -->
     <g transform="translate(124.209208 31.276562)scale(0.1 -0.1)">
      <defs>
       <path d="M 10.796875 46.6875 
L 2.875 46.6875 
L 2.875 51.90625 
L 10.796875 51.90625 
L 10.796875 68.015625 
L 19.828125 68.015625 
L 19.828125 51.90625 
L 36.71875 51.90625 
L 36.71875 46.6875 
L 19.828125 46.6875 
L 19.828125 13.71875 
Q 19.828125 7.125 21.09375 5.265625 
Q 22.359375 3.421875 25.78125 3.421875 
Q 29.296875 3.421875 30.90625 5.484375 
Q 32.515625 7.5625 32.625 12.203125 
L 39.40625 12.203125 
Q 39.015625 5.125 35.546875 1.84375 
Q 32.078125 -1.421875 25 -1.421875 
Q 17.234375 -1.421875 14.015625 2.015625 
Q 10.796875 5.46875 10.796875 13.71875 
z
" id="DejaVuSerif-116"/>
      </defs>
      <use xlink:href="#DejaVuSerif-84"/>
      <use x="66.699219" xlink:href="#DejaVuSerif-114"/>
      <use x="114.501953" xlink:href="#DejaVuSerif-97"/>
      <use x="174.121094" xlink:href="#DejaVuSerif-110"/>
      <use x="238.525391" xlink:href="#DejaVuSerif-115"/>
      <use x="289.84375" xlink:href="#DejaVuSerif-109"/>
      <use x="384.667969" xlink:href="#DejaVuSerif-111"/>
      <use x="444.873047" xlink:href="#DejaVuSerif-110"/>
      <use x="509.277344" xlink:href="#DejaVuSerif-45"/>
      <use x="543.066406" xlink:href="#DejaVuSerif-116"/>
      <use x="583.251953" xlink:href="#DejaVuSerif-114"/>
      <use x="631.054688" xlink:href="#DejaVuSerif-97"/>
      <use x="690.673828" xlink:href="#DejaVuSerif-110"/>
      <use x="755.078125" xlink:href="#DejaVuSerif-115"/>
      <use x="806.396484" xlink:href="#DejaVuSerif-109"/>
      <use x="901.220703" xlink:href="#DejaVuSerif-111"/>
      <use x="961.425781" xlink:href="#DejaVuSerif-110"/>
     </g>
    </g>
   </g>
  </g>
 </g>
 <defs>
  <clipPath id="pf2e981f36b">
   <rect height="153.81919" width="201.321395" x="36.758125" y="-0"/>
  </clipPath>
 </defs>
</svg>
